<svg width="275" height="85" viewBox="0 0 275 85" fill="none" xmlns="http://www.w3.org/2000/svg">
<g clip-path="url(#clip0_1_19)">
<path d="M96.8663 13.2848V4.26798e-06C92.5981 -0.00804955 88.6052 0.728875 84.9079 2.1987C81.1175 3.70476 77.6308 5.97996 74.4721 9.01223C70.9854 12.3546 68.4098 16.0956 66.7495 20.195C65.0892 24.2943 64.344 28.7602 64.5222 33.5442C64.6437 36.8341 65.2795 39.9993 66.3445 42.9631C67.4096 45.9269 68.9079 48.6934 70.7586 51.186C70.7545 51.186 70.7505 51.182 70.7464 51.178H70.7424L70.9611 51.4639L71.1798 51.7498C71.2203 51.8022 71.2607 51.8585 71.3012 51.9109C71.3417 51.9632 71.3822 52.0196 71.4268 52.072L84.1182 68.538L96.8096 85.004L109.898 68.091L122.986 51.178C122.986 51.178 122.966 51.186 122.958 51.1941C122.95 51.2022 122.938 51.2022 122.93 51.2102C124.796 48.6733 126.295 45.8544 127.352 42.8383C128.409 39.8221 129.02 36.6086 129.113 33.2784C129.113 33.2623 129.113 33.2462 129.113 33.2301C129.113 33.2301 129.113 33.2301 129.113 33.2341L115.843 33.3066V33.2985C115.766 34.8851 115.494 36.4194 115.033 37.8852C114.288 40.249 113.049 42.4517 111.319 44.4812C109.428 46.7041 107.245 48.3833 104.804 49.5068C102.366 50.6303 99.6727 51.1941 96.7692 51.182C91.4561 51.1619 86.7343 48.9994 83.3245 45.5846C79.9147 42.1698 77.817 37.5026 77.7563 32.4649C77.6915 27.2219 79.773 22.446 83.203 18.9708C86.6371 15.4956 91.4156 13.321 96.7489 13.2848" fill="url(#paint0_linear_1_19)"/>
<path d="M129.202 29.9884C129.202 21.7373 125.959 14.2392 120.69 8.81491C118.058 6.10077 114.915 3.89805 111.417 2.37588C107.918 0.849681 104.062 0.00805664 100.025 0.00805664V4.67122C103.402 4.67122 106.61 5.3719 109.533 6.6444C113.915 8.55316 117.665 11.7505 120.314 15.7935C122.962 19.8366 124.513 24.7091 124.513 29.9844H129.202V29.9884Z" fill="black"/>
<path d="M120.386 29.9884C120.386 24.1856 118.127 18.8983 114.454 15.0606C112.619 13.1398 110.424 11.5814 107.982 10.4982C105.541 9.41492 102.844 8.81491 100.025 8.81491V13.1922C102.216 13.1922 104.289 13.6553 106.193 14.4969C109.043 15.7573 111.493 17.8795 113.231 20.5654C114.968 23.2514 115.984 26.489 115.984 29.9884H120.386Z" fill="black"/>
<path d="M111.161 29.9884C111.161 26.7628 109.947 23.8111 107.954 21.6527C106.954 20.5735 105.759 19.6876 104.415 19.0755C103.074 18.4594 101.584 18.1171 100.029 18.1171V21.9024C101.021 21.9024 101.957 22.1198 102.823 22.5144C104.119 23.1064 105.257 24.1172 106.067 25.4138C106.877 26.7105 107.359 28.281 107.359 29.9884H111.165H111.161Z" fill="black"/>
<path d="M96.8056 36.9267C99.3284 36.9267 101.374 34.8931 101.374 32.3844C101.374 29.8757 99.3284 27.842 96.8056 27.842C94.2828 27.842 92.2377 29.8757 92.2377 32.3844C92.2377 34.8931 94.2828 36.9267 96.8056 36.9267Z" fill="black"/>
<path d="M132.888 39.8463C132.888 34.2167 132.916 28.587 132.879 22.9574C132.843 16.9775 134.848 11.8069 139.031 7.5263C142.736 3.72893 147.255 1.53426 152.593 1.08325C158.979 0.543641 164.482 2.56918 169.229 6.77327C169.52 7.03099 169.67 7.02697 169.962 6.76119C173.379 3.63228 177.384 1.66312 182.009 1.14365C188.375 0.430888 194.077 2.1383 198.973 6.2538C202.95 9.59613 205.424 13.8526 206.323 18.9748C206.525 20.1144 206.627 21.2701 206.627 22.4259C206.627 34.2932 206.627 46.1645 206.627 58.0318C206.627 61.4305 204.472 64.1285 201.16 64.6923C196.624 65.4655 193.32 62.0184 193.328 58.2976C193.36 46.7122 193.36 35.1308 193.328 23.5453C193.32 19.9372 191.833 17.066 188.537 15.3667C183.414 12.7291 177.162 16.0311 176.409 21.7212C176.384 21.9024 176.388 22.0836 176.388 22.2688C176.388 34.2005 176.388 46.1283 176.388 58.06C176.388 60.8869 175.056 62.9567 172.525 64.1205C169.966 65.3004 167.491 64.9379 165.341 63.0654C163.847 61.7607 163.17 60.0694 163.174 58.0882C163.183 46.5229 163.195 34.9616 163.166 23.3963C163.158 20.058 161.789 17.3359 158.91 15.56C154.816 13.0311 149.463 14.6821 147.174 19.0876C146.595 20.203 146.275 21.3628 146.284 22.6473C146.312 27.383 146.332 32.1186 146.271 36.8543C146.178 43.9859 146.223 51.1176 146.178 58.2492C146.158 61.5352 143.514 64.503 140.371 64.7648C136.625 65.0749 133.616 62.9084 132.981 59.413C132.896 58.9378 132.896 58.4425 132.896 57.9553C132.892 51.9189 132.896 45.8826 132.896 39.8463H132.888Z" fill="black"/>
<path d="M242.688 65.091C225.17 65.2158 210.105 50.5941 210.397 32.5133C210.676 14.8674 225.263 0.749014 242.704 0.777203C260.644 0.805391 275.312 15.1976 275 33.6287C274.696 51.4035 260.077 65.1433 242.692 65.091H242.688ZM242.672 51.9189C253.505 51.9874 261.665 43.3014 261.75 33.2824C261.843 22.4742 253.428 14.0741 242.696 14.0781C232.212 14.0781 223.85 22.5426 223.643 32.6784C223.436 42.8584 231.993 52.0075 242.672 51.9189Z" fill="black"/>
<path d="M52.337 9.5639C45.1692 2.1262 36.2844 -0.797338 26.0592 0.539596C18.8833 1.47787 12.8494 4.74772 8.0182 10.1277C3.76207 14.8633 1.27562 20.4285 0.344216 26.7024C0.230827 27.4595 0.287521 28.2407 0 28.9736V58.3217C0.0647935 58.6197 0.125537 58.9177 0.19843 59.2117C1.0043 62.4855 4.22778 64.6077 7.76308 64.201C11.0675 63.8184 13.3758 61.1325 13.3758 57.6734C13.3758 49.3659 13.3758 41.0584 13.3758 32.7468C13.3758 31.4381 13.4001 30.1293 13.5823 28.8327C14.1209 24.9588 15.5788 21.4876 18.3528 18.6768C22.2323 14.7425 26.9906 13.1358 32.4818 13.7438C36.8351 14.223 40.419 16.1962 43.1889 19.5506C46.0966 23.0742 47.3641 27.2058 47.3803 31.72C47.4127 40.4181 47.3884 49.1162 47.3924 57.8103C47.3924 60.5768 49.1297 62.9728 51.77 63.8748C54.5076 64.8131 57.5731 63.9835 59.2699 61.8734C60.3228 60.5647 60.7196 59.0506 60.7237 57.4157C60.7277 49.0679 60.7277 40.7161 60.7237 32.3683C60.7237 30.1776 60.6144 27.9951 60.2539 25.8326C59.2172 19.6392 56.7065 14.1022 52.337 9.57195V9.5639Z" fill="black"/>
</g>
<defs>
<linearGradient id="paint0_linear_1_19" x1="64.4979" y1="42.5" x2="129.113" y2="42.5" gradientUnits="userSpaceOnUse">
<stop stop-color="#B1EA50"/>
<stop offset="0.31" stop-color="#83C63C"/>
<stop offset="0.61" stop-color="#60AA2E"/>
<stop offset="0.84" stop-color="#4A9A25"/>
<stop offset="1" stop-color="#439422"/>
</linearGradient>
<clipPath id="clip0_1_19">
<rect width="275" height="85" fill="white"/>
</clipPath>
</defs>
</svg>
