<svg width="21" height="20" viewBox="0 0 21 20" fill="none" xmlns="http://www.w3.org/2000/svg">
<g id="About">
<path id="Vector" fill-rule="evenodd" clip-rule="evenodd" d="M8.65004 6.38474C8.69485 6.46084 8.73966 6.53695 8.78447 6.59403C8.82928 6.65111 8.89649 6.70819 8.9413 6.76527C9.00852 6.82236 9.07573 6.87944 9.16535 6.93652C9.23256 6.97457 9.32218 7.03165 9.43421 7.05068C9.52383 7.08873 9.61345 7.10776 9.72547 7.12679C9.83749 7.14581 9.92711 7.14581 10.0167 7.14581C10.1064 7.14581 10.2184 7.14581 10.308 7.12679C10.3976 7.10776 10.4872 7.08873 10.5544 7.05068H10.5769C10.6665 7.01262 10.7561 6.97457 10.8457 6.91749C10.9129 6.87944 10.9801 6.82236 11.0474 6.76527L11.0698 6.74625C11.137 6.68917 11.1818 6.63209 11.2266 6.57501C11.2714 6.51792 11.3162 6.46084 11.3386 6.38474C11.3386 6.36571 11.3386 6.36571 11.361 6.34668C11.4058 6.27057 11.4282 6.17544 11.4506 6.09933C11.473 6.02323 11.473 5.92809 11.473 5.85198C11.473 5.77588 11.473 5.68074 11.4506 5.60463C11.4282 5.52853 11.4058 5.45242 11.361 5.35728C11.2938 5.22409 11.2042 5.10993 11.0922 5.0148C11.0698 4.99577 11.0698 4.99577 11.0474 4.97675C10.9801 4.91966 10.9129 4.88161 10.8233 4.82453C10.7337 4.78648 10.6665 4.74842 10.5769 4.71037C10.4872 4.67232 10.3976 4.65329 10.308 4.63426C10.196 4.61523 10.1064 4.61523 10.0167 4.61523C9.92711 4.61523 9.81509 4.61523 9.72547 4.63426C9.63585 4.65329 9.54623 4.67232 9.45661 4.71037H9.43421C9.34459 4.74842 9.25497 4.78648 9.18776 4.82453C9.09814 4.88161 9.03092 4.91966 8.96371 4.97675C8.89649 5.03383 8.82928 5.09091 8.78447 5.14799C8.73966 5.20507 8.69485 5.28118 8.65004 5.35728C8.60523 5.43339 8.58283 5.5095 8.56042 5.58561C8.53802 5.68074 8.53802 5.75685 8.53802 5.83296C8.53802 5.90906 8.53802 6.0042 8.56042 6.08031C8.58283 6.23252 8.62764 6.30863 8.65004 6.38474ZM11.7643 13.3486H11.249V8.68699C11.249 8.42062 11.0025 8.19229 10.6665 8.19229H8.31397C8.0003 8.19229 7.73145 8.40159 7.73145 8.68699V9.71445C7.73145 9.98082 7.9779 10.2091 8.31397 10.2091H8.78447V13.3676H8.31397C8.0003 13.3676 7.73145 13.5769 7.73145 13.8623V14.8898C7.73145 15.1561 7.9779 15.3845 8.31397 15.3845H11.7643C12.078 15.3845 12.3468 15.1752 12.3468 14.8898V13.8623C12.3468 13.5769 12.078 13.3486 11.7643 13.3486Z" fill="url(#paint0_linear_52_8323)"/>
<path id="Vector_2" fill-rule="evenodd" clip-rule="evenodd" d="M10.0391 0C4.51804 0 0.0390625 4.47898 0.0390625 10C0.0390625 15.521 4.51804 20 10.0391 20C15.5601 20 20.0391 15.521 20.0391 10C20.0391 4.47898 15.5601 0 10.0391 0ZM10.0391 18.6837C5.2493 18.6837 1.35533 14.7898 1.35533 10C1.35533 5.21024 5.2493 1.31627 10.0391 1.31627C14.8288 1.31627 18.7228 5.21024 18.7228 10C18.7228 14.7898 14.8288 18.6837 10.0391 18.6837Z" fill="url(#paint1_linear_52_8323)"/>
</g>
<defs>
<linearGradient id="paint0_linear_52_8323" x1="15.3591" y1="9.99985" x2="7.85909" y2="9.41277" gradientUnits="userSpaceOnUse">
<stop stop-color="#B2E958"/>
<stop offset="1" stop-color="#449329"/>
</linearGradient>
<linearGradient id="paint1_linear_52_8323" x1="33.0922" y1="10" x2="1.44867" y2="4.22041" gradientUnits="userSpaceOnUse">
<stop stop-color="#B2E958"/>
<stop offset="1" stop-color="#449329"/>
</linearGradient>
</defs>
</svg>
