<svg width="81" height="81" viewBox="0 0 81 81" fill="none" xmlns="http://www.w3.org/2000/svg">
<path d="M56.3901 36.7376H44.2998V24.6473C44.2998 22.5696 42.615 20.8848 40.5373 20.8848C38.4595 20.8848 36.7747 22.5696 36.7747 24.6473V36.7376H24.6844C22.6067 36.7376 20.9219 38.4224 20.9219 40.5002C20.9219 42.5779 22.6067 44.2627 24.6844 44.2627H36.7747V56.353C36.7747 58.4308 38.4595 60.1155 40.5373 60.1155C42.615 60.1155 44.2998 58.4308 44.2998 56.353V44.2627H56.3901C58.4679 44.2627 60.1526 42.5779 60.1526 40.5002C60.1526 38.4224 58.4679 36.7376 56.3901 36.7376Z" fill="white"/>
<path d="M35.1423 6.1176C39.2622 5.47213 43.467 5.57307 47.4913 6.40182C47.6533 6.43369 47.8127 6.45229 47.9747 6.45229C49.085 6.45229 50.0811 5.67401 50.3148 4.54244C50.5805 3.24885 49.7464 1.98448 48.4528 1.71885C43.8708 0.781195 39.0391 0.674945 34.4464 1.38682C34.4331 1.38948 34.2897 1.41073 34.2791 1.41338C32.9748 1.61791 32.1461 2.82916 32.348 4.13338C32.5525 5.4376 33.8249 6.32744 35.1423 6.1176ZM11.4884 59.726C10.758 58.629 9.27844 58.3262 8.17344 59.0567C7.07375 59.7871 6.77626 61.272 7.50407 62.3717C10.1178 66.3082 13.3877 69.7188 17.2233 72.5106C17.6456 72.8187 18.1397 72.9701 18.6258 72.9701C19.3642 72.9701 20.0947 72.6274 20.5622 71.9846C21.3405 70.9195 21.1041 69.4213 20.0363 68.6457C16.6602 66.1887 13.7834 63.1871 11.4884 59.726ZM4.51313 30.7756C3.21688 30.5153 1.95516 31.3493 1.69485 32.6456C1.17688 35.2089 0.911255 37.8359 0.911255 40.4549C0.911255 42.4949 1.07594 44.5588 1.39204 46.5909C1.39469 46.6015 1.41063 46.7078 1.41329 46.7184C1.60719 47.8818 2.60329 48.6681 3.74547 48.6681C3.87563 48.6681 4.0111 48.6574 4.14391 48.6335C5.44282 48.4237 6.31938 47.1567 6.11751 45.8578C5.83594 44.0621 5.69516 42.2453 5.69516 40.4549C5.69516 38.1546 5.92626 35.8463 6.38047 33.5938C6.64344 32.3003 5.80672 31.0385 4.51313 30.7756ZM18.5992 7.5201C14.6627 10.1365 11.2547 13.409 8.46563 17.2499C7.69 18.3178 7.92907 19.8132 8.99688 20.5889C9.42188 20.897 9.91063 21.0457 10.3994 21.0457C11.1378 21.0457 11.8683 20.7057 12.3358 20.0603C14.7875 16.6815 17.7864 13.8021 21.2449 11.5018C22.3445 10.7714 22.642 9.28916 21.9116 8.18948C21.1811 7.08713 19.6963 6.78698 18.5992 7.5201ZM79.608 34.4067C79.5947 34.3243 79.5761 34.242 79.5575 34.1649C79.2361 32.882 77.9372 32.1117 76.6595 32.4251C75.435 32.7306 74.67 33.9285 74.8825 35.1531C75.1614 36.9407 75.3022 38.7549 75.3022 40.5453C75.3022 42.8668 75.0658 45.1937 74.6009 47.4648C74.3353 48.7584 75.1694 50.0228 76.463 50.2884C76.625 50.3229 76.787 50.3389 76.9464 50.3389C78.0567 50.3389 79.0528 49.5579 79.2866 48.4263C79.8152 45.8418 80.0861 43.1909 80.0861 40.5479C80.0861 38.5079 79.9241 36.4413 79.608 34.4067ZM63.8298 8.53213C62.7594 7.74854 61.2692 7.9876 60.4883 9.05541C59.71 10.1206 59.9464 11.616 61.0116 12.3943C64.3824 14.854 67.2538 17.8582 69.5434 21.3246C70.003 22.0206 70.7653 22.3978 71.5409 22.3978C71.9925 22.3978 72.452 22.2703 72.8558 22.002C73.9581 21.2742 74.2609 19.7893 73.5331 18.6896C70.9274 14.7451 67.6655 11.3292 63.8298 8.53213ZM68.627 60.9904C66.1674 64.3665 63.1658 67.2406 59.7047 69.5303C58.605 70.2581 58.3049 71.7429 59.03 72.8453C59.4922 73.5412 60.2519 73.9157 61.0275 73.9157C61.4791 73.9157 61.9386 73.7856 62.345 73.5199C66.2816 70.9142 69.7002 67.6443 72.4919 63.8087C73.2702 62.7409 73.0338 61.2454 71.9686 60.4671C70.8955 59.6915 69.4027 59.9253 68.627 60.9904ZM45.8577 74.8932C41.7378 75.5387 37.533 75.4378 33.5088 74.609C33.3467 74.5771 33.1873 74.5585 33.0253 74.5585C31.915 74.5585 30.9189 75.3368 30.6852 76.4684C30.4195 77.762 31.2536 79.0263 32.5472 79.292C37.1292 80.2296 41.9609 80.3359 46.5536 79.624C46.5669 79.6213 46.7103 79.6001 46.7209 79.5974C48.0252 79.3929 48.8539 78.1817 48.652 76.8774C48.4475 75.5706 47.1752 74.6834 45.8577 74.8932Z" fill="white"/>
</svg>
