<svg width="17" height="17" viewBox="0 0 17 17" fill="none" xmlns="http://www.w3.org/2000/svg">
<g id="Group">
<path id="Vector" d="M3.11719 0.351562C3.11719 0.164062 2.95312 0 2.76562 0C2.57812 0 2.41406 0.164062 2.41406 0.351562V1.94531H3.11719V0.351562Z" fill="url(#paint0_linear_52_8297)"/>
<path id="Vector_2" d="M5.22656 0.351562C5.22656 0.164062 5.0625 0 4.875 0C4.6875 0 4.52344 0.164062 4.52344 0.351562V1.94531H5.22656V0.351562Z" fill="url(#paint1_linear_52_8297)"/>
<path id="Vector_3" d="M11.5547 0.351562C11.5547 0.164062 11.3906 0 11.2031 0C11.0156 0 10.8516 0.164062 10.8516 0.351562V1.94531H11.5547V0.351562Z" fill="url(#paint2_linear_52_8297)"/>
<path id="Vector_4" d="M13.6406 0.351562C13.6406 0.164062 13.4766 0 13.2891 0C13.1016 0 12.9375 0.164062 12.9375 0.351562V1.94531H13.6406V0.351562Z" fill="url(#paint3_linear_52_8297)"/>
<path id="Vector_5" d="M15.375 1.94531H13.6641V3.28125C13.6641 3.46875 13.5 3.63281 13.3125 3.63281C13.125 3.63281 12.9609 3.46875 12.9609 3.28125V1.94531H11.5547V3.28125C11.5547 3.46875 11.3906 3.63281 11.2031 3.63281C11.0156 3.63281 10.8516 3.49219 10.8516 3.28125V1.94531H5.22656V3.28125C5.22656 3.46875 5.0625 3.63281 4.875 3.63281C4.6875 3.63281 4.52344 3.49219 4.52344 3.28125V1.94531H3.11719V3.28125C3.11719 3.46875 2.95312 3.63281 2.76562 3.63281C2.57812 3.63281 2.41406 3.46875 2.41406 3.28125V1.94531H0.703125C0.328125 1.94531 0 2.25 0 2.64844V4.64062H16.0547V2.64844C16.0781 2.25 15.75 1.94531 15.375 1.94531Z" fill="url(#paint4_linear_52_8297)"/>
<path id="Vector_6" d="M0 15.7031C0 16.0781 0.304688 16.4062 0.703125 16.4062H15.3516C15.7266 16.4062 16.0547 16.1016 16.0547 15.7031V5.32031H0V15.7031ZM13.0781 6.70312H14.7891V8.41406H13.0781V6.70312ZM13.0781 10.0078H14.7891V11.7188H13.0781V10.0078ZM10.125 6.70312H11.8359V8.41406H10.125V6.70312ZM10.125 10.0078H11.8359V11.7188H10.125V10.0078ZM7.17187 6.70312H8.88281V8.41406H7.17187V6.70312ZM7.17187 10.0078H8.88281V11.7188H7.17187V10.0078ZM7.17187 13.3125H8.88281V15.0234H7.17187V13.3125ZM4.24219 10.0078H5.95312V11.7188H4.24219V10.0078ZM4.24219 13.3125H5.95312V15.0234H4.24219V13.3125ZM1.28906 10.0078H3V11.7188H1.28906V10.0078ZM1.28906 13.3125H3V15.0234H1.28906V13.3125Z" fill="url(#paint5_linear_52_8297)"/>
</g>
<defs>
<linearGradient id="paint0_linear_52_8297" x1="3.57609" y1="0.972656" x2="2.4315" y2="0.897094" gradientUnits="userSpaceOnUse">
<stop stop-color="#B2E958"/>
<stop offset="1" stop-color="#449329"/>
</linearGradient>
<linearGradient id="paint1_linear_52_8297" x1="5.68546" y1="0.972656" x2="4.54087" y2="0.897094" gradientUnits="userSpaceOnUse">
<stop stop-color="#B2E958"/>
<stop offset="1" stop-color="#449329"/>
</linearGradient>
<linearGradient id="paint2_linear_52_8297" x1="12.0136" y1="0.972656" x2="10.869" y2="0.897094" gradientUnits="userSpaceOnUse">
<stop stop-color="#B2E958"/>
<stop offset="1" stop-color="#449329"/>
</linearGradient>
<linearGradient id="paint3_linear_52_8297" x1="14.0995" y1="0.972656" x2="12.9549" y2="0.897094" gradientUnits="userSpaceOnUse">
<stop stop-color="#B2E958"/>
<stop offset="1" stop-color="#449329"/>
</linearGradient>
<linearGradient id="paint4_linear_52_8297" x1="26.5348" y1="3.29297" x2="14.5141" y2="-9.78578" gradientUnits="userSpaceOnUse">
<stop stop-color="#B2E958"/>
<stop offset="1" stop-color="#449329"/>
</linearGradient>
<linearGradient id="paint5_linear_52_8297" x1="26.5329" y1="10.8633" x2="2.00057" y2="4.37425" gradientUnits="userSpaceOnUse">
<stop stop-color="#B2E958"/>
<stop offset="1" stop-color="#449329"/>
</linearGradient>
</defs>
</svg>
