<svg width="35" height="40" viewBox="0 0 35 40" fill="none" xmlns="http://www.w3.org/2000/svg">
<g id="Group 755">
<g id="Burger">
<path id="Vector" d="M19.8131 15.7549C19.8131 15.7549 20.8467 32.5801 30.3018 32.8085L29.5567 37.4564H18.3668L17.0728 15.7549H19.8131Z" fill="url(#paint0_linear_2667_1817)"/>
<path id="Vector_2" d="M33.3118 10.8598H32.7605C32.3593 7.99043 30.5726 5.56368 28.0938 4.28128L28.181 2.43592H32.7028C33.3754 2.43592 33.9207 1.89062 33.9207 1.21801C33.9207 0.545403 33.3755 0 32.7029 0H27.0193C26.369 0 25.8334 0.51089 25.8029 1.16052L25.6946 3.45455C25.1692 3.35613 24.6295 3.29874 24.0758 3.29874C19.6492 3.29874 15.9873 6.59483 15.3911 10.8597H14.8398C14.1672 10.8598 13.6219 11.4051 13.6219 12.0777V15.7316C13.6219 16.4045 14.1672 16.9495 14.8398 16.9495H15.3619L16.395 35.6308C16.4987 37.5057 18.0509 38.9743 19.9287 38.9743H28.223C30.1008 38.9743 31.6529 37.5057 31.7567 35.6308L32.7898 16.9495H33.3119C33.9845 16.9495 34.5298 16.4045 34.5298 15.7316V12.0777C34.5298 11.4051 33.9844 10.8598 33.3118 10.8598ZM16.0578 14.5137V13.2958H25.2305L25.1731 14.5137H16.0578ZM27.6687 13.2958H32.0939V14.5137H27.6114L27.6687 13.2958ZM30.3018 10.8598H27.7836L27.9622 7.07456C29.1487 7.99842 30.0029 9.32963 30.3018 10.8598ZM24.0758 5.73467C24.5939 5.73467 25.096 5.80182 25.5783 5.91965L25.3453 10.8598H17.8499C18.4194 7.9428 20.9947 5.73467 24.0758 5.73467ZM29.3244 35.4962C29.2919 36.0805 28.8082 36.5384 28.223 36.5384H19.9287C19.3435 36.5384 18.8597 36.0805 18.8273 35.4962L17.8018 16.9496H25.0581L24.2806 33.4362C24.2487 34.1082 24.7676 34.6786 25.4396 34.7103C25.4592 34.7109 25.4786 34.7115 25.4979 34.7115C26.1444 34.7115 26.6829 34.2034 26.7134 33.551L27.4965 16.9496H30.35L29.3244 35.4962Z" fill="url(#paint1_linear_2667_1817)"/>
</g>
<g id="Drink">
<path id="Vector_3" d="M21.0277 34.624V36.4883C21.0277 37.8306 19.965 38.9119 18.6414 38.9119H4.9573C3.615 38.9119 2.57098 37.8306 2.57098 36.4883V34.624H21.0277Z" fill="url(#paint2_linear_2667_1817)"/>
<path id="Vector_4" d="M19.1634 34.624V36.4883C19.1634 37.8306 18.1007 38.9119 16.777 38.9119H18.6414C19.9837 38.9119 21.0277 37.8306 21.0277 36.4883V34.624H19.1634Z" fill="url(#paint3_linear_2667_1817)"/>
<path id="Vector_5" d="M6.18775 37.1036V34.624H2.57098V36.4883C2.57098 37.8306 3.615 38.9119 4.95731 38.9119H8.57407C7.23177 38.9119 6.18775 38.3527 6.18775 37.1036Z" fill="url(#paint4_linear_2667_1817)"/>
<path id="Vector_6" d="M21.0277 34.4373V36.488C21.0277 37.8303 19.965 38.9116 18.6414 38.9116H4.95731C3.615 38.9116 2.57098 37.8303 2.57098 36.488V34.6237" stroke="#3B821E" stroke-miterlimit="10"/>
<path id="Vector_7" d="M22.5751 28.2666C22.7056 28.9563 22.1463 29.5902 21.4005 29.5902H2.19811C1.45238 29.5902 0.874443 28.9563 1.02359 28.2666C1.82524 24.1837 6.33688 21.2008 11.7993 21.2008C17.2618 21.2008 21.7734 24.1837 22.5751 28.2666Z" fill="url(#paint5_linear_2667_1817)"/>
<path id="Vector_8" d="M20.7481 32.2001H2.29136C2.01172 32.2001 1.75071 32.3119 1.56428 32.4984C1.37785 32.6848 1.26599 32.9458 1.26599 33.2254C1.26599 33.6915 1.58292 34.1203 2.049 34.2322C2.57101 34.3627 2.75744 34.605 2.9998 34.8288C3.24216 35.0711 3.54045 35.2575 4.30482 35.2575C6.09456 35.2575 6.09456 34.139 7.90295 34.139C9.71133 34.139 9.69269 35.2575 11.5011 35.2575C13.2908 35.2575 13.2908 34.139 15.0992 34.139C16.9076 34.139 16.8889 35.2575 18.6973 35.2575C19.4803 35.2575 19.7786 35.0338 20.0583 34.7915C20.3006 34.5864 20.5057 34.344 21.0091 34.2135C21.4752 34.1017 21.7921 33.6915 21.7921 33.2068C21.7734 32.6662 21.3074 32.2001 20.7481 32.2001Z" fill="url(#paint6_linear_2667_1817)"/>
<path id="Vector_9" d="M20.6548 29.5902V32.2002H2.57098V29.5902H20.6548Z" fill="url(#paint7_linear_2667_1817)"/>
<path id="Vector_10" d="M2.75739 29.5902H7.97746V32.2002H2.75739V29.5902Z" fill="url(#paint8_linear_2667_1817)"/>
<path id="Vector_11" d="M16.7025 29.5902H20.6548V32.2002H16.7025V29.5902Z" fill="url(#paint9_linear_2667_1817)"/>
<path id="Vector_12" d="M5.38604 35.1833H3.89458C2.45906 35.1833 1.28455 34.0088 1.28455 32.5732H7.99608C7.99608 34.0088 6.82156 35.1833 5.38604 35.1833Z" fill="url(#paint10_linear_2667_1817)"/>
<path id="Vector_13" d="M19.3685 35.1833H17.8771C16.4415 35.1833 15.267 34.0088 15.267 32.5732H21.9786C21.9786 34.0088 20.804 35.1833 19.3685 35.1833Z" fill="url(#paint11_linear_2667_1817)"/>
<path id="Vector_14" d="M3.31671 29.963H3.87601V31.6409H3.31671V29.963Z" fill="white"/>
<path id="Vector_15" d="M22.5751 28.2666C21.7735 24.1837 17.2618 21.2008 11.7994 21.2008C11.4638 21.2008 11.1469 21.2194 10.83 21.2381C15.845 21.5737 19.8905 24.4447 20.6549 28.2666C20.7854 28.9563 20.2261 29.5902 19.4804 29.5902H21.4379C22.1463 29.5902 22.7243 28.9563 22.5751 28.2666Z" fill="url(#paint12_linear_2667_1817)"/>
<path id="Vector_16" d="M7.04532 27.1294C6.24366 24.2398 8.23848 21.7043 13.1043 21.2755C12.6755 21.2382 12.2468 21.2196 11.7993 21.2196C6.33688 21.2009 1.82524 24.1838 1.02359 28.2667C0.874443 28.9565 1.45238 29.5903 2.19811 29.5903H10.8112C10.0655 29.5903 7.60461 29.1802 7.04532 27.1294Z" fill="url(#paint13_linear_2667_1817)"/>
<path id="Vector_17" d="M20.6548 29.5902H21.4005C22.1463 29.5902 22.7242 28.9564 22.5751 28.2666C21.7734 24.1837 17.0753 21.2008 11.6129 21.2008C6.15045 21.2008 1.82524 24.1837 1.02359 28.2666C0.874443 28.9564 1.45238 29.5902 2.19811 29.5902H20.6548ZM20.6548 29.5902V32.2003M20.6548 32.2003H20.748C21.3073 32.2003 21.7734 32.6663 21.7734 33.2256C21.7734 33.7104 21.4378 34.1205 20.9904 34.2324C20.487 34.3629 20.2819 34.5866 20.0396 34.8103C19.7786 35.0527 19.4803 35.2764 18.6786 35.2764C16.8889 35.2764 16.8889 34.1578 15.0805 34.1578C13.2721 34.1578 13.2908 35.2764 11.4824 35.2764C9.674 35.2764 9.69265 34.1578 7.88426 34.1578C6.07588 34.1578 6.09452 35.2764 4.28614 35.2764C3.52177 35.2764 3.22348 35.0713 2.98112 34.8476C2.73876 34.6239 2.55232 34.3815 2.03032 34.251C1.80887 34.1862 1.61451 34.0512 1.47661 33.8662C1.33871 33.6812 1.26477 33.4564 1.26595 33.2256C1.26595 32.946 1.37781 32.685 1.56424 32.4985C1.75067 32.3121 2.01167 32.2003 2.29132 32.2003H20.6548ZM2.57097 29.5902V32.2003" stroke="#3B821E" stroke-miterlimit="10"/>
<path id="Vector_18" d="M6.65175 23.6428C6.92597 23.5006 7.08296 23.2594 7.00239 23.104C6.92182 22.9486 6.63421 22.9379 6.35999 23.0801C6.08577 23.2223 5.92878 23.4635 6.00935 23.6189C6.08992 23.7743 6.37753 23.785 6.65175 23.6428Z" fill="white"/>
<path id="Vector_19" d="M5.05495 25.3251C5.33054 25.4646 5.61803 25.4511 5.69709 25.2949C5.77614 25.1388 5.61682 24.8991 5.34123 24.7596C5.06563 24.6201 4.77814 24.6336 4.69908 24.7897C4.62003 24.9459 4.77936 25.1856 5.05495 25.3251Z" fill="white"/>
<path id="Vector_20" d="M9.12084 22.9389C9.38573 22.7429 9.50614 22.4566 9.38979 22.2993C9.27344 22.142 8.9644 22.1734 8.69952 22.3693C8.43464 22.5653 8.31423 22.8516 8.43057 23.0089C8.54692 23.1662 8.85596 23.1348 9.12084 22.9389Z" fill="white"/>
<path id="Vector_21" d="M8.15855 25.2157C8.32515 25.5923 8.63578 25.82 8.85235 25.7242C9.06893 25.6284 9.10944 25.2454 8.94283 24.8688C8.77623 24.4921 8.46561 24.2644 8.24903 24.3602C8.03246 24.456 7.99195 24.839 8.15855 25.2157Z" fill="white"/>
<path id="Vector_22" d="M12.0018 25.1045C11.7101 25.3653 11.5961 25.7136 11.7471 25.8825C11.898 26.0513 12.2569 25.9768 12.5486 25.716C12.8402 25.4552 12.9543 25.1069 12.8033 24.938C12.6523 24.7692 12.2934 24.8437 12.0018 25.1045Z" fill="white"/>
<path id="Vector_23" d="M14.6613 23.4841C14.4252 23.6989 14.3349 23.9842 14.4596 24.1213C14.5843 24.2584 14.8768 24.1954 15.1129 23.9806C15.349 23.7658 15.4393 23.4805 15.3146 23.3434C15.1899 23.2064 14.8974 23.2693 14.6613 23.4841Z" fill="white"/>
<path id="Vector_24" d="M12.9694 22.6624C13.1884 22.8947 13.4752 22.9799 13.61 22.8527C13.7449 22.7256 13.6767 22.4342 13.4577 22.202C13.2388 21.9698 12.952 21.8846 12.8171 22.0117C12.6823 22.1388 12.7504 22.4302 12.9694 22.6624Z" fill="white"/>
<path id="Vector_25" d="M16.1744 25.0461C16.1792 25.4167 16.3583 25.7149 16.5745 25.7121C16.7907 25.7093 16.9621 25.4066 16.9573 25.036C16.9525 24.6653 16.7733 24.3671 16.5571 24.3699C16.3409 24.3727 16.1696 24.6755 16.1744 25.0461Z" fill="white"/>
<path id="Vector_26" d="M17.6049 24.2068C17.8735 24.4622 18.212 24.5423 18.361 24.3856C18.51 24.2289 18.4131 23.8948 18.1445 23.6394C17.8759 23.384 17.5373 23.3039 17.3883 23.4606C17.2393 23.6173 17.3363 23.9513 17.6049 24.2068Z" fill="white"/>
<path id="Vector_27" d="M10.6551 23.777C10.8687 24.08 11.1851 24.2246 11.3618 24.1001C11.5385 23.9755 11.5087 23.6289 11.2952 23.3259C11.0816 23.023 10.7652 22.8783 10.5885 23.0029C10.4118 23.1275 10.4416 23.474 10.6551 23.777Z" fill="white"/>
</g>
</g>
<defs>
<linearGradient id="paint0_linear_2667_1817" x1="38.9359" y1="26.6056" x2="17.5717" y2="24.227" gradientUnits="userSpaceOnUse">
<stop stop-color="#B2E958"/>
<stop offset="1" stop-color="#449329"/>
</linearGradient>
<linearGradient id="paint1_linear_2667_1817" x1="48.1755" y1="19.4871" x2="14.317" y2="16.1696" gradientUnits="userSpaceOnUse">
<stop stop-color="#B2E958"/>
<stop offset="1" stop-color="#449329"/>
</linearGradient>
<linearGradient id="paint2_linear_2667_1817" x1="33.0735" y1="36.768" x2="14.4243" y2="22.1064" gradientUnits="userSpaceOnUse">
<stop stop-color="#B2E958"/>
<stop offset="1" stop-color="#449329"/>
</linearGradient>
<linearGradient id="paint3_linear_2667_1817" x1="23.8019" y1="36.768" x2="17.0729" y2="35.5496" gradientUnits="userSpaceOnUse">
<stop stop-color="#B2E958"/>
<stop offset="1" stop-color="#449329"/>
</linearGradient>
<linearGradient id="paint4_linear_2667_1817" x1="12.492" y1="36.768" x2="3.27959" y2="34.4123" gradientUnits="userSpaceOnUse">
<stop stop-color="#B2E958"/>
<stop offset="1" stop-color="#449329"/>
</linearGradient>
<linearGradient id="paint5_linear_2667_1817" x1="36.6875" y1="25.3955" x2="7.77286" y2="11.802" gradientUnits="userSpaceOnUse">
<stop stop-color="#B2E958"/>
<stop offset="1" stop-color="#449329"/>
</linearGradient>
<linearGradient id="paint6_linear_2667_1817" x1="35.1885" y1="33.7288" x2="21.7838" y2="17.2921" gradientUnits="userSpaceOnUse">
<stop stop-color="#B2E958"/>
<stop offset="1" stop-color="#449329"/>
</linearGradient>
<linearGradient id="paint7_linear_2667_1817" x1="32.4573" y1="30.8952" x2="21.092" y2="16.5126" gradientUnits="userSpaceOnUse">
<stop stop-color="#B2E958"/>
<stop offset="1" stop-color="#449329"/>
</linearGradient>
<linearGradient id="paint8_linear_2667_1817" x1="11.3844" y1="30.8952" x2="3.85455" y2="28.1446" gradientUnits="userSpaceOnUse">
<stop stop-color="#B2E958"/>
<stop offset="1" stop-color="#449329"/>
</linearGradient>
<linearGradient id="paint9_linear_2667_1817" x1="23.2343" y1="30.8952" x2="17.2316" y2="29.235" gradientUnits="userSpaceOnUse">
<stop stop-color="#B2E958"/>
<stop offset="1" stop-color="#449329"/>
</linearGradient>
<linearGradient id="paint10_linear_2667_1817" x1="12.3764" y1="33.8783" x2="3.38638" y2="29.656" gradientUnits="userSpaceOnUse">
<stop stop-color="#B2E958"/>
<stop offset="1" stop-color="#449329"/>
</linearGradient>
<linearGradient id="paint11_linear_2667_1817" x1="26.3589" y1="33.8783" x2="17.3689" y2="29.656" gradientUnits="userSpaceOnUse">
<stop stop-color="#B2E958"/>
<stop offset="1" stop-color="#449329"/>
</linearGradient>
<linearGradient id="paint12_linear_2667_1817" x1="30.2797" y1="25.3955" x2="12.2236" y2="20.7692" gradientUnits="userSpaceOnUse">
<stop stop-color="#B2E958"/>
<stop offset="1" stop-color="#449329"/>
</linearGradient>
<linearGradient id="paint13_linear_2667_1817" x1="21.0043" y1="25.4049" x2="2.50465" y2="20.519" gradientUnits="userSpaceOnUse">
<stop stop-color="#B2E958"/>
<stop offset="1" stop-color="#449329"/>
</linearGradient>
</defs>
</svg>
