<svg width="25" height="25" viewBox="0 0 25 25" fill="none" xmlns="http://www.w3.org/2000/svg">
<g id="Calendar">
<path id="Vector" d="M19.122 6.28339H18.1192V4.24372C18.1192 3.6828 17.6679 3.22388 17.1163 3.22388C16.5648 3.22388 16.1135 3.6828 16.1135 4.24372V6.28339H8.09078V4.24372C8.09078 3.6828 7.6395 3.22388 7.08793 3.22388C6.53637 3.22388 6.08509 3.6828 6.08509 4.24372V6.28339H5.08225C3.42757 6.28339 2.07373 7.66017 2.07373 9.34291V18.5214C2.07373 20.2042 3.42757 21.581 5.08225 21.581H19.122C20.7767 21.581 22.1305 20.2042 22.1305 18.5214V9.34291C22.1305 7.66017 20.7767 6.28339 19.122 6.28339ZM20.1249 18.5214C20.1249 19.0824 19.6736 19.5413 19.122 19.5413H5.08225C4.53069 19.5413 4.07941 19.0824 4.07941 18.5214V9.34291C4.07941 8.78199 4.53069 8.32307 5.08225 8.32307H19.122C19.6736 8.32307 20.1249 8.78199 20.1249 9.34291V18.5214ZM8.09078 12.4024C8.09078 12.9633 7.6395 13.4223 7.08793 13.4223C6.53637 13.4223 6.08509 12.9633 6.08509 12.4024C6.08509 11.8415 6.53637 11.3826 7.08793 11.3826C7.6395 11.3826 8.09078 11.8415 8.09078 12.4024ZM8.09078 16.4818C8.09078 17.0427 7.6395 17.5016 7.08793 17.5016C6.53637 17.5016 6.08509 17.0427 6.08509 16.4818C6.08509 15.9209 6.53637 15.4619 7.08793 15.4619C7.6395 15.4619 8.09078 15.9209 8.09078 16.4818ZM13.105 12.4024C13.105 12.9633 12.6537 13.4223 12.1021 13.4223C11.5506 13.4223 11.0993 12.9633 11.0993 12.4024C11.0993 11.8415 11.5506 11.3826 12.1021 11.3826C12.6537 11.3826 13.105 11.8415 13.105 12.4024ZM13.105 16.4818C13.105 17.0427 12.6537 17.5016 12.1021 17.5016C11.5506 17.5016 11.0993 17.0427 11.0993 16.4818C11.0993 15.9209 11.5506 15.4619 12.1021 15.4619C12.6537 15.4619 13.105 15.9209 13.105 16.4818ZM18.1192 12.4024C18.1192 12.9633 17.6679 13.4223 17.1163 13.4223C16.5648 13.4223 16.1135 12.9633 16.1135 12.4024C16.1135 11.8415 16.5648 11.3826 17.1163 11.3826C17.6679 11.3826 18.1192 11.8415 18.1192 12.4024ZM18.1192 16.4818C18.1192 17.0427 17.6679 17.5016 17.1163 17.5016C16.5648 17.5016 16.1135 17.0427 16.1135 16.4818C16.1135 15.9209 16.5648 15.4619 17.1163 15.4619C17.6679 15.4619 18.1192 15.9209 18.1192 16.4818Z" fill="url(#paint0_linear_3140_661)"/>
</g>
<defs>
<linearGradient id="paint0_linear_3140_661" x1="35.2207" y1="12.4024" x2="3.6846" y2="6.10911" gradientUnits="userSpaceOnUse">
<stop stop-color="#B2E958"/>
<stop offset="1" stop-color="#449329"/>
</linearGradient>
</defs>
</svg>
