<svg width="25" height="24" viewBox="0 0 25 24" fill="none" xmlns="http://www.w3.org/2000/svg">
<g id="camera">
<g id="vuesax/bold/camera">
<g id="camera_2">
<path id="Vector" d="M18.5002 6C17.8902 6 17.3302 5.65 17.0502 5.11L16.3302 3.66C15.8702 2.75 14.6702 2 13.6502 2H11.3602C10.3302 2 9.13017 2.75 8.67017 3.66L7.95017 5.11C7.67017 5.65 7.11017 6 6.50017 6C4.33017 6 2.61017 7.83 2.75017 9.99L3.27017 18.25C3.39017 20.31 4.50017 22 7.26017 22H17.7402C20.5002 22 21.6002 20.31 21.7302 18.25L22.2502 9.99C22.3902 7.83 20.6702 6 18.5002 6ZM11.0002 7.25H14.0002C14.4102 7.25 14.7502 7.59 14.7502 8C14.7502 8.41 14.4102 8.75 14.0002 8.75H11.0002C10.5902 8.75 10.2502 8.41 10.2502 8C10.2502 7.59 10.5902 7.25 11.0002 7.25ZM12.5002 18.12C10.6402 18.12 9.12017 16.61 9.12017 14.74C9.12017 12.87 10.6302 11.36 12.5002 11.36C14.3702 11.36 15.8802 12.87 15.8802 14.74C15.8802 16.61 14.3602 18.12 12.5002 18.12Z" fill="white"/>
</g>
</g>
</g>
</svg>
