<svg width="142" height="142" viewBox="0 0 142 142" fill="none" xmlns="http://www.w3.org/2000/svg">
<path d="M71 133.125C58.7129 133.125 46.7016 129.481 36.4852 122.655C26.2688 115.829 18.3061 106.126 13.604 94.7742C8.90192 83.4224 7.67164 70.9311 10.0687 58.88C12.4658 46.829 18.3827 35.7594 27.071 27.071C35.7594 18.3827 46.829 12.4658 58.88 10.0687C70.9311 7.67164 83.4224 8.90192 94.7742 13.604C106.126 18.3061 115.829 26.2688 122.655 36.4852C129.481 46.7016 133.125 58.7129 133.125 71C133.125 87.4766 126.58 103.278 114.929 114.929C103.278 126.58 87.4766 133.125 71 133.125ZM71 17.75C60.4682 17.75 50.1728 20.8731 41.4159 26.7243C32.659 32.5755 25.8338 40.892 21.8034 50.6221C17.7731 60.3523 16.7185 71.0591 18.7732 81.3886C20.8279 91.7181 25.8994 101.206 33.3466 108.653C40.7937 116.101 50.282 121.172 60.6115 123.227C70.941 125.282 81.6478 124.227 91.3779 120.197C101.108 116.166 109.425 109.341 115.276 100.584C121.127 91.8272 124.25 81.5319 124.25 71C124.25 56.8773 118.64 43.3329 108.653 33.3466C98.6671 23.3603 85.1228 17.75 71 17.75ZM65.0538 92.0781L104.991 56.5782L99.1338 49.9219L62.125 82.6706L43.0882 63.4119L36.7869 69.7132L58.9744 91.9007C59.389 92.3119 59.8808 92.6373 60.4214 92.8581C60.9621 93.079 61.541 93.1909 62.125 93.1875C63.2037 93.186 64.2448 92.7916 65.0538 92.0781Z" fill="url(#paint0_linear_110_441)"/>
<defs>
<linearGradient id="paint0_linear_110_441" x1="214.217" y1="71" x2="17.6322" y2="35.0943" gradientUnits="userSpaceOnUse">
<stop stop-color="#B2E958"/>
<stop offset="1" stop-color="#449329"/>
</linearGradient>
</defs>
</svg>
