<svg width="21" height="19" viewBox="0 0 21 19" fill="none" xmlns="http://www.w3.org/2000/svg">
<path id="Vector" opacity="0.9" d="M11.995 0.203125C7.02 0.203125 3 4.23313 3 9.20312H0L3.895 13.0981L3.965 13.2431L8 9.20312H5C5 5.33813 8.135 2.20312 12 2.20312C15.865 2.20312 19 5.33813 19 9.20312C19 13.0681 15.865 16.2031 12 16.2031C10.065 16.2031 8.32 15.4131 7.055 14.1481L5.64 15.5631C7.265 17.1931 9.51 18.2031 11.995 18.2031C16.97 18.2031 21 14.1731 21 9.20312C21 4.23313 16.97 0.203125 11.995 0.203125ZM11 5.20312V10.2031L15.28 12.7431L16 11.5281L12.5 9.45312V5.20312H11Z" fill="url(#paint0_linear_52_8312)"/>
<defs>
<linearGradient id="paint0_linear_52_8312" x1="34.7057" y1="9.20313" x2="1.86296" y2="2.20472" gradientUnits="userSpaceOnUse">
<stop stop-color="#B2E958"/>
<stop offset="1" stop-color="#449329"/>
</linearGradient>
</defs>
</svg>
