<svg width="45" height="45" viewBox="0 0 45 45" fill="none" xmlns="http://www.w3.org/2000/svg">
<g id="Group">
<path id="Vector" opacity="0.2" d="M42.501 25.625C42.501 29.9348 40.7889 34.068 37.7415 37.1155C34.694 40.163 30.5607 41.875 26.251 41.875C21.9412 41.875 17.808 40.163 14.7605 37.1155C11.713 34.068 10.001 29.9348 10.001 25.625C10.001 21.3152 11.713 17.182 14.7605 14.1345C17.808 11.087 21.9412 9.375 26.251 9.375C30.5607 9.375 34.694 11.087 37.7415 14.1345C40.7889 17.182 42.501 21.3152 42.501 25.625Z" fill="white"/>
<path id="Vector_2" fill-rule="evenodd" clip-rule="evenodd" d="M22.501 9.375C18.5227 9.375 14.7074 10.9554 11.8944 13.7684C9.08133 16.5814 7.50098 20.3968 7.50098 24.375C7.50098 28.3532 9.08133 32.1686 11.8944 34.9816C14.7074 37.7946 18.5227 39.375 22.501 39.375C26.4792 39.375 30.2945 37.7946 33.1076 34.9816C35.9206 32.1686 37.501 28.3532 37.501 24.375C37.501 20.3968 35.9206 16.5814 33.1076 13.7684C30.2945 10.9554 26.4792 9.375 22.501 9.375ZM5.00098 24.375C5.00098 22.0769 5.45363 19.8012 6.33308 17.678C7.21254 15.5548 8.50158 13.6257 10.1266 12.0006C11.7516 10.3756 13.6808 9.08657 15.804 8.20711C17.9272 7.32765 20.2028 6.875 22.501 6.875C24.7991 6.875 27.0747 7.32765 29.1979 8.20711C31.3211 9.08657 33.2503 10.3756 34.8753 12.0006C36.5004 13.6257 37.7894 15.5548 38.6689 17.678C39.5483 19.8012 40.001 22.0769 40.001 24.375C40.001 29.0163 38.1572 33.4675 34.8753 36.7494C31.5935 40.0313 27.1423 41.875 22.501 41.875C17.8597 41.875 13.4085 40.0313 10.1266 36.7494C6.84472 33.4675 5.00098 29.0163 5.00098 24.375Z" fill="#ADADAD"/>
<path id="Vector_3" fill-rule="evenodd" clip-rule="evenodd" d="M5.36598 41.51C5.4821 41.6264 5.62004 41.7188 5.7719 41.7818C5.92376 41.8448 6.08656 41.8772 6.25098 41.8772C6.4154 41.8772 6.5782 41.8448 6.73007 41.7818C6.88193 41.7188 7.01987 41.6264 7.13598 41.51L10.886 37.76C11.002 37.6438 11.0941 37.5058 11.1568 37.3541C11.2196 37.2023 11.2518 37.0396 11.2517 36.8754C11.2516 36.7111 11.2191 36.5485 11.1561 36.3968C11.0932 36.2451 11.001 36.1073 10.8847 35.9912C10.7685 35.8752 10.6306 35.7832 10.4788 35.7204C10.327 35.6577 10.1643 35.6254 10.0001 35.6256C9.83586 35.6257 9.67324 35.6581 9.52155 35.7211C9.36985 35.7841 9.23204 35.8763 9.11598 35.9925L5.36598 39.7425C5.13164 39.9769 5 40.2948 5 40.6262C5 40.9577 5.13164 41.2756 5.36598 41.51ZM34.116 35.99C34.2321 35.8736 34.37 35.7812 34.5219 35.7182C34.6738 35.6552 34.8366 35.6228 35.001 35.6228C35.1654 35.6228 35.3282 35.6552 35.4801 35.7182C35.6319 35.7812 35.7699 35.8736 35.886 35.99L39.636 39.74C39.8707 39.9747 40.0026 40.2931 40.0026 40.625C40.0026 40.9569 39.8707 41.2753 39.636 41.51C39.4013 41.7447 39.0829 41.8766 38.751 41.8766C38.419 41.8766 38.1007 41.7447 37.866 41.51L34.116 37.76C33.8816 37.5256 33.75 37.2077 33.75 36.8762C33.75 36.5448 33.8816 36.2269 34.116 35.9925V35.99ZM22.501 15.625C22.8325 15.625 23.1504 15.7567 23.3849 15.9911C23.6193 16.2255 23.751 16.5435 23.751 16.875V24.375C23.751 24.7065 23.6193 25.0245 23.3849 25.2589C23.1504 25.4933 22.8325 25.625 22.501 25.625C22.1695 25.625 21.8515 25.4933 21.6171 25.2589C21.3827 25.0245 21.251 24.7065 21.251 24.375V16.875C21.251 16.5435 21.3827 16.2255 21.6171 15.9911C21.8515 15.7567 22.1695 15.625 22.501 15.625Z" fill="#ADADAD"/>
<path id="Vector_4" fill-rule="evenodd" clip-rule="evenodd" d="M31.251 24.375C31.251 24.7065 31.1193 25.0245 30.8849 25.2589C30.6504 25.4933 30.3325 25.625 30.001 25.625H22.501C22.1695 25.625 21.8515 25.4933 21.6171 25.2589C21.3827 25.0245 21.251 24.7065 21.251 24.375C21.251 24.0435 21.3827 23.7255 21.6171 23.4911C21.8515 23.2567 22.1695 23.125 22.501 23.125H30.001C30.3325 23.125 30.6504 23.2567 30.8849 23.4911C31.1193 23.7255 31.251 24.0435 31.251 24.375Z" fill="#ADADAD"/>
<path id="Vector_5" d="M3.45338 3.86479C8.51088 -0.962711 13.3309 4.80479 13.3309 4.80479L3.93588 13.7748C3.93588 13.7748 -1.60412 8.69479 3.45338 3.86479Z" fill="#ADADAD"/>
<path id="Vector_6" fill-rule="evenodd" clip-rule="evenodd" d="M7.4259 4.45761C6.8634 4.52511 6.1009 4.79511 5.1809 5.67511C4.2584 6.55511 3.9559 7.30261 3.8609 7.86261C3.7634 8.45011 3.8634 9.06511 4.1184 9.70011C4.1609 9.80761 4.2084 9.91011 4.2559 10.0126L9.5559 4.95011C9.45585 4.89691 9.35413 4.84688 9.2509 4.80011C8.68596 4.51933 8.05421 4.40077 7.4259 4.45761ZM11.4309 3.16261C9.5659 1.92761 6.5559 0.905114 3.4559 3.86511C0.355904 6.82761 1.2359 9.88262 2.3809 11.8026C2.81512 12.523 3.33749 13.1865 3.9359 13.7776L13.3309 4.80261C13.3309 4.80261 13.1634 4.60261 12.8559 4.30761C12.4164 3.88373 11.9395 3.5005 11.4309 3.16261Z" fill="#ADADAD"/>
<path id="Vector_7" d="M41.5484 3.86479C36.4909 -0.962711 31.6709 4.80479 31.6709 4.80479L41.0659 13.7748C41.0659 13.7748 46.6059 8.69479 41.5484 3.86479Z" fill="#ADADAD"/>
<path id="Vector_8" fill-rule="evenodd" clip-rule="evenodd" d="M37.5759 4.45761C38.1384 4.52511 38.9009 4.79511 39.8209 5.67511C40.7434 6.55511 41.0459 7.30261 41.1409 7.86261C41.2384 8.45011 41.1384 9.06511 40.8834 9.70011C40.8409 9.80572 40.7951 9.90994 40.7459 10.0126L35.4459 4.95011C35.5459 4.89761 35.6459 4.84511 35.7509 4.80011C36.3734 4.51511 36.9834 4.38761 37.5759 4.45761ZM33.5709 3.16261C35.4359 1.92761 38.4459 0.905114 41.5459 3.86511C44.6459 6.82761 43.7659 9.88262 42.6209 11.8026C42.2459 12.4301 41.8409 12.9376 41.5409 13.2776C41.2584 13.5976 41.0659 13.7776 41.0659 13.7776L31.6709 4.80261C31.6709 4.80261 31.8384 4.60261 32.1459 4.30761C32.4734 3.99011 32.9609 3.56511 33.5709 3.16261Z" fill="#ADADAD"/>
<path id="Vector_9" d="M0.376051 2.1948C0.135035 1.95345 -0.000234119 1.62625 3.04185e-07 1.28517C0.000234727 0.944085 0.135954 0.617066 0.377301 0.376051C0.618648 0.135035 0.945853 -0.000234114 1.28693 3.04172e-07C1.62802 0.000234722 1.95504 0.135954 2.19605 0.377301L44.6236 42.8048C44.8646 43.0458 45 43.3727 45 43.7136C45 44.0544 44.8646 44.3813 44.6235 44.6223C44.3825 44.8633 44.0556 44.9987 43.7148 44.9987C43.374 44.9987 43.0471 44.8633 42.806 44.6223L0.378551 2.1948H0.376051Z" fill="#ADADAD"/>
</g>
</svg>
