<svg width="42" height="39" viewBox="0 0 42 39" fill="none" xmlns="http://www.w3.org/2000/svg">
<g id="Group">
<path id="Vector" opacity="0.2" d="M40.8334 22.7533C40.8334 26.8933 39.1356 30.8637 36.1136 33.791C33.0915 36.7184 28.9927 38.363 24.7189 38.363C20.4451 38.363 16.3463 36.7184 13.3243 33.791C10.3023 30.8637 8.60449 26.8933 8.60449 22.7533C8.60449 18.6133 10.3023 14.6429 13.3243 11.7155C16.3463 8.78815 20.4451 7.14355 24.7189 7.14355C28.9927 7.14355 33.0915 8.78815 36.1136 11.7155C39.1356 14.6429 40.8334 18.6133 40.8334 22.7533Z" fill="white"/>
<path id="Vector_2" fill-rule="evenodd" clip-rule="evenodd" d="M21 7.14369C17.0549 7.14369 13.2715 8.66177 10.4819 11.364C7.69231 14.0662 6.12514 17.7312 6.12514 21.5527C6.12514 25.3742 7.69231 29.0392 10.4819 31.7414C13.2715 34.4436 17.0549 35.9617 21 35.9617C24.9451 35.9617 28.7285 34.4436 31.5181 31.7414C34.3077 29.0392 35.8749 25.3742 35.8749 21.5527C35.8749 17.7312 34.3077 14.0662 31.5181 11.364C28.7285 8.66177 24.9451 7.14369 21 7.14369ZM3.646 21.5527C3.646 19.3451 4.09487 17.1591 4.96699 15.1196C5.83911 13.08 7.1174 11.2269 8.72887 9.66587C10.3403 8.10487 12.2534 6.86662 14.3589 6.02181C16.4644 5.177 18.721 4.74219 21 4.74219C23.279 4.74219 25.5356 5.177 27.6411 6.02181C29.7466 6.86662 31.6597 8.10487 33.2711 9.66587C34.8826 11.2269 36.1609 13.08 37.033 15.1196C37.9051 17.1591 38.354 19.3451 38.354 21.5527C38.354 26.0111 36.5257 30.2869 33.2711 33.4395C30.0166 36.5921 25.6026 38.3632 21 38.3632C16.3974 38.3632 11.9834 36.5921 8.72887 33.4395C5.47436 30.2869 3.646 26.0111 3.646 21.5527Z" fill="url(#paint0_linear_2928_2528)"/>
<path id="Vector_3" fill-rule="evenodd" clip-rule="evenodd" d="M4.00795 38.0126C4.12309 38.1244 4.25988 38.2131 4.41048 38.2737C4.56107 38.3342 4.72252 38.3653 4.88557 38.3653C5.04861 38.3653 5.21006 38.3342 5.36065 38.2737C5.51125 38.2131 5.64804 38.1244 5.76318 38.0126L9.4819 34.4103C9.59699 34.2987 9.68825 34.1662 9.75047 34.0204C9.81269 33.8746 9.84466 33.7183 9.84454 33.5606C9.84443 33.4028 9.81223 33.2466 9.7498 33.1009C9.68736 32.9551 9.59591 32.8228 9.48066 32.7113C9.36541 32.5998 9.22862 32.5114 9.0781 32.4511C8.92758 32.3908 8.76628 32.3599 8.60341 32.36C8.44053 32.3601 8.27928 32.3913 8.12885 32.4518C7.97841 32.5122 7.84175 32.6008 7.72667 32.7125L4.00795 36.3147C3.77557 36.5399 3.64502 36.8453 3.64502 37.1636C3.64502 37.482 3.77557 37.7874 4.00795 38.0126ZM32.5181 32.7101C32.6333 32.5982 32.77 32.5095 32.9206 32.449C33.0712 32.3885 33.2327 32.3573 33.3957 32.3573C33.5588 32.3573 33.7202 32.3885 33.8708 32.449C34.0214 32.5095 34.1582 32.5982 34.2733 32.7101L37.9921 36.3123C38.2248 36.5378 38.3556 36.8436 38.3556 37.1624C38.3556 37.4813 38.2248 37.7871 37.9921 38.0126C37.7593 38.238 37.4436 38.3647 37.1144 38.3647C36.7853 38.3647 36.4696 38.238 36.2368 38.0126L32.5181 34.4103C32.2857 34.1852 32.1552 33.8798 32.1552 33.5614C32.1552 33.243 32.2857 32.9376 32.5181 32.7125V32.7101ZM21 13.1475C21.3288 13.1475 21.6441 13.274 21.8765 13.4992C22.109 13.7243 22.2396 14.0298 22.2396 14.3482V21.5527C22.2396 21.8712 22.109 22.1766 21.8765 22.4018C21.6441 22.6269 21.3288 22.7535 21 22.7535C20.6712 22.7535 20.356 22.6269 20.1235 22.4018C19.891 22.1766 19.7604 21.8712 19.7604 21.5527V14.3482C19.7604 14.0298 19.891 13.7243 20.1235 13.4992C20.356 13.274 20.6712 13.1475 21 13.1475Z" fill="url(#paint1_linear_2928_2528)"/>
<path id="Vector_4" fill-rule="evenodd" clip-rule="evenodd" d="M29.6773 21.5523C29.6773 21.8708 29.5467 22.1762 29.3143 22.4014C29.0818 22.6266 28.7665 22.7531 28.4377 22.7531H21.0003C20.6716 22.7531 20.3563 22.6266 20.1238 22.4014C19.8913 22.1762 19.7607 21.8708 19.7607 21.5523C19.7607 21.2339 19.8913 20.9284 20.1238 20.7033C20.3563 20.4781 20.6716 20.3516 21.0003 20.3516H28.4377C28.7665 20.3516 29.0818 20.4781 29.3143 20.7033C29.5467 20.9284 29.6773 21.2339 29.6773 21.5523Z" fill="url(#paint2_linear_2928_2528)"/>
<path id="Vector_5" d="M2.1114 1.85041C7.12671 -2.78688 11.9065 2.75338 11.9065 2.75338L2.58987 11.37C2.58987 11.37 -2.90391 6.49011 2.1114 1.85041Z" fill="url(#paint3_linear_2928_2528)"/>
<path id="Vector_6" fill-rule="evenodd" clip-rule="evenodd" d="M6.05031 2.41988C5.4925 2.48472 4.73636 2.74408 3.82404 3.58941C2.90923 4.43474 2.60926 5.15279 2.51505 5.69072C2.41836 6.25508 2.51753 6.84585 2.7704 7.45583C2.81255 7.55909 2.85965 7.65755 2.90675 7.75601L8.16254 2.89298C8.06332 2.84187 7.96245 2.79381 7.86008 2.74889C7.29986 2.47916 6.67337 2.36527 6.05031 2.41988ZM10.0219 1.17591C8.17246 -0.0104339 5.18757 -0.992647 2.11343 1.85073C-0.960713 4.6965 -0.0880539 7.63114 1.04739 9.47549C1.47799 10.1675 1.996 10.8048 2.58942 11.3727L11.906 2.75129C11.906 2.75129 11.7399 2.55917 11.435 2.27579C10.9992 1.86861 10.5262 1.50048 10.0219 1.17591Z" fill="url(#paint4_linear_2928_2528)"/>
<path id="Vector_7" d="M39.8888 1.85041C34.8735 -2.78688 30.0938 2.75338 30.0938 2.75338L39.4104 11.37C39.4104 11.37 44.9042 6.49011 39.8888 1.85041Z" fill="url(#paint5_linear_2928_2528)"/>
<path id="Vector_8" fill-rule="evenodd" clip-rule="evenodd" d="M35.9495 2.41988C36.5073 2.48472 37.2634 2.74408 38.1758 3.58941C39.0906 4.43474 39.3905 5.15279 39.4847 5.69072C39.5814 6.25508 39.4823 6.84585 39.2294 7.45583C39.1873 7.55727 39.1418 7.65739 39.093 7.75601L33.8373 2.89298C33.9364 2.84255 34.0356 2.79212 34.1397 2.74889C34.757 2.47512 35.3619 2.35264 35.9495 2.41988ZM31.9779 1.17591C33.8273 -0.0104339 36.8122 -0.992647 39.8864 1.85073C42.9605 4.6965 42.0879 7.63114 40.9524 9.47549C40.5805 10.0783 40.1789 10.5658 39.8814 10.8924C39.6013 11.1998 39.4104 11.3727 39.4104 11.3727L30.0938 2.75129C30.0938 2.75129 30.2599 2.55917 30.5648 2.27579C30.8896 1.9708 31.373 1.56255 31.9779 1.17591Z" fill="url(#paint6_linear_2928_2528)"/>
</g>
<defs>
<linearGradient id="paint0_linear_2928_2528" x1="61.0064" y1="21.5527" x2="6.20847" y2="11.2204" gradientUnits="userSpaceOnUse">
<stop stop-color="#B2E958"/>
<stop offset="1" stop-color="#449329"/>
</linearGradient>
<linearGradient id="paint1_linear_2928_2528" x1="61.0096" y1="25.7564" x2="7.63288" y2="12.3375" gradientUnits="userSpaceOnUse">
<stop stop-color="#B2E958"/>
<stop offset="1" stop-color="#449329"/>
</linearGradient>
<linearGradient id="paint2_linear_2928_2528" x1="36.1494" y1="21.5523" x2="25.8149" y2="13.7579" gradientUnits="userSpaceOnUse">
<stop stop-color="#B2E958"/>
<stop offset="1" stop-color="#449329"/>
</linearGradient>
<linearGradient id="paint3_linear_2928_2528" x1="19.6773" y1="5.68498" x2="0.89774" y2="2.09308" gradientUnits="userSpaceOnUse">
<stop stop-color="#B2E958"/>
<stop offset="1" stop-color="#449329"/>
</linearGradient>
<linearGradient id="paint4_linear_2928_2528" x1="19.6759" y1="5.68634" x2="0.898134" y2="2.09607" gradientUnits="userSpaceOnUse">
<stop stop-color="#B2E958"/>
<stop offset="1" stop-color="#449329"/>
</linearGradient>
<linearGradient id="paint5_linear_2928_2528" x1="49.7711" y1="5.68498" x2="30.9915" y2="2.09308" gradientUnits="userSpaceOnUse">
<stop stop-color="#B2E958"/>
<stop offset="1" stop-color="#449329"/>
</linearGradient>
<linearGradient id="paint6_linear_2928_2528" x1="49.7687" y1="5.68634" x2="30.9909" y2="2.09607" gradientUnits="userSpaceOnUse">
<stop stop-color="#B2E958"/>
<stop offset="1" stop-color="#449329"/>
</linearGradient>
</defs>
</svg>
