<svg width="31" height="34" viewBox="0 0 31 34" fill="none" xmlns="http://www.w3.org/2000/svg">
<g id="Juice">
<path id="Vector" d="M5.16669 10.1462L12.3496 18.1738C12.5633 18.4127 12.8604 18.5454 13.1836 18.5454C13.5015 18.5454 13.7986 18.4127 14.0124 18.1685L21.1952 10.1462H11.8179C11.8961 10.3427 11.8596 10.571 11.7032 10.7302L10.5669 11.8823C10.5187 11.9316 10.4614 11.9706 10.3983 11.9972C10.3353 12.0239 10.2677 12.0376 10.1994 12.0376C10.1311 12.0376 10.0635 12.0239 10.0005 11.9972C9.93741 11.9706 9.88013 11.9316 9.83191 11.8823L8.69557 10.7302C8.5392 10.571 8.50271 10.3427 8.58611 10.1462H5.16669ZM13.8195 11.6647L15.4145 11.4735C15.4823 11.4649 15.5512 11.4699 15.617 11.4885C15.6829 11.5071 15.7445 11.5387 15.7983 11.5817C15.8521 11.6246 15.897 11.678 15.9305 11.7387C15.9639 11.7994 15.9852 11.8663 15.9931 11.9354L16.186 13.5601C16.2173 13.8521 16.014 14.1122 15.7273 14.1494L14.1375 14.3458C13.8508 14.3777 13.5901 14.1706 13.5537 13.8786L13.366 12.2593C13.3295 11.9673 13.5328 11.7018 13.8195 11.6647ZM29.1027 2.59119C28.0914 1.64444 26.7844 1.09167 25.4122 1.03027V6.24394C25.4382 6.25456 25.4591 6.26517 25.4852 6.27579L29.1027 2.59119ZM24.8857 6.19616V1.03027C23.4679 1.09398 22.1752 1.67269 21.19 2.58588L24.7346 6.19616H24.8857ZM25.8605 6.66868C25.8709 6.68991 25.8761 6.70584 25.8813 6.72708H31C30.9375 5.27766 30.3693 3.96628 29.4675 2.96283L25.85 6.65275C25.8552 6.65806 25.8605 6.66337 25.8605 6.66868ZM24.8857 12.9601V8.46851L21.8051 11.9089C22.7121 12.546 23.7807 12.9123 24.8857 12.9601ZM20.8251 2.96283C20.0328 3.84417 19.4907 4.9591 19.3292 6.19616H23.9996L20.8251 2.96283ZM25.85 7.33233L29.4727 11.0222C30.3693 10.0188 30.9375 8.70211 31 7.258H25.8813C25.8764 7.28482 25.8657 7.31019 25.85 7.33233ZM25.4122 7.87918V12.9601C26.83 12.8964 28.1175 12.3177 29.1027 11.3939L25.5269 7.75176L25.4122 7.87918ZM18.4013 14.1281L18.4029 14.126C18.3998 14.1292 18.3987 14.1313 18.4013 14.1281Z" fill="url(#paint0_linear_2667_1847)"/>
<path id="Vector_2" d="M25.5644 6.25051H6L6 3C6.00055 2.63928 5.83405 1.89607 5.6203 1.60439C5.40655 1.31271 4.84584 1.11045 4.5 1L0.361566 0.0169713C0.327737 0.00435001 0.291683 -0.00133377 0.25558 0.000263152C0.219478 0.00186007 0.184075 0.0107046 0.15151 0.0262627C0.118945 0.0418207 0.089893 0.0637697 0.0661072 0.0907847C0.0423214 0.1178 0.0242954 0.14932 0.0131173 0.183444C0.00193926 0.217568 -0.00215905 0.253587 0.00106981 0.289326C0.00429866 0.325066 0.0147878 0.359786 0.0319039 0.391389C0.0490199 0.422993 0.0724081 0.450824 0.100656 0.473205C0.128905 0.495585 0.161427 0.512049 0.196261 0.521604L4.0266 1.60439C4.26496 1.68042 4.71196 2.05365 4.85928 2.25464C5.0066 2.45563 5.00043 3.25142 5 3.5L5.08533 6.25051H1.00353C0.896534 6.25051 0.80024 6.31426 0.757442 6.40987C0.714645 6.50549 0.730694 6.61704 0.80559 6.69671L7.66923 14.1759C10.328 17.1559 11.7885 20.9699 11.7885 24.9538V30.9935C11.7885 31.4928 11.4729 31.939 11.0074 32.109L7.21985 33.4847C7.10216 33.5272 7.02727 33.6547 7.04867 33.7769C7.07541 33.9044 7.18241 34 7.31615 34H19.2513C19.385 34 19.492 33.9044 19.5188 33.7769C19.5402 33.6547 19.4653 33.5272 19.3476 33.4847L15.56 32.109C15.3302 32.0252 15.132 31.8732 14.9922 31.6736C14.8525 31.474 14.778 31.2365 14.779 30.9935V24.9538C14.779 20.9752 16.2341 17.1612 18.8875 14.1865L25.7618 6.69671C25.8367 6.61704 25.8528 6.50549 25.81 6.40987C25.7888 6.36257 25.7543 6.32235 25.7107 6.29407C25.667 6.2658 25.6166 6.25067 25.5644 6.25051ZM18.7425 13.5454L18.7062 13.5852L18.7072 13.5842L18.704 13.5873L18.673 13.6213L18.6436 13.6532L18.642 13.6553C18.5885 13.7191 18.535 13.7828 18.4815 13.8413L14.6618 18.0058C14.4865 18.195 14.2735 18.346 14.0364 18.4494C13.7993 18.5527 13.5432 18.606 13.2843 18.606C13.0253 18.606 12.7692 18.5527 12.5321 18.4494C12.295 18.346 12.082 18.195 11.9067 18.0058L8.07634 13.8306C8.02284 13.7722 7.9747 13.7138 7.92655 13.6553C7.92031 13.6486 7.91407 13.6419 7.90782 13.6351L7.9121 13.6394C7.90941 13.6366 7.90673 13.6337 7.90408 13.6309L1.61393 6.78171H24.9546L18.7425 13.5454ZM7.83721 13.5581C7.82009 13.5395 7.82383 13.5433 7.83721 13.5581V13.5581Z" fill="url(#paint1_linear_2667_1847)"/>
</g>
<defs>
<linearGradient id="paint0_linear_2667_1847" x1="47.8603" y1="9.78785" x2="8.48163" y2="-0.820304" gradientUnits="userSpaceOnUse">
<stop stop-color="#B2E958"/>
<stop offset="1" stop-color="#449329"/>
</linearGradient>
<linearGradient id="paint1_linear_2667_1847" x1="42.6936" y1="17" x2="1.25527" y2="11.2494" gradientUnits="userSpaceOnUse">
<stop stop-color="#B2E958"/>
<stop offset="1" stop-color="#449329"/>
</linearGradient>
</defs>
</svg>
