<svg width="21" height="20" viewBox="0 0 21 20" fill="none" xmlns="http://www.w3.org/2000/svg">
<g id="Icon/Solid/document-add">
<path id="Icon" fill-rule="evenodd" clip-rule="evenodd" d="M6.47461 2C5.37004 2 4.47461 2.89543 4.47461 4V16C4.47461 17.1046 5.37004 18 6.47461 18H14.4746C15.5792 18 16.4746 17.1046 16.4746 16V7.41421C16.4746 6.88378 16.2639 6.37507 15.8888 6L12.4746 2.58579C12.0995 2.21071 11.5908 2 11.0604 2H6.47461ZM11.4746 8C11.4746 7.44772 11.0269 7 10.4746 7C9.92232 7 9.47461 7.44772 9.47461 8V10H7.47461C6.92232 10 6.47461 10.4477 6.47461 11C6.47461 11.5523 6.92232 12 7.47461 12H9.47461V14C9.47461 14.5523 9.92232 15 10.4746 15C11.0269 15 11.4746 14.5523 11.4746 14L11.4746 12H13.4746C14.0269 12 14.4746 11.5523 14.4746 11C14.4746 10.4477 14.0269 10 13.4746 10H11.4746V8Z" fill="#878F96"/>
</g>
</svg>
