<svg width="8" height="13" viewBox="0 0 8 13" fill="none" xmlns="http://www.w3.org/2000/svg">
<path id="down" d="M0.794822 0.796652C0.701093 0.889615 0.626699 1.00021 0.575931 1.12207C0.525162 1.24393 0.499023 1.37464 0.499023 1.50665C0.499023 1.63866 0.525162 1.76937 0.575931 1.89123C0.626699 2.01309 0.701093 2.12369 0.794822 2.21665L5.09482 6.50665L0.794822 10.7967C0.606518 10.985 0.500731 11.2403 0.500731 11.5067C0.500731 11.773 0.606518 12.0283 0.794822 12.2167C0.983125 12.405 1.23852 12.5107 1.50482 12.5107C1.77112 12.5107 2.02652 12.405 2.21482 12.2167L7.21482 7.21665C7.30855 7.12369 7.38295 7.01309 7.43371 6.89123C7.48448 6.76937 7.51062 6.63866 7.51062 6.50665C7.51062 6.37464 7.48448 6.24393 7.43371 6.12207C7.38295 6.00022 7.30855 5.88962 7.21482 5.79665L2.21482 0.796652C2.12186 0.702924 2.01126 0.628528 1.8894 0.577759C1.76754 0.52699 1.63683 0.500853 1.50482 0.500853C1.37281 0.500853 1.2421 0.52699 1.12024 0.577759C0.998386 0.628528 0.887785 0.702924 0.794822 0.796652Z" fill="black"/>
</svg>
