<svg width="21" height="21" viewBox="0 0 21 21" fill="none" xmlns="http://www.w3.org/2000/svg">
<path id="Vector" d="M3.15 16.8012H7.602C7.74019 16.802 7.87717 16.7755 8.0051 16.7233C8.13303 16.6711 8.24939 16.5941 8.3475 16.4968L15.6135 9.22241L18.5955 6.30426C18.6939 6.20668 18.772 6.09058 18.8253 5.96267C18.8786 5.83475 18.9061 5.69755 18.9061 5.55898C18.9061 5.4204 18.8786 5.2832 18.8253 5.15529C18.772 5.02737 18.6939 4.91128 18.5955 4.81369L14.1435 0.310498C14.0459 0.212112 13.9298 0.134021 13.8018 0.0807289C13.6739 0.0274372 13.5366 0 13.398 0C13.2594 0 13.1221 0.0274372 12.9942 0.0807289C12.8662 0.134021 12.7501 0.212112 12.6525 0.310498L9.6915 3.28114L2.4045 10.5555C2.30718 10.6536 2.23019 10.7699 2.17794 10.8978C2.12569 11.0257 2.0992 11.1627 2.1 11.3008V15.7515C2.1 16.0299 2.21062 16.2969 2.40754 16.4938C2.60445 16.6906 2.87152 16.8012 3.15 16.8012ZM13.398 2.53585L16.3695 5.50649L14.8785 6.99706L11.907 4.02642L13.398 2.53585ZM4.2 11.7312L10.4265 5.50649L13.398 8.47713L7.1715 14.7018H4.2V11.7312ZM19.95 18.9006H1.05C0.771523 18.9006 0.504451 19.0112 0.307538 19.2081C0.110625 19.4049 0 19.6719 0 19.9503C0 20.2287 0.110625 20.4957 0.307538 20.6926C0.504451 20.8894 0.771523 21 1.05 21H19.95C20.2285 21 20.4955 20.8894 20.6925 20.6926C20.8894 20.4957 21 20.2287 21 19.9503C21 19.6719 20.8894 19.4049 20.6925 19.2081C20.4955 19.0112 20.2285 18.9006 19.95 18.9006Z" fill="black"/>
</svg>
