<svg width="36" height="36" viewBox="0 0 36 36" fill="none" xmlns="http://www.w3.org/2000/svg">
<g style="mix-blend-mode:multiply" opacity="0.7">
<circle cx="18" cy="18" r="18" fill="#171700"/>
</g>
<g clip-path="url(#clip0_2035_3776)">
<path d="M18 8.54062C23.2165 8.54062 27.4594 12.7835 27.4594 18C27.4594 23.2165 23.2165 27.4594 18 27.4594C12.7835 27.4594 8.54062 23.2165 8.54062 18C8.54062 12.7835 12.7835 8.54062 18 8.54062ZM18 7C11.9238 7 7 11.9238 7 18C7 24.0762 11.9238 29 18 29C24.0762 29 29 24.0762 29 18C29 11.9238 24.0762 7 18 7Z" fill="white"/>
<path d="M13.283 20.77C12.4079 20.77 11.9119 21.7837 12.4603 22.4647C13.7637 24.0823 15.7634 25.1176 18.0035 25.1176C20.2435 25.1176 22.2402 24.0823 23.5466 22.4647C24.0951 21.7837 23.5959 20.77 22.7239 20.77H13.283Z" fill="white"/>
<path d="M14.426 16.3053C15.185 16.3053 15.8002 15.6901 15.8002 14.9311C15.8002 14.1721 15.185 13.5569 14.426 13.5569C13.667 13.5569 13.0518 14.1721 13.0518 14.9311C13.0518 15.6901 13.667 16.3053 14.426 16.3053Z" fill="white"/>
<path d="M21.5744 16.3053C22.3334 16.3053 22.9487 15.6901 22.9487 14.9311C22.9487 14.1721 22.3334 13.5569 21.5744 13.5569C20.8155 13.5569 20.2002 14.1721 20.2002 14.9311C20.2002 15.6901 20.8155 16.3053 21.5744 16.3053Z" fill="white"/>
</g>
<defs>
<clipPath id="clip0_2035_3776">
<rect width="22" height="22" fill="white" transform="translate(7 7)"/>
</clipPath>
</defs>
</svg>
