<svg width="30" height="31" viewBox="0 0 30 31" fill="none" xmlns="http://www.w3.org/2000/svg">
<g id="emotions">
<path id="Vector" d="M17.4545 2.2546C17.2547 2.10812 17.0233 2.01435 16.7804 1.98144C16.5375 1.94853 16.2905 1.97748 16.0609 2.06578C12.1534 3.55105 7.86199 3.55105 3.95452 2.06578C3.72602 1.97918 3.48061 1.95112 3.23931 1.98401C2.99801 2.01689 2.76803 2.10974 2.56907 2.2546C2.36988 2.39993 2.20726 2.59243 2.09481 2.816C1.98235 3.03958 1.92334 3.28772 1.92271 3.53969V9.81578C1.91848 11.4605 2.27218 13.0852 2.95764 14.5696C3.6431 16.054 4.64277 17.3602 5.88271 18.3915L5.92361 18.4281L5.98089 18.4817C5.98854 18.4889 5.99675 18.4955 6.00543 18.5014C7.14258 19.449 8.55917 19.9661 10.02 19.9669C10.5349 19.9668 11.0478 19.9015 11.5473 19.7724C11.7936 19.7114 12.0359 19.6342 12.2727 19.5413C12.911 19.2952 13.5061 18.943 14.0345 18.4986L14.1573 18.3943C14.3509 18.2309 14.5091 18.09 14.6454 17.9575C14.8786 17.7414 15.1008 17.5128 15.3109 17.2727C16.525 15.9012 17.3859 14.2363 17.8145 12.4311C17.8691 12.2112 17.9182 11.9773 17.9645 11.7068C18.0639 11.0816 18.115 10.4493 18.1173 9.81578V3.54814C18.1173 3.29303 18.0569 3.04179 17.9414 2.81632C17.8258 2.59086 17.6587 2.39801 17.4545 2.2546ZM7.23543 15.0999C7.42361 14.0938 8.59907 13.316 10.0145 13.316C10.4812 13.3108 10.9445 13.3998 11.3782 13.5781C12.1609 13.8937 12.6845 14.463 12.8045 15.0999H7.23543ZM4.81361 8.40951C4.83846 8.37526 4.87053 8.34731 4.90739 8.32777C4.94425 8.30824 4.98493 8.29764 5.02634 8.29678H8.49271C8.5344 8.29605 8.57562 8.30596 8.61273 8.32562C8.64983 8.34528 8.68167 8.37409 8.70543 8.40951C8.7414 8.45906 8.76057 8.51948 8.75998 8.58142C8.76247 8.61142 8.76247 8.64159 8.75998 8.6716C8.62496 9.10723 8.35951 9.48729 8.00193 9.75694C7.64434 10.0266 7.21311 10.1719 6.77043 10.1719C6.32776 10.1719 5.89652 10.0266 5.53894 9.75694C5.18136 9.48729 4.91591 9.10723 4.78089 8.6716C4.76652 8.62824 4.762 8.58206 4.76768 8.53661C4.77335 8.49116 4.78907 8.44767 4.81361 8.40951ZM13.2682 10.1737C12.8258 10.1747 12.3948 10.0295 12.038 9.7592C11.6813 9.48894 11.4176 9.10783 11.2854 8.6716C11.2705 8.62803 11.2662 8.58133 11.2728 8.53562C11.2795 8.48992 11.2969 8.44661 11.3236 8.40951C11.349 8.37451 11.382 8.3461 11.4198 8.32653C11.4577 8.30697 11.4995 8.29678 11.5418 8.29678H15C15.0423 8.29678 15.0841 8.30697 15.1219 8.32653C15.1598 8.3461 15.1928 8.37451 15.2182 8.40951C15.2448 8.44661 15.2623 8.48992 15.2689 8.53562C15.2756 8.58133 15.2713 8.62803 15.2563 8.6716C15.1235 9.10736 14.8596 9.48797 14.503 9.7581C14.1464 10.0282 13.7158 10.1738 13.2736 10.1737H13.2682Z" fill="url(#paint0_linear_2667_1810)"/>
<path id="Vector_2" d="M15.6682 8.07685C15.5912 7.96889 15.4904 7.8814 15.3742 7.82162C15.258 7.76183 15.1298 7.73147 15 7.73303H11.5472C11.4193 7.73325 11.2932 7.76446 11.179 7.82418C11.0649 7.88389 10.9659 7.97043 10.89 8.07685C10.8136 8.18613 10.7629 8.31234 10.7421 8.44543C10.7212 8.57852 10.7308 8.7148 10.77 8.8434C10.9378 9.39338 11.2711 9.87364 11.7215 10.2143C12.1718 10.5549 12.7155 10.7381 13.2736 10.7372C13.8334 10.7401 14.3795 10.5578 14.8319 10.2171C15.2843 9.87633 15.6194 9.39498 15.7882 8.8434C15.8267 8.71471 15.8359 8.57856 15.8151 8.44559C15.7943 8.31261 15.744 8.18641 15.6682 8.07685ZM15.2727 8.67149C15.1393 9.1079 14.8747 9.48901 14.5174 9.75953C14.1602 10.03 13.7288 10.1759 13.2859 10.1759C12.843 10.1759 12.4116 10.03 12.0543 9.75953C11.6971 9.48901 11.4325 9.1079 11.2991 8.67149C11.2841 8.62792 11.2798 8.58122 11.2865 8.53551C11.2931 8.48981 11.3106 8.4465 11.3372 8.4094C11.3627 8.3744 11.3956 8.34599 11.4335 8.32642C11.4713 8.30685 11.5131 8.29667 11.5554 8.29667H15C15.0423 8.29667 15.0841 8.30685 15.1219 8.32642C15.1598 8.34599 15.1928 8.3744 15.2182 8.4094C15.2476 8.44497 15.268 8.48755 15.2775 8.53331C15.287 8.57907 15.2854 8.62656 15.2727 8.67149ZM9.14725 8.07685C9.07161 7.97081 8.97304 7.8845 8.8594 7.82481C8.74575 7.76511 8.62018 7.73369 8.4927 7.73303H5.02634C4.89721 7.73073 4.76946 7.76081 4.65404 7.82069C4.53862 7.88057 4.43897 7.96847 4.36361 8.07685C4.28674 8.18589 4.2356 8.31199 4.21429 8.44509C4.19298 8.57818 4.20209 8.71458 4.24088 8.8434C4.41112 9.39284 4.74587 9.87219 5.19683 10.2123C5.6478 10.5524 6.19167 10.7357 6.74997 10.7357C7.30828 10.7357 7.85215 10.5524 8.30312 10.2123C8.75408 9.87219 9.08883 9.39284 9.25907 8.8434C9.2994 8.71544 9.3103 8.57953 9.29089 8.44646C9.27148 8.31339 9.22229 8.18683 9.14725 8.07685ZM8.74907 8.67149C8.61405 9.10712 8.3486 9.48718 7.99101 9.75683C7.63343 10.0265 7.2022 10.1718 6.75952 10.1718C6.31684 10.1718 5.88561 10.0265 5.52803 9.75683C5.17044 9.48718 4.90499 9.10712 4.76997 8.67149C4.75717 8.62729 4.75444 8.58062 4.76201 8.53515C4.76958 8.48967 4.78724 8.44663 4.81361 8.4094C4.83846 8.37515 4.87053 8.3472 4.90738 8.32766C4.94424 8.30813 4.98492 8.29753 5.02634 8.29667H8.4927C8.5344 8.29594 8.57562 8.30585 8.61272 8.32551C8.64983 8.34517 8.68167 8.37398 8.70543 8.4094C8.7414 8.45895 8.76057 8.51937 8.75997 8.58131C8.75886 8.61163 8.75521 8.64181 8.74907 8.67149ZM11.5691 13.0538C11.0744 12.8512 10.5466 12.7488 10.0145 12.7522C8.17088 12.7522 6.66816 13.933 6.66816 15.3816C6.66816 15.4563 6.69689 15.528 6.74804 15.5809C6.79918 15.6337 6.86855 15.6634 6.94088 15.6634H13.0909C13.1632 15.6634 13.2326 15.6337 13.2837 15.5809C13.3349 15.528 13.3636 15.4563 13.3636 15.3816C13.3636 14.3952 12.6763 13.5019 11.5691 13.0538ZM7.23543 15.0998C7.42361 14.0937 8.59907 13.3159 10.0145 13.3159C10.4812 13.3107 10.9444 13.3997 11.3782 13.5779C12.1609 13.8936 12.6845 14.4629 12.8045 15.0998H7.23543ZM27.4309 11.329C27.2296 11.1847 26.9978 11.0923 26.7549 11.0594C26.512 11.0266 26.265 11.0543 26.0345 11.1402C23.6023 12.0617 21.0033 12.4177 18.4227 12.1829C18.3982 12.3182 18.3654 12.445 18.3354 12.5719C17.9715 14.1021 17.3109 15.5402 16.3936 16.7991C16.2518 16.9908 16.1209 17.1796 15.9572 17.3628H18.4527C18.4953 17.3631 18.5372 17.3737 18.5751 17.3938C18.613 17.4138 18.6458 17.4428 18.6709 17.4783C18.7062 17.5293 18.7253 17.5903 18.7254 17.653C18.7307 17.6819 18.7307 17.7115 18.7254 17.7404C18.6073 18.1202 18.3897 18.4587 18.0968 18.7186C17.8039 18.9785 17.4472 19.1496 17.066 19.2129C16.6849 19.2762 16.2942 19.2293 15.9372 19.0773C15.5803 18.9254 15.271 18.6743 15.0436 18.3519L15.0191 18.3773C14.9072 18.4816 14.7818 18.5943 14.6318 18.7239L14.5009 18.8339L14.3918 18.9297C13.8189 19.4101 13.1741 19.7908 12.4827 20.0569C12.3382 20.1161 12.1718 20.1753 12 20.226C12.3264 23.0598 13.7039 25.6521 15.8427 27.4575L15.9654 27.5646C17.1035 28.5126 18.5214 29.0294 19.9832 29.0288C21.445 29.0283 22.8625 28.5106 24 27.5618L24.12 27.4631C25.3616 26.4314 26.363 25.1246 27.0503 23.6393C27.7376 22.154 28.0932 20.5281 28.0909 18.8818V12.6141C28.0908 12.3605 28.0306 12.1108 27.9155 11.8868C27.8005 11.6627 27.6341 11.4713 27.4309 11.329ZM19.9827 24.8788C18.5672 24.8788 17.3918 24.101 17.2036 23.0921H22.7618C22.5736 24.101 21.3982 24.8788 19.9827 24.8788ZM25.2327 17.7376C25.0984 18.1743 24.833 18.5555 24.4751 18.826C24.1172 19.0965 23.6852 19.2423 23.2418 19.2423C22.7984 19.2423 22.3664 19.0965 22.0085 18.826C21.6506 18.5555 21.3852 18.1743 21.2509 17.7376C21.2389 17.6933 21.2366 17.6468 21.2441 17.6015C21.2517 17.5561 21.2689 17.5131 21.2945 17.4755C21.3199 17.4405 21.3529 17.4121 21.3907 17.3925C21.4286 17.3729 21.4704 17.3628 21.5127 17.3628H24.9736C25.0155 17.3632 25.0567 17.3736 25.0941 17.3931C25.1314 17.4127 25.1639 17.4409 25.1891 17.4755C25.2147 17.5131 25.2319 17.5561 25.2395 17.6015C25.247 17.6468 25.2447 17.6933 25.2327 17.7376Z" fill="url(#paint1_linear_2667_1810)"/>
<path id="Vector_3" d="M25.6364 17.143C25.5607 17.037 25.4622 16.9507 25.3485 16.891C25.2349 16.8313 25.1093 16.7998 24.9818 16.7992H21.5127C21.3843 16.799 21.2577 16.83 21.143 16.8897C21.0284 16.9494 20.9289 17.0362 20.8527 17.143C20.7754 17.2518 20.7238 17.3778 20.702 17.5109C20.6802 17.644 20.6889 17.7805 20.7273 17.9096C20.8967 18.4594 21.231 18.9393 21.6818 19.2798C22.1327 19.6203 22.6766 19.8039 23.235 19.8039C23.7934 19.8039 24.3374 19.6203 24.7882 19.2798C25.239 18.9393 25.5733 18.4594 25.7427 17.9096C25.7854 17.7823 25.798 17.6463 25.7795 17.513C25.761 17.3796 25.7119 17.2528 25.6364 17.143ZM25.2409 17.7376C25.1066 18.1743 24.8412 18.5555 24.4833 18.826C24.1254 19.0966 23.6935 19.2424 23.25 19.2424C22.8066 19.2424 22.3746 19.0966 22.0167 18.826C21.6588 18.5555 21.3935 18.1743 21.2591 17.7376C21.2471 17.6934 21.2448 17.6469 21.2523 17.6015C21.2599 17.5562 21.2771 17.5132 21.3027 17.4756C21.3281 17.4406 21.3611 17.4121 21.399 17.3926C21.4368 17.373 21.4786 17.3628 21.5209 17.3628H24.9737C25.0155 17.3633 25.0568 17.3737 25.0941 17.3932C25.1315 17.4128 25.164 17.4409 25.1891 17.4756C25.2147 17.5132 25.232 17.5562 25.2395 17.6015C25.2471 17.6469 25.2447 17.6934 25.2327 17.7376H25.2409ZM19.1127 17.143C19.0366 17.0362 18.9371 16.9494 18.8225 16.8897C18.7078 16.83 18.5811 16.799 18.4527 16.7992H16.3937C16.2518 16.9908 16.1209 17.1797 15.9573 17.3628H18.4527C18.4953 17.3632 18.5372 17.3738 18.5751 17.3938C18.613 17.4139 18.6458 17.4429 18.6709 17.4784C18.7062 17.5293 18.7253 17.5904 18.7255 17.6531C18.7307 17.682 18.7307 17.7116 18.7255 17.7405C18.6073 18.1202 18.3897 18.4588 18.0968 18.7187C17.804 18.9786 17.4472 19.1496 17.066 19.2129C16.6849 19.2763 16.2942 19.2293 15.9373 19.0774C15.5803 18.9254 15.271 18.6744 15.0437 18.352L15.0191 18.3774C14.9073 18.4816 14.7818 18.5944 14.6318 18.724C14.9237 19.1211 15.3152 19.4279 15.764 19.6111C16.2127 19.7943 16.7015 19.8469 17.1771 19.7633C17.6528 19.6796 18.0972 19.4629 18.462 19.1365C18.8268 18.8102 19.0981 18.3868 19.2464 17.9124C19.2857 17.7825 19.294 17.6447 19.2708 17.5108C19.2475 17.3768 19.1933 17.2507 19.1127 17.143ZM23.0591 22.5286H16.9091C16.8368 22.5286 16.7674 22.5583 16.7163 22.6111C16.6651 22.664 16.6364 22.7356 16.6364 22.8104C16.6364 24.2617 18.1391 25.4426 19.9882 25.4426C21.8373 25.4426 23.3373 24.2617 23.3373 22.8104C23.3373 22.7729 23.3301 22.7358 23.316 22.7012C23.302 22.6666 23.2814 22.6353 23.2555 22.6091C23.2296 22.5828 23.1989 22.5622 23.1652 22.5484C23.1314 22.5345 23.0954 22.5278 23.0591 22.5286ZM19.9827 24.8789C18.5673 24.8789 17.3918 24.1011 17.2037 23.0922H22.7618C22.5737 24.1011 21.3982 24.8789 19.9827 24.8789Z" fill="url(#paint2_linear_2667_1810)"/>
</g>
<defs>
<linearGradient id="paint0_linear_2667_1810" x1="28.6867" y1="10.9676" x2="2.90558" y2="6.73069" gradientUnits="userSpaceOnUse">
<stop stop-color="#B2E958"/>
<stop offset="1" stop-color="#449329"/>
</linearGradient>
<linearGradient id="paint1_linear_2667_1810" x1="43.6814" y1="18.3809" x2="6.19915" y2="10.7016" gradientUnits="userSpaceOnUse">
<stop stop-color="#B2E958"/>
<stop offset="1" stop-color="#449329"/>
</linearGradient>
<linearGradient id="paint2_linear_2667_1810" x1="33.0687" y1="21.1209" x2="15.7896" y2="17.0475" gradientUnits="userSpaceOnUse">
<stop stop-color="#B2E958"/>
<stop offset="1" stop-color="#449329"/>
</linearGradient>
</defs>
</svg>
