<svg width="60" height="60" viewBox="0 0 60 60" fill="none" xmlns="http://www.w3.org/2000/svg">
<g opacity="0.9" filter="url(#filter0_b_1_102)">
<circle cx="30" cy="30" r="30" fill="#FF4D5E"/>
</g>
<path d="M18.4447 35.5444C18.1902 35.2899 17.9851 34.9717 17.8507 34.5969C17.7164 34.2221 17.6315 33.8262 17.6103 33.3948C17.575 32.6665 17.681 32.0089 17.9356 31.4008C18.1831 30.7997 18.5508 30.2482 19.0458 29.7532C19.767 29.032 20.7075 28.4309 21.8671 27.9642C23.0268 27.4976 24.3066 27.1511 25.6996 26.9319C27.1068 26.7127 28.5351 26.5995 29.9988 26.5925C31.4626 26.5995 32.8909 26.7127 34.2839 26.9319C35.6698 27.1581 36.9426 27.4976 38.0811 27.9572C39.2266 28.4239 40.167 29.0249 40.9024 29.7603C41.3833 30.2411 41.758 30.7856 42.0126 31.3796C42.2742 31.9806 42.4015 32.6453 42.3803 33.3736C42.3732 34.2716 42.0974 34.9858 41.5742 35.5091C41.3762 35.7071 41.1358 35.8626 40.8741 35.9546C40.6054 36.0536 40.3155 36.0889 40.0044 36.0323L36.0517 35.3606C35.7476 35.3111 35.4931 35.2404 35.2739 35.1485C35.0617 35.0636 34.8779 34.9505 34.7435 34.8161C34.5738 34.6464 34.4536 34.4272 34.39 34.1656C34.3193 33.911 34.2839 33.607 34.2839 33.2676L34.2627 32.1715C34.2627 32.016 34.2061 31.8887 34.093 31.7756C34.0364 31.719 33.9799 31.6766 33.9091 31.6341C33.8314 31.5988 33.7677 31.5776 33.7112 31.5493C33.3505 31.4432 32.8273 31.3584 32.1484 31.3018C31.4626 31.2523 30.7484 31.2169 30.0059 31.2099C29.2493 31.2169 28.5351 31.2382 27.8422 31.2947C27.1633 31.3513 26.6472 31.4432 26.2795 31.5564C26.23 31.5776 26.1663 31.5988 26.0956 31.6271C26.0178 31.6624 25.9542 31.7119 25.8906 31.7756C25.7703 31.8958 25.7208 32.0301 25.7208 32.1857L25.7138 33.2534C25.7138 33.607 25.6784 33.911 25.6006 34.1585C25.537 34.4201 25.4239 34.6323 25.2471 34.809C25.1127 34.9434 24.943 35.0565 24.7238 35.1485C24.5046 35.2404 24.2501 35.3111 23.9531 35.3677L19.9509 36.0465C19.6397 36.103 19.364 36.0818 19.1094 35.9828C18.8619 35.8768 18.6427 35.7424 18.4447 35.5444Z" stroke="white" stroke-width="1.5" stroke-miterlimit="10"/>
<defs>
<filter id="filter0_b_1_102" x="-40" y="-40" width="140" height="140" filterUnits="userSpaceOnUse" color-interpolation-filters="sRGB">
<feFlood flood-opacity="0" result="BackgroundImageFix"/>
<feGaussianBlur in="BackgroundImageFix" stdDeviation="20"/>
<feComposite in2="SourceAlpha" operator="in" result="effect1_backgroundBlur_1_102"/>
<feBlend mode="normal" in="SourceGraphic" in2="effect1_backgroundBlur_1_102" result="shape"/>
</filter>
</defs>
</svg>
