<svg width="80" height="80" viewBox="0 0 80 80" fill="none" xmlns="http://www.w3.org/2000/svg">
<circle cx="40" cy="40" r="40" fill="#FF4D5E"/>
<path d="M37.7418 38.9504L37.7417 35.462C37.7417 34.7266 38.3263 34.1421 39.0617 34.1233C39.2691 34.1233 39.4671 34.1138 39.6745 34.1138C41.6261 34.1233 43.5306 34.2741 45.3879 34.5664C47.2358 34.8681 48.9329 35.3206 50.4508 35.9335C51.9687 36.5651 53.2226 37.3665 54.2032 38.3471C54.8443 38.9882 55.344 39.7141 55.6834 40.5061C56.0322 41.3075 56.2019 42.1937 56.1736 43.1648C56.1642 44.3622 55.7965 45.3144 55.0988 46.0121C54.8349 46.2761 54.5143 46.4835 54.1655 46.606C53.8072 46.738 53.4206 46.7852 53.0058 46.7098L47.7355 45.8141C47.3301 45.7481 46.9907 45.6538 46.6984 45.5312C46.4156 45.4181 46.1705 45.2672 45.9913 45.0881C45.7651 44.8618 45.6048 44.5696 45.5199 44.2207C45.4256 43.8813 45.3785 43.4759 45.3785 43.0234L45.3502 41.562C45.3502 41.3546 45.2748 41.1849 45.1239 41.034C45.0485 40.9586 44.9731 40.902 44.8788 40.8455C44.7751 40.7983 44.6902 40.7701 44.6148 40.7323C44.134 40.5909 43.4363 40.4778 42.5312 40.4024C41.6167 40.3364 40.6645 40.2892 39.6745 40.2798C39.4859 40.2798 39.288 40.2892 39.0994 40.2892C38.3546 40.2986 37.7418 39.7047 37.7418 38.9504Z" fill="white"/>
<path d="M24.2596 46.0592C23.9956 45.7952 23.7694 45.4746 23.5997 45.1164C23.5525 45.0126 23.5054 44.9089 23.4677 44.7958C23.2885 44.2961 23.1754 43.7681 23.1471 43.193C23.1 42.2219 23.2414 41.3451 23.5808 40.5343C23.5902 40.5249 23.5902 40.506 23.5996 40.4966C23.9296 39.7141 24.4105 38.9881 25.061 38.3376C26.0227 37.3759 27.2766 36.5745 28.8228 35.9523C30.369 35.33 32.0755 34.8681 33.9328 34.5758C34.5739 34.4815 35.215 34.3872 35.8561 34.3307L35.8561 40.4966C35.3942 40.5626 35.0076 40.6475 34.7059 40.7418C34.6399 40.77 34.5551 40.7983 34.4608 40.836C34.3571 40.8832 34.2722 40.9492 34.1874 41.034C34.0271 41.1943 33.9611 41.3734 33.9611 41.5808L33.9517 43.0045C33.9517 43.4759 33.9045 43.8813 33.8008 44.2113C33.716 44.5601 33.5651 44.843 33.3294 45.0787C33.1503 45.2578 32.924 45.4086 32.6317 45.5312C32.3395 45.6538 32.0001 45.7481 31.6041 45.8235L26.2678 46.7286C25.853 46.804 25.4853 46.7757 25.1459 46.6437C24.8159 46.5023 24.5236 46.3232 24.2596 46.0592Z" fill="white"/>
</svg>
