<svg width="17" height="11" viewBox="0 0 17 11" fill="none" xmlns="http://www.w3.org/2000/svg">
<path d="M15.7857 5.57145C14.8244 4.16668 13.6196 3.11609 12.1713 2.41966C12.5571 3.03871 12.75 3.70835 12.75 4.42859C12.75 5.52978 12.3342 6.47174 11.5025 7.25448C10.6709 8.03722 9.67002 8.42859 8.5 8.42859C7.32999 8.42859 6.32915 8.03722 5.49749 7.25448C4.66583 6.47174 4.25 5.52978 4.25 4.42859C4.25 3.70835 4.44289 3.03871 4.82868 2.41966C3.38039 3.11609 2.1756 4.16668 1.21429 5.57145C2.05543 6.79168 3.11003 7.76341 4.37807 8.48662C5.64611 9.20984 7.02009 9.57145 8.5 9.57145C9.97991 9.57145 11.3539 9.20984 12.6219 8.48662C13.89 7.76341 14.9446 6.79168 15.7857 5.57145ZM8.95536 2.14287C8.95536 2.02383 8.91109 1.92264 8.82255 1.8393C8.734 1.75597 8.62649 1.7143 8.5 1.7143C7.70945 1.7143 7.03116 1.98067 6.46512 2.51341C5.89909 3.04615 5.61607 3.68454 5.61607 4.42859C5.61607 4.54764 5.66034 4.64883 5.74888 4.73216C5.83743 4.81549 5.94494 4.85716 6.07143 4.85716C6.19792 4.85716 6.30543 4.81549 6.39397 4.73216C6.48251 4.64883 6.52679 4.54764 6.52679 4.42859C6.52679 3.91668 6.71968 3.47918 7.10547 3.11609C7.49126 2.75299 7.9561 2.57145 8.5 2.57145C8.62649 2.57145 8.734 2.52978 8.82255 2.44645C8.91109 2.36311 8.95536 2.26192 8.95536 2.14287ZM17 5.57145C17 5.77383 16.9368 5.97918 16.8103 6.18752C15.9249 7.55656 14.7343 8.65329 13.2386 9.4777C11.7428 10.3021 10.1633 10.7143 8.5 10.7143C6.83668 10.7143 5.25716 10.3006 3.76144 9.47323C2.26572 8.64585 1.07515 7.55061 0.189732 6.18752C0.0632441 5.97918 0 5.77383 0 5.57145C0 5.36906 0.0632441 5.16371 0.189732 4.95537C1.07515 3.59228 2.26572 2.49704 3.76144 1.66966C5.25716 0.842279 6.83668 0.428589 8.5 0.428589C10.1633 0.428589 11.7428 0.842279 13.2386 1.66966C14.7343 2.49704 15.9249 3.59228 16.8103 4.95537C16.9368 5.16371 17 5.36906 17 5.57145Z" fill="#50555C"/>
</svg>
