<svg width="17" height="16" viewBox="0 0 17 16" fill="none" xmlns="http://www.w3.org/2000/svg">
<path d="M5.26507 11.9196L6.00502 10.6607C5.4548 10.2857 5.02474 9.81248 4.71484 9.24105C4.40495 8.66963 4.25 8.06546 4.25 7.42855C4.25 6.70832 4.44289 6.03867 4.82868 5.41963C3.38039 6.11605 2.1756 7.16665 1.21429 8.57141C2.27046 10.1071 3.62072 11.2232 5.26507 11.9196ZM8.95536 5.14284C8.95536 5.02379 8.91109 4.9226 8.82255 4.83927C8.734 4.75593 8.62649 4.71427 8.5 4.71427C7.70945 4.71427 7.03116 4.98064 6.46512 5.51338C5.89909 6.04611 5.61607 6.68451 5.61607 7.42855C5.61607 7.5476 5.66034 7.64879 5.74888 7.73213C5.83743 7.81546 5.94494 7.85713 6.07143 7.85713C6.19792 7.85713 6.30543 7.81546 6.39397 7.73213C6.48251 7.64879 6.52679 7.5476 6.52679 7.42855C6.52679 6.91665 6.71968 6.47915 7.10547 6.11605C7.49126 5.75296 7.9561 5.57141 8.5 5.57141C8.62649 5.57141 8.734 5.52974 8.82255 5.44641C8.91109 5.36308 8.95536 5.26189 8.95536 5.14284ZM12.399 3.43748C12.399 3.47915 12.3958 3.50594 12.3895 3.51784C11.7254 4.63689 10.7294 6.32141 9.40123 8.57141C8.0731 10.8214 7.07385 12.5089 6.40346 13.6339L5.93862 14.4286C5.87537 14.5238 5.78683 14.5714 5.67299 14.5714C5.5971 14.5714 5.17336 14.3631 4.40179 13.9464C4.3006 13.8869 4.25 13.8036 4.25 13.6964C4.25 13.625 4.38914 13.3661 4.66741 12.9196C3.76302 12.5327 2.92978 12.0178 2.16769 11.375C1.4056 10.7321 0.74628 10.003 0.189732 9.18748C0.0632441 9.00296 0 8.7976 0 8.57141C0 8.34522 0.0632441 8.13986 0.189732 7.95534C1.15737 6.55653 2.359 5.45236 3.79464 4.64284C5.23028 3.83332 6.79874 3.42855 8.5 3.42855C9.06287 3.42855 9.63207 3.47915 10.2076 3.58034L10.7199 2.71427C10.7831 2.61903 10.8717 2.57141 10.9855 2.57141C11.0171 2.57141 11.074 2.58927 11.1562 2.62498C11.2385 2.6607 11.3365 2.70683 11.4503 2.76338C11.5642 2.81992 11.6685 2.87498 11.7634 2.92855C11.8583 2.98213 11.9579 3.03718 12.0622 3.09373C12.1666 3.15028 12.2282 3.18451 12.2472 3.19641C12.3484 3.25593 12.399 3.33629 12.399 3.43748ZM12.75 7.42855C12.75 8.25594 12.5002 9.0104 12.0006 9.69195C11.5009 10.3735 10.84 10.8631 10.0179 11.1607L12.6741 6.67855C12.7247 6.94641 12.75 7.19641 12.75 7.42855ZM17 8.57141C17 8.77974 16.9368 8.9851 16.8103 9.18748C16.5636 9.56844 16.2189 9.99998 15.7762 10.4821C14.8276 11.5059 13.7287 12.3006 12.4796 12.8661C11.2306 13.4315 9.90402 13.7143 8.5 13.7143L9.20201 12.5357C10.5428 12.4286 11.7839 12.0208 12.9255 11.3125C14.0671 10.6041 15.0205 9.69046 15.7857 8.57141C15.0584 7.50594 14.1667 6.63094 13.1105 5.94641L13.7081 4.94641C14.309 5.32736 14.8861 5.78272 15.4395 6.31248C15.9928 6.84224 16.4498 7.38986 16.8103 7.95534C16.9368 8.15772 17 8.36308 17 8.57141Z" fill="#50555C"/>
</svg>
