<svg width="18" height="17" viewBox="0 0 18 17" fill="none" xmlns="http://www.w3.org/2000/svg">
<path id="Path 2729" d="M8.99793 16.2031C8.65182 16.2014 8.32028 16.0637 8.07503 15.8198L1.59035 9.34367C0.589261 8.35653 0.0180062 7.01509 0.000418415 5.61011C-0.0171694 4.20513 0.520327 2.84984 1.4964 1.83801C2.47246 0.826189 3.80845 0.239366 5.21476 0.204748C6.62107 0.17013 7.98438 0.690507 9.00916 1.65308C10.0371 0.698886 11.3993 0.186375 12.8021 0.226033C14.2048 0.265692 15.5358 0.854344 16.5081 1.86509C17.4803 2.87583 18.016 4.22771 17.9996 5.62929C17.9832 7.03087 17.4161 8.36989 16.4205 9.35769L9.92083 15.8291C9.67446 16.0703 9.34285 16.2046 8.99793 16.2031Z" fill="url(#paint0_linear_52_8309)"/>
<defs>
<linearGradient id="paint0_linear_52_8309" x1="29.7478" y1="8.20313" x2="1.51078" y2="2.40105" gradientUnits="userSpaceOnUse">
<stop stop-color="#B2E958"/>
<stop offset="1" stop-color="#449329"/>
</linearGradient>
</defs>
</svg>
