<svg width="21" height="20" viewBox="0 0 21 20" fill="none" xmlns="http://www.w3.org/2000/svg">
<g id="Google Icon">
<path id="Vector" d="M19.8736 8.09588H19.0653V8.05457H10.0344V12.0364H15.7053C14.878 14.3543 12.6548 16.0182 10.0344 16.0182C6.70948 16.0182 4.01375 13.3439 4.01375 10.0455C4.01375 6.74704 6.70948 4.07275 10.0344 4.07275C11.5691 4.07275 12.9654 4.64713 14.0285 5.58534L16.8668 2.76971C15.0746 1.11277 12.6774 0.0909424 10.0344 0.0909424C4.49289 0.0909424 0 4.54808 0 10.0455C0 15.5429 4.49289 20 10.0344 20C15.5758 20 20.0687 15.5429 20.0687 10.0455C20.0687 9.37802 19.9995 8.7265 19.8736 8.09588Z" fill="#FFC107"/>
<path id="Vector_2" d="M1.15723 5.41214L4.45402 7.81068C5.34607 5.61969 7.50647 4.07275 10.0346 4.07275C11.5694 4.07275 12.9657 4.64713 14.0288 5.58534L16.867 2.76971C15.0749 1.11277 12.6777 0.0909424 10.0346 0.0909424C6.18043 0.0909424 2.83798 2.24958 1.15723 5.41214Z" fill="#FF3D00"/>
<path id="Vector_3" d="M10.0345 20C12.6264 20 14.9815 19.016 16.7621 17.4158L13.6564 14.8087C12.6151 15.5943 11.3427 16.0192 10.0345 16.0182C7.4246 16.0182 5.20851 14.3672 4.37365 12.0632L1.10144 14.5643C2.76213 17.7881 6.13468 20 10.0345 20Z" fill="#4CAF50"/>
<path id="Vector_4" d="M19.8736 8.09589H19.0654V8.05458H10.0344V12.0364H15.7053C15.3096 13.1396 14.5967 14.1035 13.6548 14.8092L13.6563 14.8082L16.762 17.4153C16.5422 17.6134 20.0688 15.0228 20.0688 10.0455C20.0688 9.37804 19.9996 8.72651 19.8736 8.09589Z" fill="#1976D2"/>
</g>
</svg>
