<svg width="24" height="24" viewBox="0 0 24 24" fill="none" xmlns="http://www.w3.org/2000/svg">
<g id="Home Icon">
<path id="Path 15" d="M23.7301 11.7096C23.9032 11.5349 24.0004 11.2988 24.0004 11.0528C24.0004 10.8069 23.9032 10.5708 23.7301 10.3961L16.0896 2.70379C15.4547 2.03226 14.7796 1.39999 14.0679 0.81049C13.4915 0.312031 12.7618 0.026 12.0002 0C11.239 0.0258768 10.5096 0.311573 9.93334 0.809567C9.22109 1.39905 8.54594 2.03197 7.91173 2.70471L0.270236 10.3961C0.0971193 10.5708 0 10.8069 0 11.0528C0 11.2988 0.0971193 11.5349 0.270236 11.7096C0.443345 11.8827 0.678099 11.9799 0.922875 11.9799C1.16765 11.9799 1.4024 11.8827 1.57551 11.7096L2.10353 11.1761V15.2442C2.09894 17.178 2.74737 19.0567 3.94378 20.576C5.14019 22.0952 6.81449 23.166 8.69545 23.615C10.8684 24.1283 13.1311 24.1283 15.304 23.615C17.1849 23.166 18.8592 22.0952 20.0557 20.576C21.2521 19.0567 21.9005 17.178 21.8959 15.2442V11.1779L22.4239 11.7115C22.5097 11.7974 22.6115 11.8657 22.7237 11.9122C22.8358 11.9587 22.9561 11.9827 23.0775 11.9827C23.1989 11.9827 23.3191 11.9587 23.4313 11.9122C23.5434 11.8657 23.6453 11.7974 23.731 11.7115L23.7301 11.7096Z" fill="#C5C5C5"/>
</g>
</svg>
