<svg width="18" height="18" viewBox="0 0 18 18" fill="none" xmlns="http://www.w3.org/2000/svg">
<g id="inbox" clip-path="url(#clip0_51_3080)">
<path id="Vector" d="M18 2.37116C18.0058 2.46509 17.9947 2.55932 17.9673 2.64934C17.9673 2.65752 17.9591 2.6657 17.9591 2.67388C17.9422 2.73028 17.9203 2.78505 17.8936 2.83752L9.71181 16.7466C9.63867 16.8681 9.53556 16.9688 9.41235 17.039C9.28915 17.1092 9.14998 17.1465 9.00818 17.1475C8.97524 17.1489 8.94226 17.1461 8.91 17.1393C8.75135 17.1234 8.60111 17.0603 8.47863 16.9583C8.35614 16.8562 8.26701 16.7198 8.22272 16.5666L6.05454 9.35025L12.2482 6.00388C12.3457 5.95508 12.4325 5.88724 12.5034 5.80435C12.5742 5.72147 12.6278 5.62523 12.6609 5.52131C12.6939 5.41739 12.7059 5.30789 12.6959 5.19929C12.686 5.09069 12.6544 4.98517 12.603 4.88897C12.5517 4.79278 12.4815 4.70785 12.3968 4.6392C12.3121 4.57055 12.2144 4.51956 12.1097 4.48926C12.0049 4.45896 11.8951 4.44995 11.7868 4.46277C11.6785 4.47558 11.5739 4.50997 11.4791 4.56388L5.19545 7.95116L0.245449 3.00116C0.130062 2.88672 0.0513683 2.74051 0.0194022 2.58117C-0.0125639 2.42183 0.00364551 2.25658 0.0659638 2.10649C0.128282 1.9564 0.233886 1.82827 0.369311 1.73843C0.504736 1.64859 0.663847 1.60112 0.826358 1.60206H17.19C17.2646 1.60494 17.3387 1.61592 17.4109 1.63479C17.4273 1.64297 17.4354 1.64297 17.4436 1.65116C17.5234 1.67607 17.5982 1.71484 17.6645 1.7657C17.6855 1.77655 17.7048 1.79033 17.7218 1.80661C17.7918 1.863 17.8502 1.93248 17.8936 2.01116C17.9018 2.01934 17.9018 2.01934 17.9018 2.02752L17.91 2.0357C17.9095 2.04014 17.9099 2.04465 17.9113 2.04889C17.9127 2.05314 17.9151 2.05701 17.9182 2.06025C17.9501 2.13965 17.9748 2.22181 17.9918 2.3057C17.9918 2.33025 18 2.34661 18 2.37116Z" fill="black"/>
</g>
<defs>
<clipPath id="clip0_51_3080">
<rect width="18" height="18" fill="white"/>
</clipPath>
</defs>
</svg>
