<svg width="80" height="80" viewBox="0 0 80 80" fill="none" xmlns="http://www.w3.org/2000/svg">
<circle cx="40" cy="40" r="40" fill="#34A853"/>
<path d="M38.7333 43.9333L36.2666 46.4C35.7466 46.92 34.92 46.92 34.3866 46.4133C34.24 46.2667 34.0933 46.1333 33.9466 45.9867C32.5733 44.6 31.3333 43.1467 30.2266 41.6267C29.1333 40.1067 28.2533 38.5867 27.6133 37.08C26.9867 35.56 26.6667 34.1067 26.6667 32.72C26.6667 31.8133 26.8267 30.9467 27.1467 30.1467C27.4667 29.3333 27.9733 28.5867 28.68 27.92C29.5333 27.08 30.4666 26.6667 31.4533 26.6667C31.8266 26.6667 32.2 26.7467 32.5333 26.9067C32.88 27.0667 33.1866 27.3067 33.4266 27.6533L36.52 32.0133C36.76 32.3467 36.9333 32.6533 37.0533 32.9467C37.1733 33.2267 37.2399 33.5067 37.2399 33.76C37.2399 34.08 37.1466 34.4 36.96 34.7067C36.7866 35.0133 36.5333 35.3333 36.2133 35.6533L35.2 36.7067C35.0533 36.8533 34.9866 37.0267 34.9866 37.24C34.9866 37.3467 35 37.44 35.0266 37.5467C35.0666 37.6533 35.1066 37.7333 35.1333 37.8133C35.3733 38.2533 35.7866 38.8267 36.3733 39.52C36.9733 40.2133 37.6133 40.92 38.3066 41.6267C38.4399 41.76 38.5866 41.8933 38.7199 42.0267C39.2533 42.5467 39.2666 43.4 38.7333 43.9333Z" fill="white"/>
<path d="M53.2932 48.44C53.2932 48.8133 53.2266 49.2 53.0932 49.5733C53.0532 49.68 53.0132 49.7867 52.9599 49.8933C52.7332 50.3733 52.4399 50.8267 52.0532 51.2533C51.3999 51.9733 50.6799 52.4933 49.8666 52.8267C49.8532 52.8267 49.8399 52.84 49.8266 52.84C49.0399 53.16 48.1866 53.3333 47.2666 53.3333C45.9066 53.3333 44.4533 53.0133 42.9199 52.36C41.3866 51.7067 39.8533 50.8267 38.3333 49.72C37.8133 49.3333 37.2933 48.9467 36.8 48.5333L41.1599 44.1733C41.5333 44.4533 41.8666 44.6667 42.1466 44.8133C42.2133 44.84 42.2933 44.88 42.3866 44.92C42.4933 44.96 42.5999 44.9733 42.7199 44.9733C42.9466 44.9733 43.1199 44.8933 43.2666 44.7467L44.2799 43.7467C44.6133 43.4133 44.9333 43.16 45.2399 43C45.5466 42.8133 45.8532 42.72 46.1866 42.72C46.4399 42.72 46.7066 42.7733 46.9999 42.8933C47.2932 43.0133 47.5999 43.1867 47.9332 43.4133L52.3466 46.5467C52.6932 46.7867 52.9332 47.0667 53.0799 47.4C53.2132 47.7333 53.2932 48.0667 53.2932 48.44Z" fill="white"/>
</svg>
