<svg width="17" height="17" viewBox="0 0 17 17" fill="none" xmlns="http://www.w3.org/2000/svg">
<path d="M8.4999 0.810059C4.2499 0.810059 0.810059 4.2499 0.810059 8.4999C0.810059 12.7499 4.26318 16.1897 8.4999 16.1897C12.7499 16.1897 16.1897 12.7366 16.1897 8.4999C16.1897 4.2499 12.7499 0.810059 8.4999 0.810059ZM8.4999 14.6757C5.0999 14.6757 2.32412 11.8999 2.32412 8.4999C2.32412 5.0999 5.0999 2.32412 8.4999 2.32412C11.8999 2.32412 14.6757 5.0999 14.6757 8.4999C14.6757 11.8999 11.8999 14.6757 8.4999 14.6757Z" fill="#979797"/>
<path d="M8.16792 6.24209C8.73272 6.24209 9.19058 5.78423 9.19058 5.21943C9.19058 4.65464 8.73272 4.19678 8.16792 4.19678C7.60312 4.19678 7.14526 4.65464 7.14526 5.21943C7.14526 5.78423 7.60312 6.24209 8.16792 6.24209Z" fill="#979797"/>
<path d="M7.49058 7.17194C7.19839 7.22507 6.98589 7.47741 6.98589 7.7696C6.98589 8.11491 7.2648 8.38054 7.59683 8.38054H7.66323V11.7673H7.3312C7.03901 11.7673 6.81323 12.0063 6.81323 12.2852C6.81323 12.5774 7.0523 12.8032 7.3312 12.8032H9.6687C9.96089 12.8032 10.1867 12.5641 10.1867 12.2852C10.1867 11.993 9.94761 11.7673 9.6687 11.7673H9.34995V7.43757C9.34995 7.10554 9.04448 6.85319 8.72573 6.9196C8.1812 7.02585 7.51714 7.15866 7.49058 7.17194Z" fill="#979797"/>
</svg>
