<svg width="21" height="20" viewBox="0 0 21 20" fill="none" xmlns="http://www.w3.org/2000/svg">
<g id="Instagram Icon">
<path id="Path 16" d="M5.08895 19.929C4.31271 19.9204 3.54377 19.7785 2.81589 19.5096C2.28436 19.3138 1.80345 19.0021 1.40834 18.5973C1.00102 18.2043 0.687777 17.7249 0.491876 17.1947C0.222279 16.4694 0.0801132 15.7031 0.0716171 14.9297C0.0120018 13.6438 0 13.2581 0 9.9999C0 6.7417 0.0131823 6.35739 0.0710269 5.07054C0.080554 4.29736 0.222895 3.53153 0.491876 2.80625C0.68873 2.27645 1.00153 1.797 1.40755 1.40273C1.80218 0.997173 2.28331 0.685292 2.8153 0.490191C3.54318 0.221295 4.31212 0.0794166 5.08836 0.0707836C6.37904 0.0119607 6.76664 0 10.0343 0C13.3019 0 13.6893 0.0131371 14.9806 0.0707836C15.7566 0.0802111 16.5253 0.222066 17.2532 0.490191C17.785 0.685549 18.266 0.997321 18.6608 1.40254C19.0675 1.79611 19.3805 2.27558 19.5767 2.80566C19.8465 3.53104 19.989 4.29734 19.9977 5.07093C20.0567 6.35778 20.0687 6.74307 20.0687 10.0003C20.0687 13.2575 20.0567 13.6428 19.9977 14.9297C19.9883 15.7031 19.8459 16.4693 19.5767 17.1947C19.373 17.7208 19.061 18.1986 18.6609 18.5973C18.2607 18.996 17.7812 19.3068 17.2532 19.5096C16.5254 19.7786 15.7564 19.9205 14.9802 19.9292C13.6901 19.988 13.3023 20 10.0339 20C6.76546 20 6.37884 19.9886 5.08875 19.9292" fill="url(#paint0_radial_0_59)"/>
<path id="Path 17" d="M5.08895 19.929C4.31271 19.9204 3.54377 19.7785 2.81589 19.5096C2.28436 19.3138 1.80345 19.0021 1.40834 18.5973C1.00102 18.2043 0.687777 17.7249 0.491876 17.1947C0.222279 16.4694 0.0801132 15.7031 0.0716171 14.9297C0.0120018 13.6438 0 13.2581 0 9.9999C0 6.7417 0.0131823 6.35739 0.0710269 5.07054C0.080554 4.29736 0.222895 3.53153 0.491876 2.80625C0.68873 2.27645 1.00153 1.797 1.40755 1.40273C1.80218 0.997173 2.28331 0.685292 2.8153 0.490191C3.54318 0.221295 4.31212 0.0794166 5.08836 0.0707836C6.37904 0.0119607 6.76664 0 10.0343 0C13.3019 0 13.6893 0.0131371 14.9806 0.0707836C15.7566 0.0802111 16.5253 0.222066 17.2532 0.490191C17.785 0.685549 18.266 0.997321 18.6608 1.40254C19.0675 1.79611 19.3805 2.27558 19.5767 2.80566C19.8465 3.53104 19.989 4.29734 19.9977 5.07093C20.0567 6.35778 20.0687 6.74307 20.0687 10.0003C20.0687 13.2575 20.0567 13.6428 19.9977 14.9297C19.9883 15.7031 19.8459 16.4693 19.5767 17.1947C19.373 17.7208 19.061 18.1986 18.6609 18.5973C18.2607 18.996 17.7812 19.3068 17.2532 19.5096C16.5254 19.7786 15.7564 19.9205 14.9802 19.9292C13.6901 19.988 13.3023 20 10.0339 20C6.76546 20 6.37884 19.9886 5.08875 19.9292" fill="url(#paint1_radial_0_59)"/>
<path id="Path 18" d="M7.50093 9.99915C7.50097 9.49972 7.64963 9.01152 7.9281 8.59628C8.20657 8.18105 8.60235 7.85743 9.06538 7.66635C9.52842 7.47527 10.0379 7.42532 10.5294 7.52281C11.021 7.62029 11.4724 7.86084 11.8268 8.21404C12.1811 8.56723 12.4224 9.0172 12.5201 9.50705C12.6178 9.99689 12.5676 10.5046 12.3757 10.966C12.1839 11.4274 11.859 11.8217 11.4423 12.0991C11.0255 12.3765 10.5356 12.5246 10.0344 12.5245C9.36243 12.5244 8.718 12.2583 8.24288 11.7847C7.76777 11.3111 7.50088 10.6688 7.50093 9.99915ZM6.13097 9.99915C6.13097 10.7685 6.35991 11.5206 6.78882 12.1603C7.21774 12.8 7.82738 13.2986 8.54064 13.593C9.2539 13.8874 10.0388 13.9644 10.796 13.8143C11.5532 13.6642 12.2487 13.2938 12.7946 12.7498C13.3405 12.2057 13.7123 11.5126 13.8629 10.758C14.0135 10.0035 13.9362 9.22133 13.6408 8.51054C13.3453 7.79975 12.845 7.19222 12.2031 6.76479C11.5612 6.33736 10.8065 6.10922 10.0344 6.10922C9.52181 6.10919 9.01421 6.20979 8.54061 6.40527C8.06701 6.60075 7.63668 6.88728 7.27421 7.2485C6.91174 7.60971 6.62421 8.03855 6.42805 8.51051C6.23189 8.98247 6.13095 9.48831 6.13097 9.99915ZM13.1802 5.95508C13.1801 6.13487 13.2335 6.31064 13.3337 6.46017C13.4339 6.6097 13.5763 6.72627 13.7429 6.79515C13.9096 6.86402 14.093 6.8821 14.2699 6.84711C14.4469 6.81211 14.6094 6.72561 14.7371 6.59853C14.8647 6.47146 14.9516 6.30953 14.9869 6.13321C15.0222 5.9569 15.0042 5.77412 14.9352 5.60799C14.8663 5.44186 14.7494 5.29984 14.5995 5.19989C14.4495 5.09994 14.2732 5.04655 14.0928 5.04647C13.8509 5.04658 13.619 5.14233 13.448 5.31269C13.277 5.48305 13.1808 5.7141 13.1806 5.95508M6.9637 16.1655C6.48166 16.1602 6.00413 16.0723 5.55201 15.9056C5.22413 15.7797 4.92635 15.5867 4.67783 15.3392C4.4293 15.0916 4.23555 14.7949 4.10903 14.4682C3.94168 14.0177 3.85346 13.5418 3.84824 13.0614C3.81133 12.263 3.8041 12.0231 3.8041 10.0002C3.8041 7.97722 3.81213 7.73792 3.84824 6.93866C3.85409 6.45835 3.94229 5.98256 4.10903 5.53186C4.2354 5.20502 4.4291 4.90819 4.67763 4.66051C4.92617 4.41284 5.22403 4.21981 5.55201 4.09388C6.00411 3.92711 6.48165 3.83919 6.9637 3.83399C7.76494 3.79721 8.00567 3.79001 10.0348 3.79001C12.064 3.79001 12.3049 3.79781 13.107 3.83419C13.5889 3.84002 14.0664 3.92791 14.5187 4.09408C14.8466 4.22002 15.1445 4.41305 15.393 4.66073C15.6416 4.9084 15.8353 5.20522 15.9616 5.53206C16.129 5.9826 16.2172 6.45849 16.2224 6.93886C16.2593 7.73852 16.2666 7.97722 16.2666 10.0004C16.2666 12.0235 16.2591 12.2626 16.2224 13.0618C16.2168 13.5422 16.1286 14.018 15.9616 14.4686C15.8351 14.7953 15.6414 15.092 15.3928 15.3396C15.1443 15.5871 14.8465 15.7801 14.5187 15.906C14.0666 16.0728 13.589 16.1607 13.107 16.1659C12.3057 16.2027 12.065 16.2099 10.0348 16.2099C8.00466 16.2099 7.76474 16.2025 6.9637 16.1659M6.90071 2.46997C6.26996 2.48233 5.64589 2.60131 5.0551 2.82182C4.55007 3.01641 4.09141 3.31403 3.70854 3.69557C3.32566 4.07712 3.02702 4.53419 2.83175 5.03748C2.6105 5.62623 2.49111 6.24813 2.47868 6.87669C2.44116 7.68434 2.43274 7.94263 2.43274 9.99995C2.43274 12.0573 2.44137 12.3154 2.47868 13.1232C2.49111 13.7518 2.61049 14.3737 2.83175 14.9624C3.02703 15.4657 3.32568 15.9228 3.70855 16.3043C4.09143 16.6859 4.55008 16.9835 5.0551 17.1781C5.64592 17.3985 6.26997 17.5175 6.90071 17.5299C7.71157 17.5667 7.97036 17.5757 10.0348 17.5757C12.0993 17.5757 12.3583 17.5671 13.169 17.5299C13.7997 17.5175 14.4238 17.3985 15.0146 17.1781C15.5196 16.9835 15.9782 16.6859 16.3611 16.3043C16.744 15.9228 17.0426 15.4657 17.2379 14.9624C17.4595 14.3738 17.5789 13.7518 17.591 13.1232C17.6279 12.315 17.6363 12.0573 17.6363 9.99995C17.6363 7.94263 17.6277 7.68454 17.591 6.87669C17.5786 6.24812 17.4592 5.62622 17.2379 5.03748C17.0426 4.53429 16.7441 4.07729 16.3613 3.69575C15.9785 3.31421 15.52 3.01655 15.0152 2.82182C14.4244 2.60116 13.8003 2.48219 13.1696 2.46997C12.3589 2.43299 12.0999 2.42419 10.0358 2.42419C7.97176 2.42419 7.71218 2.43279 6.90111 2.46997" fill="white"/>
</g>
<defs>
<radialGradient id="paint0_radial_0_59" cx="0" cy="0" r="1" gradientUnits="userSpaceOnUse" gradientTransform="translate(1.29875 19.5618) scale(25.4796 25.3923)">
<stop offset="0.09" stop-color="#FA8F21"/>
<stop offset="0.78" stop-color="#D82D7E"/>
</radialGradient>
<radialGradient id="paint1_radial_0_59" cx="0" cy="0" r="1" gradientUnits="userSpaceOnUse" gradientTransform="translate(13.9008 18.9194) scale(22.4223 22.3455)">
<stop offset="0.64" stop-color="#8C3AAA" stop-opacity="0"/>
<stop offset="1" stop-color="#8C3AAA"/>
</radialGradient>
</defs>
</svg>
