<svg width="16" height="16" viewBox="0 0 16 16" fill="none" xmlns="http://www.w3.org/2000/svg">
<path id="Vector" d="M8 0C3.58162 0 0 3.58162 0 8C0 12.4184 3.58162 16 8 16C12.4184 16 16 12.4184 16 8C16 3.58162 12.4184 0 8 0ZM5.68017 11.5991C5.68017 11.8068 5.49848 11.9765 5.27655 11.9765H4.21203C3.98978 11.9765 3.80809 11.8068 3.80809 11.5991V8.36144C3.80809 8.15412 3.98978 7.9841 4.21203 7.9841H5.27655C5.49848 7.9841 5.68017 8.15412 5.68017 8.36144V11.5991ZM11.9259 9.51519C11.8639 9.57958 11.8174 9.65727 11.79 9.74233C11.7625 9.8274 11.7548 9.91761 11.7675 10.0061C11.7974 10.2128 11.7747 10.4928 11.5235 10.7179C11.4482 10.7874 11.3918 10.8748 11.3595 10.972C11.3272 11.0692 11.3201 11.173 11.3389 11.2737C11.4038 11.6631 11.2046 12.2146 9.47723 12.1332L7.22878 12.0797C7.20931 12.0797 7.19017 12.0777 7.1707 12.0754C6.98544 12.0524 6.01695 11.9132 6.09028 11.483L6.08639 8.47208C6.08637 8.39289 6.10203 8.31449 6.13246 8.24139L7.40236 5.75512C7.42152 5.71754 7.43153 5.67596 7.43156 5.63378V4.46802C7.43069 4.36419 7.45723 4.26197 7.5085 4.17168C7.55977 4.08139 7.63396 4.00622 7.72357 3.95377C7.91045 3.84702 8.17163 3.79154 8.46105 4.00438C9.02981 4.42617 9.04344 4.65328 9.04344 4.65328C9.04344 4.65328 9.30073 5.41218 9.19236 6.10293C9.17879 6.18848 9.18395 6.27595 9.20748 6.35931C9.23101 6.44267 9.27235 6.51993 9.32865 6.58576C9.38494 6.65159 9.45485 6.70442 9.53355 6.74059C9.61225 6.77677 9.69787 6.79544 9.78448 6.79531H11.0784C11.0993 6.79525 11.1202 6.79633 11.141 6.79856C11.3386 6.82029 12.2373 6.97473 11.9213 7.98313C11.8933 8.0726 11.8875 8.16756 11.9044 8.25978C11.9214 8.35199 11.9606 8.43868 12.0187 8.51231C12.1916 8.72872 12.3363 9.09178 11.9259 9.51519Z" fill="#4080FF"/>
</svg>
