<svg width="25" height="24" viewBox="0 0 25 24" fill="none" xmlns="http://www.w3.org/2000/svg">
<g id="location" clip-path="url(#clip0_51_7777)">
<g id="vuesax/bold/location">
<path id="Vector" d="M21.1201 8.45C20.0701 3.83 16.0401 1.75 12.5001 1.75C12.5001 1.75 12.5001 1.75 12.4901 1.75C8.9601 1.75 4.9201 3.82 3.8701 8.44C2.7001 13.6 5.8601 17.97 8.7201 20.72C9.7801 21.74 11.1401 22.25 12.5001 22.25C13.8601 22.25 15.2201 21.74 16.2701 20.72C19.1301 17.97 22.2901 13.61 21.1201 8.45ZM12.5001 13.46C10.7601 13.46 9.3501 12.05 9.3501 10.31C9.3501 8.57 10.7601 7.16 12.5001 7.16C14.2401 7.16 15.6501 8.57 15.6501 10.31C15.6501 12.05 14.2401 13.46 12.5001 13.46Z" fill="white"/>
</g>
</g>
<defs>
<clipPath id="clip0_51_7777">
<rect width="24" height="24" fill="white" transform="translate(0.5)"/>
</clipPath>
</defs>
</svg>
