<svg width="13" height="17" viewBox="0 0 13 17" fill="none" xmlns="http://www.w3.org/2000/svg">
<g id="Nomo Brand Assets_AppDesigner_Location Pin Black" clip-path="url(#clip0_29_111)">
<path id="Vector" d="M6.50316 2.65696V-4.11281e-05C5.64547 -0.00203176 4.84309 0.145275 4.10003 0.439391C3.33837 0.740972 2.63855 1.19583 2.00358 1.80198C1.30326 2.47033 0.785932 3.21831 0.452108 4.03845C0.118788 4.85909 -0.0310303 5.75139 0.00466461 6.70889C0.0292992 7.36729 0.156494 7.99981 0.371166 8.59302C0.585336 9.18573 0.886481 9.73863 1.25801 10.2373C1.257 10.2368 1.2565 10.2363 1.2555 10.2358C1.25499 10.2358 1.25449 10.2353 1.25449 10.2353L1.29873 10.2925L1.34297 10.3498C1.35102 10.3602 1.35956 10.3712 1.36761 10.3816C1.37565 10.3926 1.3842 10.403 1.39224 10.4135L3.94217 13.707L6.4921 17.0005L9.12146 13.6179L11.7508 10.2353C11.7508 10.2353 11.7468 10.2373 11.7453 10.2383C11.7438 10.2393 11.7413 10.2403 11.7398 10.2413C12.1148 9.73365 12.4159 9.1703 12.6281 8.56714C12.8403 7.96398 12.9629 7.3215 12.982 6.65514C12.982 6.65166 12.982 6.64867 12.982 6.64519C12.982 6.64519 12.982 6.64569 12.982 6.64618L10.316 6.66111V6.65962C10.3004 6.97713 10.2461 7.28319 10.1531 7.5773C10.0038 8.04958 9.75441 8.4905 9.40752 8.89709C9.02795 9.3415 8.58855 9.67792 8.09887 9.90236C7.6087 10.1268 7.06824 10.2398 6.48456 10.2378C5.41723 10.2333 4.46854 9.80084 3.7838 9.11805C3.09906 8.43526 2.67776 7.50116 2.66469 6.4939C2.65112 5.44533 3.06991 4.48983 3.75917 3.7946C4.44894 3.09937 5.40968 2.66442 6.48104 2.65745" fill="black"/>
<g id="Group">
<path id="Vector_2" d="M12.9997 5.99725C12.9997 4.34702 12.3477 2.84757 11.2894 1.76268C10.76 1.21973 10.129 0.779802 9.42569 0.474738C8.72336 0.170171 7.94862 0.00146484 7.1377 0.00146484V0.934574C7.8164 0.934574 8.46042 1.07491 9.04813 1.32971C9.92894 1.71142 10.6816 2.35141 11.214 3.1596C11.7459 3.9683 12.0576 4.94271 12.0576 5.99725H13.0002H12.9997Z" fill="black"/>
<path id="Vector_3" d="M11.2285 5.99727C11.2285 4.83673 10.7746 3.7797 10.037 3.01231C9.66801 2.62862 9.22761 2.31609 8.73643 2.09961C8.24575 1.88313 7.70379 1.7627 7.1377 1.7627V2.63808C7.5776 2.63808 7.99488 2.73064 8.37646 2.89885C8.94909 3.15116 9.44128 3.57517 9.79018 4.11214C10.1391 4.64911 10.3437 5.29657 10.3437 5.99677H11.228L11.2285 5.99727Z" fill="black"/>
<path id="Vector_4" d="M9.3749 5.99725C9.3749 5.35179 9.13107 4.76207 8.73038 4.3301C8.52978 4.11412 8.28947 3.93745 8.0195 3.81453C7.75003 3.6916 7.45039 3.62243 7.13818 3.62293V4.38036C7.33727 4.38036 7.5253 4.42366 7.69925 4.50279C7.95967 4.62123 8.18792 4.82328 8.35081 5.08256C8.5137 5.34184 8.61022 5.65636 8.61022 5.99775H9.3754L9.3749 5.99725Z" fill="black"/>
<path id="Vector_5" d="M6.49075 7.38469C6.99748 7.38469 7.40826 6.97806 7.40826 6.47646C7.40826 5.97486 6.99748 5.56824 6.49075 5.56824C5.98403 5.56824 5.57324 5.97486 5.57324 6.47646C5.57324 6.97806 5.98403 7.38469 6.49075 7.38469Z" fill="black"/>
</g>
</g>
<defs>
<clipPath id="clip0_29_111">
<rect width="13" height="17" fill="white"/>
</clipPath>
</defs>
</svg>
