<svg width="40" height="60" viewBox="0 0 40 60" fill="none" xmlns="http://www.w3.org/2000/svg">
<ellipse opacity="0.5" cx="20" cy="51.5" rx="20" ry="8.5" fill="black" fill-opacity="0.5"/>
<path d="M20.5109 7.97105V5.97212e-05C17.9379 -0.00591218 15.5307 0.436008 13.3016 1.31836C11.0166 2.2231 8.91711 3.58768 7.01221 5.40612C4.91124 7.41118 3.35926 9.65512 2.35779 12.1155C1.35783 14.5775 0.908374 17.2544 1.01546 20.1268C1.08936 22.102 1.47095 23.9996 2.11496 25.7792C2.75747 27.5574 3.66091 29.2161 4.77549 30.712C4.77248 30.7105 4.77097 30.709 4.76795 30.7076C4.76645 30.7076 4.76494 30.7061 4.76494 30.7061L4.89766 30.8778L5.03039 31.0494C5.05452 31.0808 5.08016 31.1136 5.10429 31.145C5.12842 31.1778 5.15406 31.2092 5.17819 31.2405L12.828 41.121L20.4778 51.0015L28.3658 40.8538L36.2539 30.7061C36.2539 30.7061 36.2419 30.712 36.2373 30.715C36.2328 30.718 36.2253 30.721 36.2207 30.724C37.3459 29.2011 38.2493 27.5111 38.8858 25.7016C39.5223 23.8921 39.8903 21.9647 39.9476 19.9656C39.9476 19.9552 39.9476 19.9462 39.9476 19.9357C39.9476 19.9357 39.9476 19.9372 39.9476 19.9387L31.9494 19.9835V19.979C31.9027 20.9316 31.7398 21.8497 31.4607 22.7321C31.0128 24.1489 30.2647 25.4717 29.224 26.6915C28.0853 28.0247 26.7671 29.0339 25.2981 29.7073C23.8276 30.3806 22.2062 30.7195 20.4551 30.7135C17.2531 30.7001 14.4071 29.4027 12.3529 27.3543C10.2987 25.306 9.03476 22.5037 8.99554 19.4819C8.95482 16.3362 10.2112 13.4697 12.279 11.384C14.3483 9.2983 17.2305 7.99344 20.4446 7.97254" fill="url(#paint0_linear_16_166)"/>
<path d="M40 17.9919C40 13.0412 38.0438 8.5429 34.869 5.28821C33.2808 3.65938 31.388 2.33959 29.2779 1.4244C27.1709 0.510696 24.8467 0.00457764 22.414 0.00457764V2.8039C24.4501 2.8039 26.3821 3.22492 28.1453 3.98933C30.7877 5.13444 33.0455 7.0544 34.6427 9.47899C36.2385 11.9051 37.1736 14.8283 37.1736 17.9919H40.0015H40Z" fill="black"/>
<path d="M34.6865 17.9918C34.6865 14.5102 33.3245 11.3391 31.112 9.03694C30.0049 7.88586 28.6837 6.94827 27.2102 6.29883C25.7381 5.64939 24.1122 5.28809 22.414 5.28809V7.91423C23.7337 7.91423 24.9855 8.19192 26.1303 8.69655C27.8481 9.45348 29.3247 10.7255 30.3714 12.3364C31.4181 13.9473 32.032 15.8897 32.032 17.9903H34.685L34.6865 17.9918Z" fill="black"/>
<path d="M29.1256 17.9918C29.1256 16.0554 28.3941 14.2863 27.1921 12.9904C26.5903 12.3424 25.8693 11.8124 25.0594 11.4436C24.251 11.0749 23.3521 10.8674 22.4155 10.8688V13.1411C23.0127 13.1411 23.5768 13.271 24.0987 13.5084C24.8799 13.8637 25.5647 14.4699 26.0533 15.2477C26.542 16.0256 26.8316 16.9691 26.8316 17.9933H29.1271L29.1256 17.9918Z" fill="black"/>
<path d="M20.4729 22.1543C21.993 22.1543 23.2254 20.9344 23.2254 19.4296C23.2254 17.9248 21.993 16.7049 20.4729 16.7049C18.9527 16.7049 17.7203 17.9248 17.7203 19.4296C17.7203 20.9344 18.9527 22.1543 20.4729 22.1543Z" fill="black"/>
<defs>
<linearGradient id="paint0_linear_16_166" x1="1.00038" y1="25.5001" x2="39.9461" y2="25.5001" gradientUnits="userSpaceOnUse">
<stop stop-color="#B1EA50"/>
<stop offset="0.31" stop-color="#83C63C"/>
<stop offset="0.61" stop-color="#60AA2E"/>
<stop offset="0.84" stop-color="#4A9A25"/>
<stop offset="1" stop-color="#439422"/>
</linearGradient>
</defs>
</svg>
