<svg width="25" height="33" viewBox="0 0 25 33" fill="none" xmlns="http://www.w3.org/2000/svg">
<g id="Location Icon">
<path id="Vector" d="M12.2581 5.03082V2.47296e-05C10.6418 -0.00302516 9.12971 0.27604 7.72959 0.832645C6.2942 1.40297 4.97383 2.26457 3.77767 3.41285C2.45729 4.67856 1.48196 6.09523 0.853214 7.64763C0.224464 9.20002 -0.0577067 10.8912 0.00976896 12.7028C0.0557751 13.9487 0.29654 15.1473 0.699861 16.2697C1.10318 17.392 1.67059 18.4397 2.37141 19.3836C2.36988 19.3836 2.36835 19.3821 2.36681 19.3806H2.36528L2.44809 19.4888L2.5309 19.5971C2.54624 19.6169 2.56157 19.6383 2.57691 19.6581C2.59225 19.6779 2.60758 19.6993 2.62445 19.7191L7.43055 25.9546L12.2367 32.1901L17.193 25.7853L22.1494 19.3806C22.1494 19.3806 22.1418 19.3836 22.1387 19.3867C22.1356 19.3897 22.131 19.3897 22.128 19.3928C22.8349 18.432 23.4023 17.3646 23.8026 16.2224C24.2028 15.0802 24.4344 13.8633 24.4697 12.6022C24.4697 12.5961 24.4697 12.59 24.4697 12.5839C24.4697 12.5839 24.4697 12.5839 24.4697 12.5854L19.4443 12.6128V12.6098C19.4151 13.2106 19.3124 13.7916 19.1376 14.3467C18.8554 15.2419 18.3861 16.076 17.7313 16.8446C17.0152 17.6863 16.1886 18.3222 15.2639 18.7477C14.3407 19.1732 13.3209 19.3867 12.2213 19.3821C10.2093 19.3745 8.42122 18.5556 7.12998 17.2624C5.83874 15.9693 5.04437 14.2018 5.02137 12.2941C4.99683 10.3087 5.78507 8.50007 7.08397 7.18404C8.38441 5.86801 10.194 5.04454 12.2137 5.03082" fill="#C5C5C5"/>
<g id="Group">
<path id="Vector_2" d="M24.5034 11.3561C24.5034 8.23154 23.275 5.39209 21.2799 3.33799C20.2831 2.31017 19.093 1.47603 17.7681 0.899598C16.4431 0.321643 14.9832 0.00292969 13.4542 0.00292969V1.76882C14.7332 1.76882 15.9478 2.03416 17.055 2.51604C18.7143 3.23886 20.1343 4.44967 21.1372 5.98072C22.1402 7.51176 22.7275 9.35695 22.7275 11.3546H24.5034V11.3561Z" fill="#C5C5C5"/>
<path id="Vector_3" d="M21.1648 11.3563C21.1648 9.15885 20.3091 7.1566 18.9182 5.70333C18.2235 4.97593 17.3923 4.38577 16.4676 3.97556C15.5429 3.56535 14.5216 3.33813 13.4542 3.33813V4.99575C14.2839 4.99575 15.069 5.17112 15.7898 5.48983C16.8694 5.96714 17.7972 6.77079 18.4551 7.78793C19.113 8.80506 19.4979 10.0311 19.4979 11.3563H21.1648Z" fill="#C5C5C5"/>
<path id="Vector_4" d="M17.6715 11.3564C17.6715 10.1349 17.2114 9.01711 16.4569 8.19974C16.0782 7.79106 15.6258 7.45557 15.1166 7.22378C14.609 6.99046 14.0447 6.86084 13.4558 6.86084V8.29429C13.8315 8.29429 14.1858 8.37664 14.514 8.52608C15.0047 8.75025 15.4356 9.13301 15.7423 9.62404C16.049 10.1151 16.2315 10.7098 16.2315 11.3564H17.673H17.6715Z" fill="#C5C5C5"/>
<path id="Vector_5" d="M12.2351 13.9837C13.1904 13.9837 13.9649 13.2136 13.9649 12.2636C13.9649 11.3136 13.1904 10.5435 12.2351 10.5435C11.2797 10.5435 10.5052 11.3136 10.5052 12.2636C10.5052 13.2136 11.2797 13.9837 12.2351 13.9837Z" fill="#C5C5C5"/>
</g>
</g>
</svg>
