<svg width="23" height="23" viewBox="0 0 23 23" fill="none" xmlns="http://www.w3.org/2000/svg">
<path id="Vector" d="M17.2581 8.04964H5.77428C5.46971 8.04964 5.17761 8.1708 4.96225 8.38646C4.74689 8.60211 4.6259 8.89461 4.6259 9.19959C4.6259 9.50458 4.74689 9.79707 4.96225 10.0127C5.17761 10.2284 5.46971 10.3495 5.77428 10.3495H17.2581C17.5627 10.3495 17.8548 10.2284 18.0701 10.0127C18.2855 9.79707 18.4065 9.50458 18.4065 9.19959C18.4065 8.89461 18.2855 8.60211 18.0701 8.38646C17.8548 8.1708 17.5627 8.04964 17.2581 8.04964ZM12.6646 12.6494H5.77428C5.46971 12.6494 5.17761 12.7706 4.96225 12.9863C4.74689 13.2019 4.6259 13.4944 4.6259 13.7994C4.6259 14.1044 4.74689 14.3969 4.96225 14.6125C5.17761 14.8282 5.46971 14.9493 5.77428 14.9493H12.6646C12.9691 14.9493 13.2612 14.8282 13.4766 14.6125C13.692 14.3969 13.8129 14.1044 13.8129 13.7994C13.8129 13.4944 13.692 13.2019 13.4766 12.9863C13.2612 12.7706 12.9691 12.6494 12.6646 12.6494ZM11.5162 0C10.0081 0 8.5148 0.297443 7.12152 0.875347C5.72824 1.45325 4.46227 2.3003 3.3959 3.36812C1.24227 5.5247 0.0323687 8.44964 0.0323687 11.4995C0.0223294 14.1549 0.9405 16.7301 2.62771 18.7787L0.330948 21.0786C0.171601 21.2403 0.0636576 21.4456 0.0207379 21.6687C-0.0221819 21.8918 0.00184533 22.1226 0.0897877 22.332C0.18517 22.5389 0.339795 22.7128 0.534035 22.8315C0.728276 22.9503 0.953372 23.0086 1.18075 22.999H11.5162C14.5619 22.999 17.4828 21.7874 19.6365 19.6309C21.7901 17.4743 23 14.5493 23 11.4995C23 8.44964 21.7901 5.5247 19.6365 3.36812C17.4828 1.21155 14.5619 0 11.5162 0ZM11.5162 20.6991H3.94835L5.01635 19.6296C5.23023 19.4142 5.35029 19.1227 5.35029 18.8189C5.35029 18.5151 5.23023 18.2237 5.01635 18.0082C3.51264 16.5041 2.57623 14.5245 2.36667 12.4066C2.15711 10.2887 2.68736 8.1635 3.86708 6.39317C5.04679 4.62284 6.80299 3.31687 8.83645 2.69775C10.8699 2.07863 13.0549 2.18468 15.019 2.99782C16.9831 3.81096 18.605 5.28088 19.6082 7.15716C20.6114 9.03343 20.9339 11.2 20.5208 13.2877C20.1077 15.3754 18.9845 17.255 17.3425 18.6065C15.7006 19.9579 13.6416 20.6974 11.5162 20.6991Z" fill="white"/>
</svg>
