<svg width="40" height="40" viewBox="0 0 40 40" fill="none" xmlns="http://www.w3.org/2000/svg">
<g id="Outdoor camping">
<path id="Vector" d="M34.9333 36.687L20.6693 10.069L22.5654 6.85337L21.5668 6.2646L20.0023 8.91774L18.4378 6.2646L17.4391 6.85337L19.3358 10.07L5.06667 36.687H2.02899V37.8465H13.3797H26.6203H37.971V36.687H34.9333ZM13.3507 35.6842L12.0348 32.5305L17.6986 23.9044L13.3507 35.6842ZM14.2145 36.687L19.9594 21.1276L24.8986 36.687H14.2145ZM26.2377 36.687H26.1159L21.8261 23.1798L27.971 32.5305L26.2377 36.687ZM32.877 8.01336C32.5192 8.12803 32.1531 7.88163 32.1204 7.51291C32.0301 6.48907 31.1818 5.71716 30.1472 5.71716C29.1361 5.71716 28.2923 6.47407 28.1844 7.47781C28.1185 8.09163 27.5461 7.84572 26.9741 8.417C26.6786 8.72158 26.5124 9.1323 26.5124 9.56652C26.5124 10.4678 27.2458 11.2012 28.1471 11.2012H33.4168C34.3212 11.2012 35.0572 10.4678 35.0572 9.56652C35.0572 8.43816 33.9569 7.66321 32.877 8.01336Z" fill="url(#paint0_linear_2667_1851)"/>
<path id="Vector_2" d="M27.0961 6.97342C27.4224 5.57226 28.6727 4.55777 30.1472 4.55777C31.5665 4.55777 32.7649 5.47687 33.1544 6.77867C33.6071 6.73632 34.1722 6.82212 34.6119 7.03144C35.207 5.95489 34.4257 4.60419 33.1731 4.60419C32.9931 4.60419 32.8148 4.63306 32.6432 4.69024C32.4754 4.74572 32.2905 4.72223 32.1431 4.6257C31.995 4.5289 31.8993 4.3701 31.8829 4.19375C31.7875 3.1685 30.9367 2.39546 29.9038 2.39546C28.8972 2.39546 28.0531 3.1535 27.9404 4.15837C27.9133 4.40067 27.7375 4.60023 27.5003 4.65741C26.3488 4.93527 25.9053 6.32163 26.6013 7.2327C26.7575 7.12995 26.9234 7.04305 27.0961 6.97342ZM11.8293 10.6843C12.3576 10.156 12.7469 9.54422 13.0003 8.88918C11.1372 9.62146 8.93725 9.23214 7.42941 7.72431C5.92162 6.21651 5.5323 4.01659 6.26458 2.15344C5.60954 2.40682 4.99774 2.7961 4.4694 3.32443C2.43939 5.35444 2.43631 8.65126 4.4694 10.6844C6.50249 12.7174 9.79928 12.7143 11.8293 10.6843Z" fill="url(#paint1_linear_2667_1851)"/>
<path id="Vector_3" d="M7.69393 29.633V28.884H8.44291V27.7246H7.69393V26.9762H6.53451V27.7246H5.78552V28.884H6.53451V29.633H7.69393Z" fill="url(#paint2_linear_2667_1851)"/>
<path id="Vector_4" d="M8.44291 18.4864H7.69393V17.7374H6.53451V18.4864H5.78552V19.6458H6.53451V20.3948H7.69393V19.6458H8.44291V18.4864Z" fill="url(#paint3_linear_2667_1851)"/>
<path id="Vector_5" d="M29.2052 16.7229V15.9744H29.9542V14.815H29.2052V14.066H28.0458V14.815H27.2968V15.9744H28.0458V16.7229H29.2052Z" fill="url(#paint4_linear_2667_1851)"/>
<path id="Vector_6" d="M34.8881 24.9908V24.2418H35.6371V23.0824H34.8881V22.3334H33.7287V23.0824H32.9803V24.2418H33.7287V24.9908H34.8881Z" fill="url(#paint5_linear_2667_1851)"/>
</g>
<defs>
<linearGradient id="paint0_linear_2667_1851" x1="61.4288" y1="21.7818" x2="5.02004" y2="10.2563" gradientUnits="userSpaceOnUse">
<stop stop-color="#B2E958"/>
<stop offset="1" stop-color="#449329"/>
</linearGradient>
<linearGradient id="paint1_linear_2667_1851" x1="55.6149" y1="7.18072" x2="16.5895" y2="-15.4122" gradientUnits="userSpaceOnUse">
<stop stop-color="#B2E958"/>
<stop offset="1" stop-color="#449329"/>
</linearGradient>
<linearGradient id="paint2_linear_2667_1851" x1="10.1773" y1="28.3046" x2="5.97288" y2="27.5365" gradientUnits="userSpaceOnUse">
<stop stop-color="#B2E958"/>
<stop offset="1" stop-color="#449329"/>
</linearGradient>
<linearGradient id="paint3_linear_2667_1851" x1="10.1773" y1="19.0661" x2="5.97282" y2="18.2982" gradientUnits="userSpaceOnUse">
<stop stop-color="#B2E958"/>
<stop offset="1" stop-color="#449329"/>
</linearGradient>
<linearGradient id="paint4_linear_2667_1851" x1="31.6886" y1="15.3944" x2="27.4842" y2="14.6264" gradientUnits="userSpaceOnUse">
<stop stop-color="#B2E958"/>
<stop offset="1" stop-color="#449329"/>
</linearGradient>
<linearGradient id="paint5_linear_2667_1851" x1="37.3711" y1="23.6621" x2="33.1675" y2="22.8945" gradientUnits="userSpaceOnUse">
<stop stop-color="#B2E958"/>
<stop offset="1" stop-color="#449329"/>
</linearGradient>
</defs>
</svg>
