<svg width="25" height="25" viewBox="0 0 25 25" fill="none" xmlns="http://www.w3.org/2000/svg">
<path d="M20.1172 7.81257C20.1197 7.73101 20.1008 7.65023 20.0625 7.57819C20.0625 7.57819 20.0625 7.57819 20.0625 7.52351C20.033 7.47159 19.9962 7.42422 19.9531 7.38288L14.4844 2.69538L14.3906 2.64069L14.3203 2.59382C14.2382 2.56162 14.1507 2.5457 14.0625 2.54694H5.46875C5.31469 2.54693 5.16683 2.60759 5.05717 2.71579C4.9475 2.82399 4.88487 2.97103 4.88281 3.12507V21.8751C4.88281 22.0305 4.94454 22.1795 5.05443 22.2894C5.16431 22.3993 5.31335 22.461 5.46875 22.461H19.5312C19.686 22.459 19.8339 22.3966 19.9433 22.2872C20.0528 22.1777 20.1152 22.0298 20.1172 21.8751V7.81257ZM14.6484 4.39069L17.9688 7.24226H14.6484V4.39069ZM6.05469 21.2657V3.71882H13.4766V7.81257C13.4784 7.96758 13.5399 8.11591 13.6484 8.22663C13.7582 8.33655 13.9072 8.39837 14.0625 8.39851H18.9453V21.2813L6.05469 21.2657Z" fill="url(#paint0_linear_4160_806)"/>
<path d="M7.85938 7.67969H10.8516C11.007 7.67969 11.156 7.61795 11.2659 7.50807C11.3758 7.39819 11.4375 7.24915 11.4375 7.09375C11.4375 6.93835 11.3758 6.78931 11.2659 6.67943C11.156 6.56955 11.007 6.50781 10.8516 6.50781H7.85938C7.70397 6.50781 7.55494 6.56955 7.44505 6.67943C7.33517 6.78931 7.27344 6.93835 7.27344 7.09375C7.27344 7.24915 7.33517 7.39819 7.44505 7.50807C7.55494 7.61795 7.70397 7.67969 7.85938 7.67969ZM17.1406 9.61719H7.85938C7.70397 9.61719 7.55494 9.67892 7.44505 9.7888C7.33517 9.89869 7.27344 10.0477 7.27344 10.2031C7.27344 10.3585 7.33517 10.5076 7.44505 10.6174C7.55494 10.7273 7.70397 10.7891 7.85938 10.7891H17.1406C17.296 10.7891 17.4451 10.7273 17.5549 10.6174C17.6648 10.5076 17.7266 10.3585 17.7266 10.2031C17.7266 10.0477 17.6648 9.89869 17.5549 9.7888C17.4451 9.67892 17.296 9.61719 17.1406 9.61719ZM17.1406 12.7031H7.85938C7.70397 12.7031 7.55494 12.7649 7.44505 12.8747C7.33517 12.9846 7.27344 13.1337 7.27344 13.2891C7.27344 13.4445 7.33517 13.5935 7.44505 13.7034C7.55494 13.8133 7.70397 13.875 7.85938 13.875H17.1406C17.296 13.875 17.4451 13.8133 17.5549 13.7034C17.6648 13.5935 17.7266 13.4445 17.7266 13.2891C17.7266 13.1337 17.6648 12.9846 17.5549 12.8747C17.4451 12.7649 17.296 12.7031 17.1406 12.7031ZM17.1406 15.8047H7.85938C7.70397 15.8047 7.55494 15.8664 7.44505 15.9763C7.33517 16.0862 7.27344 16.2352 7.27344 16.3906C7.27344 16.546 7.33517 16.6951 7.44505 16.8049C7.55494 16.9148 7.70397 16.9766 7.85938 16.9766H17.1406C17.296 16.9766 17.4451 16.9148 17.5549 16.8049C17.6648 16.6951 17.7266 16.546 17.7266 16.3906C17.7266 16.2352 17.6648 16.0862 17.5549 15.9763C17.4451 15.8664 17.296 15.8047 17.1406 15.8047ZM17.1406 18.75H7.85938C7.70397 18.75 7.55494 18.8117 7.44505 18.9216C7.33517 19.0315 7.27344 19.1805 7.27344 19.3359C7.27344 19.4913 7.33517 19.6404 7.44505 19.7503C7.55494 19.8601 7.70397 19.9219 7.85938 19.9219H17.1406C17.296 19.9219 17.4451 19.8601 17.5549 19.7503C17.6648 19.6404 17.7266 19.4913 17.7266 19.3359C17.7266 19.1805 17.6648 19.0315 17.5549 18.9216C17.4451 18.8117 17.296 18.75 17.1406 18.75Z" fill="url(#paint1_linear_4160_806)"/>
<defs>
<linearGradient id="paint0_linear_4160_806" x1="30.0603" y1="12.5039" x2="5.62943" y2="9.09027" gradientUnits="userSpaceOnUse">
<stop stop-color="#B2E958"/>
<stop offset="1" stop-color="#449329"/>
</linearGradient>
<linearGradient id="paint1_linear_4160_806" x1="24.5488" y1="13.2148" x2="7.79779" y2="10.8307" gradientUnits="userSpaceOnUse">
<stop stop-color="#B2E958"/>
<stop offset="1" stop-color="#449329"/>
</linearGradient>
</defs>
</svg>
