<svg width="20" height="20" viewBox="0 0 20 20" fill="none" xmlns="http://www.w3.org/2000/svg">
<path id="Vector" d="M15.9101 13.5V8.5C15.9101 5.43 14.2701 2.86 11.4101 2.18V1.5C11.4101 0.67 10.7301 0 9.90013 0C9.07013 0 8.41013 0.67 8.41013 1.5V2.18C5.54013 2.86 3.91013 5.42 3.91013 8.5V13.5L2.61013 14.79C1.98013 15.42 2.42013 16.5 3.31013 16.5H16.4801C17.3701 16.5 17.8201 15.42 17.1901 14.79L15.9101 13.5ZM9.90013 19.5C11.0001 19.5 11.9001 18.6 11.9001 17.5H7.90013C7.90013 18.6 8.79013 19.5 9.90013 19.5ZM4.68013 2.23C5.10013 1.85 5.11013 1.2 4.71013 0.8C4.33013 0.42 3.71013 0.41 3.32013 0.78C1.61013 2.34 0.430133 4.46 0.0501334 6.84C-0.0398666 7.45 0.430133 8 1.05013 8C1.53013 8 1.95013 7.65 2.03013 7.17C2.33013 5.23 3.29013 3.5 4.68013 2.23ZM16.5101 0.78C16.1101 0.41 15.4901 0.42 15.1101 0.8C14.7101 1.2 14.7301 1.84 15.1401 2.22C16.5201 3.49 17.4901 5.22 17.7901 7.16C17.8601 7.64 18.2801 7.99 18.7701 7.99C19.3801 7.99 19.8601 7.44 19.7601 6.83C19.3801 4.46 18.2101 2.35 16.5101 0.78Z" fill="url(#paint0_linear_52_8319)"/>
<defs>
<linearGradient id="paint0_linear_52_8319" x1="32.6531" y1="9.75" x2="1.45429" y2="3.98317" gradientUnits="userSpaceOnUse">
<stop stop-color="#B2E958"/>
<stop offset="1" stop-color="#449329"/>
</linearGradient>
</defs>
</svg>
