<svg width="21" height="25" viewBox="0 0 21 25" fill="none" xmlns="http://www.w3.org/2000/svg">
<g id="Notification Icon">
<path id="Vector" d="M13.3158 21.24C13.3158 22.804 12.0989 24 10.5076 24C8.91624 24 7.69935 22.804 7.69935 21.24M19.8682 17.1L18.9322 15.72C17.4344 13.512 16.6856 10.844 16.6856 8.176C16.6856 5.324 14.8135 2.932 12.2861 2.196C12.0053 1.46 11.2564 1 10.5076 1C9.7587 1 9.00985 1.46 8.72903 2.196C6.20165 2.932 4.32952 5.324 4.32952 8.176C4.32952 10.844 3.58066 13.512 2.08296 15.72L1.14689 17.1C0.772463 17.744 1.14689 18.48 1.89574 18.48H19.0258C19.7746 18.48 20.2426 17.652 19.8682 17.1Z" stroke="#C5C5C5" stroke-width="2" stroke-miterlimit="10" stroke-linejoin="round"/>
</g>
</svg>
