<svg width="18" height="19" viewBox="0 0 18 19" fill="none" xmlns="http://www.w3.org/2000/svg">
<path d="M15.4339 9.00783L3.55814 2.35627C3.4581 2.30101 3.34361 2.27753 3.2299 2.28895C3.11619 2.30038 3.00865 2.34617 2.92161 2.42023C2.83457 2.49429 2.77216 2.5931 2.74267 2.70352C2.71319 2.81394 2.71804 2.93071 2.75657 3.0383L4.99251 9.31018C5.04177 9.43195 5.04177 9.5681 4.99251 9.68987L2.75657 15.9617C2.71804 16.0693 2.71319 16.1861 2.74267 16.2965C2.77216 16.4069 2.83457 16.5058 2.92161 16.5798C3.00865 16.6539 3.11619 16.6997 3.2299 16.7111C3.34361 16.7225 3.4581 16.699 3.55814 16.6438L15.4339 9.99221C15.5218 9.94356 15.5951 9.87226 15.6462 9.7857C15.6972 9.69915 15.7241 9.6005 15.7241 9.50002C15.7241 9.39954 15.6972 9.3009 15.6462 9.21434C15.5951 9.12779 15.5218 9.05648 15.4339 9.00783Z" fill="#2A3532"/>
</svg>
