<svg width="24" height="24" viewBox="0 0 24 24" fill="none" xmlns="http://www.w3.org/2000/svg">
<path d="M14.9994 7.5001L7.19006 15.4407C6.93152 15.7261 6.79261 16.0999 6.80208 16.4848C6.81156 16.8697 6.9687 17.2363 7.24097 17.5086C7.51324 17.7808 7.87978 17.938 8.26471 17.9474C8.64964 17.9569 9.02347 17.818 9.30881 17.5595L18.6182 8.11885C19.1353 7.54817 19.4131 6.80051 19.3941 6.03065C19.3752 5.26079 19.0609 4.52771 18.5164 3.98317C17.9718 3.43864 17.2387 3.12436 16.4689 3.1054C15.699 3.08645 14.9514 3.36427 14.3807 3.88135L5.07131 13.322C4.22841 14.1649 3.75488 15.3081 3.75488 16.5001C3.75488 17.6921 4.22841 18.8353 5.07131 19.6782C5.9142 20.5211 7.0574 20.9946 8.24943 20.9946C9.44146 20.9946 10.5847 20.5211 11.4276 19.6782L19.1244 12.0001" stroke="white" stroke-width="1.5" stroke-linecap="round" stroke-linejoin="round"/>
</svg>
