<svg width="18" height="9" viewBox="0 0 18 9" fill="none" xmlns="http://www.w3.org/2000/svg">
<g id="View Password Icon">
<path id="Vector" fill-rule="evenodd" clip-rule="evenodd" d="M11.9999 4.50677C12.0037 4.01166 11.8596 3.52669 11.5862 3.11393C11.3127 2.70116 10.9223 2.37937 10.465 2.18973C10.0076 2.00009 9.50405 1.95123 9.01875 2.04939C8.53346 2.14756 8.08849 2.38829 7.74079 2.74079C7.38829 3.08849 7.14756 3.53346 7.04939 4.01875C6.95123 4.50405 7.00009 5.0076 7.18973 5.46497C7.37937 5.92233 7.70116 6.31272 8.11393 6.58616C8.52669 6.8596 9.01166 7.00367 9.50677 6.99993C9.83437 7.00061 10.1589 6.93659 10.4617 6.81154C10.7645 6.68649 11.0396 6.50287 11.2712 6.27123C11.5029 6.03958 11.6865 5.76447 11.8115 5.46167C11.9366 5.15888 12.0006 4.83437 11.9999 4.50677Z" fill="#808080" fill-opacity="0.8"/>
<path id="Vector_2" fill-rule="evenodd" clip-rule="evenodd" d="M15.3272 1.86435C13.4428 0.632145 11.2436 -0.015783 9 0.000292014C6.76132 0.000292014 4.52643 0.622918 2.67282 1.86435C1.62348 2.56185 0.716143 3.45657 0 4.5C0.732383 5.56954 1.64597 6.44809 2.67282 7.13565C4.55717 8.36786 6.75643 9.01578 9 8.99971C11.2387 8.99971 13.4736 8.37708 15.3272 7.13565C16.3765 6.43815 17.2839 5.54343 18 4.5C17.2839 3.45657 16.3765 2.56185 15.3272 1.86435ZM5.66653 4.5C5.66503 4.05664 5.75023 3.61737 5.91722 3.20747C6.08422 2.79757 6.3297 2.42515 6.63954 2.11164C6.94938 1.79814 7.31746 1.54976 7.72257 1.38079C8.12768 1.21182 8.56182 1.12562 9 1.12713C9.43818 1.12562 9.87232 1.21182 10.2774 1.38079C10.6825 1.54976 11.0506 1.79814 11.3605 2.11164C11.6703 2.42515 11.9158 2.79757 12.0828 3.20747C12.2498 3.61737 12.335 4.05664 12.3335 4.5C12.335 4.94336 12.2498 5.38263 12.0828 5.79253C11.9158 6.20243 11.6703 6.57485 11.3605 6.88836C11.0506 7.20186 10.6825 7.45024 10.2774 7.61921C9.87232 7.78818 9.43818 7.87439 9 7.87287C8.56182 7.87439 8.12768 7.78818 7.72257 7.61921C7.31746 7.45024 6.94938 7.20186 6.63954 6.88836C6.3297 6.57485 6.08422 6.20243 5.91722 5.79253C5.75023 5.38263 5.66503 4.94336 5.66653 4.5Z" fill="#808080" fill-opacity="0.8"/>
<ellipse id="Ellipse 25" cx="10.5" cy="3.5" rx="0.5" ry="1.5" fill="white"/>
</g>
</svg>
