<svg width="24" height="24" viewBox="0 0 24 24" fill="none" xmlns="http://www.w3.org/2000/svg">
<g id="Time">
<path id="Vector" d="M8.00507 1.00136C7.86862 0.992971 7.7319 1.01259 7.60332 1.05904C7.47474 1.10548 7.35703 1.17773 7.25744 1.27138C7.15785 1.36503 7.07849 1.47808 7.02424 1.60357C6.96999 1.72905 6.942 1.86433 6.942 2.00103C6.942 2.13774 6.96999 2.27302 7.02424 2.3985C7.07849 2.52399 7.15785 2.63704 7.25744 2.73069C7.35703 2.82434 7.47474 2.89659 7.60332 2.94303C7.7319 2.98948 7.86862 3.0091 8.00507 3.0007H10.9985V5.0606C8.80199 5.31075 6.77392 6.3589 5.29953 8.00609C3.82514 9.65328 3.00716 11.7847 3.00098 13.9953C3.00696 16.3812 3.9574 18.6677 5.64446 20.3547C7.33152 22.0418 9.61795 22.9921 12.0038 22.9981C16.9626 22.9981 20.9991 18.9541 20.9991 13.9953C20.9947 11.7838 20.1774 9.65101 18.7027 8.00286C17.2281 6.3547 15.199 5.30622 13.0016 5.05679V3.0007H15.995C16.2606 3.0007 16.5154 2.89522 16.7032 2.70739C16.891 2.51956 16.9966 2.26471 16.9966 1.99907C16.9966 1.73344 16.891 1.47871 16.7032 1.29087C16.5154 1.10304 16.2606 0.997559 15.995 0.997559L8.00507 1.00136ZM12.0038 6.9995C15.8816 6.9995 18.9997 10.1213 18.9997 13.9953C19.0022 14.9148 18.8231 15.8257 18.4728 16.6758C18.1224 17.5259 17.6076 18.2984 16.958 18.949C16.3084 19.5997 15.5367 20.1158 14.6872 20.4675C13.8377 20.8193 12.927 20.9998 12.0076 20.9988C11.0871 21.0008 10.1754 20.821 9.32455 20.4698C8.47374 20.1186 7.70065 19.6028 7.04962 18.9522C6.39859 18.3015 5.88244 17.5287 5.53077 16.6781C5.17911 15.8275 4.99885 14.9158 5.00035 13.9953C5.00035 10.1213 8.1298 6.9995 12.0038 6.9995ZM11.9887 8.98373C11.8572 8.98521 11.7272 9.01253 11.6063 9.06423C11.4853 9.11594 11.3757 9.19094 11.2838 9.285C11.1918 9.37906 11.1193 9.49037 11.0703 9.61245C11.0214 9.73454 10.997 9.86513 10.9985 9.99666V15.0007C11.0005 15.2656 11.1074 15.5191 11.2958 15.7054C11.4842 15.8917 11.7388 15.9957 12.0038 15.9947H15.001C15.1374 16.0031 15.2742 15.9834 15.4027 15.937C15.5313 15.8906 15.649 15.8183 15.7486 15.7247C15.8482 15.631 15.9276 15.518 15.9818 15.3925C16.0361 15.267 16.064 15.1317 16.064 14.995C16.064 14.8583 16.0361 14.723 15.9818 14.5975C15.9276 14.4721 15.8482 14.359 15.7486 14.2654C15.649 14.1717 15.5313 14.0995 15.4027 14.053C15.2742 14.0066 15.1374 13.9869 15.001 13.9953H12.9978V9.99666C12.9993 9.86354 12.9743 9.7314 12.9242 9.60807C12.874 9.48475 12.7998 9.37262 12.7059 9.27831C12.6119 9.184 12.5001 9.10941 12.3769 9.05881C12.2538 9.00822 12.1218 8.98271 11.9887 8.98373Z" fill="white"/>
</g>
</svg>
