<svg width="34" height="34" viewBox="0 0 34 34" fill="none" xmlns="http://www.w3.org/2000/svg">
<path d="M17 0C7.65 0 0 7.65 0 17C0 26.35 7.65 34 17 34C26.35 34 34 26.35 34 17C34 7.65 26.35 0 17 0ZM23.8 18.7H18.7V23.8C18.7 24.82 18.02 25.5 17 25.5C15.98 25.5 15.3 24.82 15.3 23.8V18.7H10.2C9.18 18.7 8.5 18.02 8.5 17C8.5 15.98 9.18 15.3 10.2 15.3H15.3V10.2C15.3 9.18 15.98 8.5 17 8.5C18.02 8.5 18.7 9.18 18.7 10.2V15.3H23.8C24.82 15.3 25.5 15.98 25.5 17C25.5 18.02 24.82 18.7 23.8 18.7Z" fill="white"/>
</svg>
