<svg width="19" height="19" viewBox="0 0 19 19" fill="none" xmlns="http://www.w3.org/2000/svg">
<path id="Vector" d="M2.37289 0C1.93755 0 1.58122 0.356329 1.58122 0.791667V3.16667H3.16457V0.791667C3.16457 0.356329 2.80831 0 2.37289 0ZM2.37289 19C2.80831 19 3.16457 18.6436 3.16457 18.2083V9.5H1.58122V18.2083C1.58122 18.6436 1.93755 19 2.37289 19ZM4.75006 7.91667V4.75C4.75006 4.31276 4.39562 3.95833 3.95838 3.95833H0.791677C0.354426 3.95833 0 4.31276 0 4.75V7.91667C0 8.35383 0.354426 8.70833 0.791677 8.70833H3.95838C4.39563 8.70833 4.75006 8.35383 4.75006 7.91667ZM9.49798 0C9.06264 0 8.7063 0.356329 8.7063 0.791667V10.2917H10.2897V0.791667C10.2897 0.356329 9.9334 0 9.49798 0ZM9.49798 19C9.9334 19 10.2897 18.6436 10.2897 18.2083V16.625H8.7063V18.2083C8.7063 18.6436 9.06264 19 9.49798 19ZM11.875 15.0417V11.875C11.875 11.4378 11.5205 11.0833 11.0833 11.0833H7.91661C7.47936 11.0833 7.12493 11.4378 7.12493 11.875V15.0417C7.12493 15.4788 7.47936 15.8333 7.91661 15.8333H11.0833C11.5205 15.8333 11.875 15.4788 11.875 15.0417ZM15.8314 6.33333H17.4147V0.791667C17.4147 0.356329 17.0585 0 16.6231 0C16.1877 0 15.8314 0.356329 15.8314 0.791667V6.33333ZM16.6231 19C17.0585 19 17.4147 18.6436 17.4147 18.2083V12.6667H15.8314V18.2083C15.8314 18.6436 16.1877 19 16.6231 19ZM19 11.0833V7.91667C19 7.47943 18.6456 7.125 18.2083 7.125H15.0416C14.6044 7.125 14.2499 7.47943 14.2499 7.91667V11.0833C14.2499 11.5205 14.6044 11.875 15.0416 11.875H18.2083C18.6456 11.875 19 11.5205 19 11.0833Z" fill="url(#paint0_linear_52_8314)"/>
<defs>
<linearGradient id="paint0_linear_52_8314" x1="31.4004" y1="9.5" x2="1.33912" y2="4.00939" gradientUnits="userSpaceOnUse">
<stop stop-color="#B2E958"/>
<stop offset="1" stop-color="#449329"/>
</linearGradient>
</defs>
</svg>
