<svg width="18" height="24" viewBox="0 0 18 24" fill="none" xmlns="http://www.w3.org/2000/svg">
<g id="Profile Icon">
<path id="Vector" d="M9.26348 12.3783C10.4101 12.3783 11.5309 12.0383 12.4843 11.4013C13.4376 10.7643 14.1807 9.85884 14.6195 8.79952C15.0583 7.7402 15.1731 6.57456 14.9494 5.44999C14.7257 4.32543 14.1736 3.29245 13.3628 2.48168C12.552 1.67092 11.519 1.11878 10.3945 0.895087C9.26991 0.671397 8.10427 0.786203 7.04495 1.22499C5.98564 1.66377 5.08022 2.40682 4.44321 3.36019C3.80619 4.31355 3.46619 5.43439 3.46619 6.58099C3.46772 8.11806 4.079 9.59173 5.16587 10.6786C6.25274 11.7655 7.72642 12.3768 9.26348 12.3783ZM9.26348 2.71613C10.0279 2.71613 10.7751 2.9428 11.4107 3.36747C12.0463 3.79215 12.5416 4.39576 12.8342 5.10197C13.1267 5.80818 13.2032 6.58528 13.0541 7.33499C12.905 8.0847 12.5369 8.77335 11.9964 9.31386C11.4558 9.85437 10.7672 10.2225 10.0175 10.3716C9.26777 10.5207 8.49067 10.4442 7.78446 10.1517C7.07825 9.85914 6.47464 9.36377 6.04997 8.72819C5.62529 8.09262 5.39862 7.34539 5.39862 6.58099C5.39862 5.55597 5.80581 4.57292 6.53061 3.84812C7.25541 3.12332 8.23846 2.71613 9.26348 2.71613Z" fill="#B8BDD5"/>
<path id="Vector_2" d="M9.26351 14.3108C6.95799 14.3133 4.74763 15.2303 3.11737 16.8606C1.48712 18.4909 0.570123 20.7012 0.567566 23.0067C0.567566 23.263 0.669363 23.5088 0.850564 23.69C1.03176 23.8712 1.27753 23.973 1.53378 23.973C1.79004 23.973 2.0358 23.8712 2.217 23.69C2.3982 23.5088 2.5 23.263 2.5 23.0067C2.5 21.2129 3.21258 19.4926 4.48098 18.2242C5.74939 16.9558 7.46972 16.2432 9.26351 16.2432C11.0573 16.2432 12.7776 16.9558 14.046 18.2242C15.3144 19.4926 16.027 21.2129 16.027 23.0067C16.027 23.263 16.1288 23.5088 16.31 23.69C16.4912 23.8712 16.737 23.973 16.9932 23.973C17.2495 23.973 17.4953 23.8712 17.6765 23.69C17.8577 23.5088 17.9595 23.263 17.9595 23.0067C17.9569 20.7012 17.0399 18.4909 15.4096 16.8606C13.7794 15.2303 11.569 14.3133 9.26351 14.3108Z" fill="#B8BDD5"/>
</g>
</svg>
