<svg width="24" height="24" viewBox="0 0 24 24" fill="none" xmlns="http://www.w3.org/2000/svg">
<path d="M9.75 18.375C9.75 16.9253 8.57475 15.75 7.125 15.75C5.67525 15.75 4.5 16.9253 4.5 18.375C4.5 19.8247 5.67525 21 7.125 21C8.57475 21 9.75 19.8247 9.75 18.375Z" stroke="white" stroke-width="1.5" stroke-linecap="round" stroke-linejoin="round"/>
<path d="M19.5 18.375C19.5 16.9253 18.3247 15.75 16.875 15.75C15.4253 15.75 14.25 16.9253 14.25 18.375C14.25 19.8247 15.4253 21 16.875 21C18.3247 21 19.5 19.8247 19.5 18.375Z" stroke="white" stroke-width="1.5" stroke-linecap="round" stroke-linejoin="round"/>
<path d="M12 11.2496L15.3937 16.209" stroke="white" stroke-width="1.5" stroke-linecap="round" stroke-linejoin="round"/>
<path d="M5.84082 2.25078L10.1814 8.59766" stroke="white" stroke-width="1.5" stroke-linecap="round" stroke-linejoin="round"/>
<path d="M18.1596 2.24961L8.60645 16.209" stroke="white" stroke-width="1.5" stroke-linecap="round" stroke-linejoin="round"/>
</svg>
