<svg width="12" height="12" viewBox="0 0 12 12" fill="none" xmlns="http://www.w3.org/2000/svg">
<path d="M11.8029 10.8565L9.53693 8.59723C10.268 7.66583 10.6647 6.51567 10.6632 5.33162C10.6632 4.27712 10.3505 3.24631 9.76469 2.36953C9.17885 1.49275 8.34616 0.809385 7.37194 0.405847C6.39771 0.0023101 5.3257 -0.103274 4.29147 0.102448C3.25724 0.308169 2.30724 0.815957 1.5616 1.5616C0.815957 2.30724 0.308169 3.25724 0.102448 4.29147C-0.103274 5.3257 0.0023101 6.39771 0.405847 7.37194C0.809385 8.34616 1.49275 9.17885 2.36953 9.76469C3.24631 10.3505 4.27712 10.6632 5.33162 10.6632C6.51567 10.6647 7.66583 10.268 8.59723 9.53693L10.8565 11.8029C10.9185 11.8653 10.9922 11.9149 11.0734 11.9487C11.1546 11.9826 11.2417 12 11.3297 12C11.4177 12 11.5048 11.9826 11.586 11.9487C11.6672 11.9149 11.7409 11.8653 11.8029 11.8029C11.8653 11.7409 11.9149 11.6672 11.9487 11.586C11.9826 11.5048 12 11.4177 12 11.3297C12 11.2417 11.9826 11.1546 11.9487 11.0734C11.9149 10.9922 11.8653 10.9185 11.8029 10.8565ZM1.33291 5.33162C1.33291 4.54075 1.56743 3.76764 2.00681 3.11005C2.44619 2.45247 3.07071 1.93994 3.80138 1.63729C4.53205 1.33464 5.33605 1.25545 6.11173 1.40974C6.8874 1.56403 7.5999 1.94487 8.15913 2.5041C8.71836 3.06333 9.0992 3.77583 9.2535 4.55151C9.40779 5.32718 9.3286 6.13119 9.02595 6.86186C8.72329 7.59253 8.21077 8.21704 7.55318 8.65642C6.8956 9.09581 6.12249 9.33033 5.33162 9.33033C4.27109 9.33033 3.25401 8.90904 2.5041 8.15913C1.7542 7.40923 1.33291 6.39214 1.33291 5.33162Z" fill="black"/>
</svg>
