<svg width="18" height="18" viewBox="0 0 18 18" fill="none" xmlns="http://www.w3.org/2000/svg">
<path d="M2.03602 11.8666C3.23223 13.0645 4.8252 13.7836 6.51485 13.8884C8.20449 13.9933 9.87415 13.4767 11.2093 12.4358L15.8033 17.0298C15.9662 17.1872 16.1844 17.2743 16.4109 17.2723C16.6374 17.2703 16.8541 17.1795 17.0142 17.0193C17.1744 16.8591 17.2653 16.6425 17.2672 16.416C17.2692 16.1895 17.1821 15.9713 17.0248 15.8083L12.4308 11.2144C13.5178 9.81937 14.0317 8.06227 13.8677 6.30141C13.7037 4.54055 12.8742 2.90855 11.5483 1.73826C10.2225 0.56797 8.5001 -0.0524683 6.73251 0.00347987C4.96491 0.0594281 3.28523 0.787548 2.03602 2.03935C1.39054 2.68449 0.878504 3.4505 0.529157 4.29359C0.17981 5.13668 0 6.04035 0 6.95296C0 7.86556 0.17981 8.76923 0.529157 9.61232C0.878504 10.4554 1.39054 11.2214 2.03602 11.8666ZM3.25751 3.26257C4.11149 2.4086 5.23515 1.87715 6.43704 1.75876C7.63892 1.64038 8.84468 1.94238 9.84887 2.61331C10.8531 3.28425 11.5935 4.2826 11.9442 5.43829C12.2948 6.59397 12.2339 7.83547 11.7718 8.95128C11.3097 10.0671 10.475 10.9882 9.41 11.5576C8.34495 12.127 7.11542 12.3095 5.9309 12.074C4.74638 11.8385 3.68014 11.1996 2.91386 10.2661C2.14758 9.33267 1.72867 8.16239 1.72848 6.95468C1.72611 6.26842 1.86005 5.58851 2.12253 4.95441C2.38501 4.32032 2.77079 3.74466 3.25751 3.26084V3.26257Z" fill="white"/>
<path d="M10.3662 4.7512C11.3838 6.43545 11.1541 8.93859 10.6481 9.24432C10.142 9.55006 9.65608 7.29931 8.63854 5.61505C7.62101 3.9308 6.4572 3.45084 6.96326 3.14511C7.46932 2.83937 9.3487 3.06694 10.3662 4.7512Z" fill="white"/>
</svg>
