<svg width="20" height="21" viewBox="0 0 20 21" fill="none" xmlns="http://www.w3.org/2000/svg">
<path fill-rule="evenodd" clip-rule="evenodd" d="M18.1041 8.72793L2.71637 1.00396C2.06811 0.678529 1.33574 0.821689 0.805109 1.37739C0.274482 1.93317 0.0525466 2.78952 0.225983 3.61221L1.59563 10.1097H8.30161C8.61018 10.1097 8.86039 10.4123 8.86039 10.7857C8.86039 11.159 8.61022 11.4616 8.30161 11.4616H1.59563L0.225983 17.9591C0.0525466 18.7818 0.274445 19.6382 0.805109 20.1939C1.33682 20.7507 2.06926 20.8921 2.71641 20.5673L18.1042 12.8434C18.8048 12.4917 19.24 11.7032 19.24 10.7857C19.24 9.86808 18.8048 9.07955 18.1041 8.72793Z" fill="url(#paint0_linear_60_1755)"/>
<defs>
<linearGradient id="paint0_linear_60_1755" x1="31.6874" y1="10.7856" x2="1.43193" y2="5.49142" gradientUnits="userSpaceOnUse">
<stop stop-color="#B2E958"/>
<stop offset="1" stop-color="#449329"/>
</linearGradient>
</defs>
</svg>
