<svg width="19" height="19" viewBox="0 0 19 19" fill="none" xmlns="http://www.w3.org/2000/svg">
<path id="Vector" d="M15.2012 11.4123C14.6401 11.416 14.0868 11.5438 13.5811 11.7865C13.0753 12.0292 12.6297 12.3808 12.2762 12.816L7.43276 10.5871C7.66048 9.89069 7.66048 9.13998 7.43276 8.44357L12.2762 6.21467C12.8475 6.90323 13.6441 7.36808 14.5252 7.5272C15.4063 7.68631 16.3154 7.52946 17.092 7.08433C17.8686 6.63919 18.4628 5.93438 18.7697 5.09429C19.0767 4.2542 19.0766 3.33284 18.7695 2.4928C18.4624 1.65277 17.8681 0.948072 17.0914 0.503075C16.3147 0.0580788 15.4056 -0.0986078 14.5245 0.0606684C13.6434 0.219945 12.847 0.684944 12.2757 1.3736C11.7045 2.06226 11.3952 2.9303 11.4025 3.82454C11.4053 4.05049 11.4276 4.27579 11.4689 4.49795L6.45458 6.80272C5.91997 6.28067 5.243 5.92778 4.50847 5.78827C3.77394 5.64876 3.01453 5.72884 2.32536 6.01847C1.6362 6.3081 1.04795 6.79439 0.634297 7.41644C0.220647 8.03848 0 8.76861 0 9.51534C0 10.2621 0.220647 10.9922 0.634297 11.6142C1.04795 12.2363 1.6362 12.7226 2.32536 13.0122C3.01453 13.3018 3.77394 13.3819 4.50847 13.2424C5.243 13.1029 5.91997 12.75 6.45458 12.2279L11.4689 14.5327C11.4276 14.7549 11.4053 14.9802 11.4025 15.2061C11.4025 15.9565 11.6253 16.69 12.0427 17.3139C12.4601 17.9378 13.0534 18.4241 13.7475 18.7112C14.4416 18.9984 15.2054 19.0735 15.9423 18.9271C16.6792 18.7807 17.3561 18.4194 17.8874 17.8888C18.4186 17.3582 18.7804 16.6822 18.927 15.9463C19.0736 15.2103 18.9984 14.4475 18.7108 13.7543C18.4233 13.061 17.9364 12.4685 17.3117 12.0517C16.687 11.6348 15.9526 11.4123 15.2012 11.4123ZM15.2012 1.92761C15.5769 1.92761 15.9441 2.03886 16.2565 2.2473C16.5688 2.45574 16.8123 2.752 16.956 3.09861C17.0998 3.44523 17.1374 3.82664 17.0641 4.19461C16.9908 4.56258 16.8099 4.90058 16.5443 5.16587C16.2787 5.43116 15.9402 5.61183 15.5718 5.68502C15.2033 5.75822 14.8214 5.72065 14.4744 5.57708C14.1273 5.4335 13.8307 5.19037 13.622 4.87842C13.4132 4.56647 13.3019 4.19972 13.3019 3.82454C13.3019 3.32144 13.502 2.83895 13.8582 2.48321C14.2144 2.12746 14.6975 1.92761 15.2012 1.92761ZM3.80494 11.4123C3.42927 11.4123 3.06205 11.301 2.7497 11.0926C2.43734 10.8841 2.1939 10.5879 2.05014 10.2413C1.90638 9.89464 1.86876 9.51323 1.94205 9.14526C2.01534 8.77729 2.19624 8.43929 2.46187 8.174C2.7275 7.90871 3.06594 7.72805 3.43439 7.65485C3.80283 7.58166 4.18473 7.61922 4.5318 7.7628C4.87887 7.90637 5.17551 8.14951 5.38422 8.46146C5.59292 8.77341 5.70432 9.14016 5.70432 9.51534C5.70432 10.0184 5.50421 10.5009 5.148 10.8567C4.7918 11.2124 4.30868 11.4123 3.80494 11.4123ZM15.2012 17.1031C14.8256 17.1031 14.4583 16.9918 14.146 16.7834C13.8336 16.5749 13.5902 16.2787 13.4464 15.9321C13.3027 15.5854 13.2651 15.204 13.3383 14.8361C13.4116 14.4681 13.5925 14.1301 13.8582 13.8648C14.1238 13.5995 14.4622 13.4188 14.8307 13.3456C15.1991 13.2725 15.581 13.31 15.9281 13.4536C16.2752 13.5972 16.5718 13.8403 16.7805 14.1523C16.9892 14.4642 17.1006 14.831 17.1006 15.2061C17.1006 15.7092 16.9005 16.1917 16.5443 16.5475C16.1881 16.9032 15.705 17.1031 15.2012 17.1031Z" fill="url(#paint0_linear_52_8316)"/>
<defs>
<linearGradient id="paint0_linear_52_8316" x1="31.4004" y1="9.5" x2="1.33912" y2="4.00939" gradientUnits="userSpaceOnUse">
<stop stop-color="#B2E958"/>
<stop offset="1" stop-color="#449329"/>
</linearGradient>
</defs>
</svg>
