<svg width="32" height="32" viewBox="0 0 32 32" fill="none" xmlns="http://www.w3.org/2000/svg">
<g id="Slider Icon">
<path id="Vector" d="M32 16C32 7.14894 24.8511 0 16 0C7.14894 0 0 7.14894 0 16C0 24.8511 7.14894 32 16 32C24.8511 32 32 24.8511 32 16ZM11.7106 24.9191C11.3021 24.5106 11.0979 23.966 11.0979 23.4894C11.0979 23.0128 11.3021 22.4681 11.7106 22.0596L17.7021 16.0681L11.7106 10.0766C10.8936 9.25957 10.8936 7.96596 11.7106 7.21702C12.5277 6.4 13.8213 6.4 14.5702 7.21702L21.9915 14.6383C22.7404 15.3872 22.7404 16.7489 21.9915 17.4979L14.6383 24.9191C13.8213 25.6681 12.5277 25.6681 11.7106 24.9191Z" fill="url(#paint0_linear_2667_785)"/>
</g>
<defs>
<linearGradient id="paint0_linear_2667_785" x1="40" y1="16" x2="1.3719" y2="23.2797" gradientUnits="userSpaceOnUse">
<stop stop-color="#B2E958"/>
<stop offset="0.921313" stop-color="#449329"/>
</linearGradient>
</defs>
</svg>
