<svg width="10" height="10" viewBox="0 0 10 10" fill="none" xmlns="http://www.w3.org/2000/svg">
<path d="M4.11555 0.676447C4.49076 -0.0346995 5.50924 -0.0347009 5.88445 0.676446L6.60444 2.04109C6.74913 2.31533 7.01286 2.50694 7.3184 2.55981L8.83874 2.82286C9.63102 2.95995 9.94575 3.92858 9.38536 4.50518L8.31 5.61163C8.09389 5.83399 7.99315 6.14402 8.03729 6.45094L8.25692 7.97816C8.37137 8.77403 7.5474 9.37268 6.82585 9.01789L5.44125 8.33707C5.16299 8.20025 4.83701 8.20025 4.55875 8.33707L3.17415 9.01789C2.4526 9.37268 1.62863 8.77403 1.74308 7.97816L1.96271 6.45094C2.00685 6.14402 1.90612 5.83399 1.69001 5.61163L0.614646 4.50518C0.0542502 3.92858 0.368978 2.95995 1.16126 2.82286L2.6816 2.55981C2.98714 2.50694 3.25087 2.31533 3.39556 2.04109L4.11555 0.676447Z" fill="#FF8800"/>
</svg>
