<svg width="36" height="36" viewBox="0 0 36 36" fill="none" xmlns="http://www.w3.org/2000/svg">
<g style="mix-blend-mode:multiply" opacity="0.7">
<circle cx="18" cy="18" r="18" fill="#171700"/>
</g>
<g clip-path="url(#clip0_2035_3779)">
<path d="M26 21.6357V11.4548C26 10.6549 25.3451 10 24.5452 10H14.3643C13.5644 10 12.9095 10.6549 12.9095 11.4548V21.6357C12.9095 22.4356 13.5644 23.0905 14.3643 23.0905H24.5452C25.3451 23.0905 26 22.4356 26 21.6357ZM16.9089 17.6363L18.7262 19.8184L21.2709 16.5464L24.543 20.9106H14.3643L16.9089 17.6363ZM10 13.6369V24.5452C10 25.3451 10.6549 26 11.4548 26H22.3631C22.7642 26 23.0905 25.6737 23.0905 25.2726C23.0905 24.8715 22.7642 24.5452 22.3631 24.5452H12.198C11.7878 24.5452 11.4548 24.2122 11.4548 23.802V13.6369C11.4548 13.2358 11.1285 12.9095 10.7274 12.9095C10.3263 12.9095 10 13.2335 10 13.6369Z" fill="white"/>
</g>
<defs>
<clipPath id="clip0_2035_3779">
<rect width="16" height="16" fill="white" transform="translate(10 10)"/>
</clipPath>
</defs>
</svg>
