<svg width="25" height="26" viewBox="0 0 25 26" fill="none" xmlns="http://www.w3.org/2000/svg">
<g id="time">
<path id="Vector" d="M12.1021 2.9469C10.1187 2.9469 8.17982 3.54502 6.53066 4.66564C4.88149 5.78625 3.59613 7.37902 2.8371 9.24253C2.07808 11.106 1.87948 13.1566 2.26643 15.1349C2.65338 17.1132 3.60849 18.9304 5.01099 20.3566C6.41349 21.7829 8.20038 22.7542 10.1457 23.1477C12.091 23.5412 14.1074 23.3392 15.9398 22.5674C17.7723 21.7955 19.3385 20.4883 20.4405 18.8112C21.5424 17.1341 22.1306 15.1623 22.1306 13.1453C22.1276 10.4414 21.0701 7.84914 19.1901 5.93722C17.31 4.02529 14.7609 2.94987 12.1021 2.9469ZM13.105 21.2326V20.2841C13.105 20.0137 12.9993 19.7543 12.8113 19.563C12.6232 19.3718 12.3681 19.2643 12.1021 19.2643C11.8362 19.2643 11.5811 19.3718 11.393 19.563C11.205 19.7543 11.0993 20.0137 11.0993 20.2841V21.2326C9.33474 21.0038 7.69483 20.1856 6.43699 18.9065C5.17915 17.6273 4.3746 15.9596 4.14962 14.1651H5.08226C5.34823 14.1651 5.6033 14.0577 5.79137 13.8664C5.97944 13.6752 6.0851 13.4158 6.0851 13.1453C6.0851 12.8748 5.97944 12.6154 5.79137 12.4241C5.6033 12.2329 5.34823 12.1254 5.08226 12.1254H4.14962C4.3746 10.331 5.17915 8.66327 6.43699 7.38411C7.69483 6.10495 9.33474 5.28676 11.0993 5.05796V6.00641C11.0993 6.27689 11.205 6.53629 11.393 6.72755C11.5811 6.9188 11.8362 7.02625 12.1021 7.02625C12.3681 7.02625 12.6232 6.9188 12.8113 6.72755C12.9993 6.53629 13.105 6.27689 13.105 6.00641V5.05796C14.8696 5.28676 16.5095 6.10495 17.7673 7.38411C19.0251 8.66327 19.8297 10.331 20.0547 12.1254H19.122C18.8561 12.1254 18.601 12.2329 18.4129 12.4241C18.2248 12.6154 18.1192 12.8748 18.1192 13.1453C18.1192 13.4158 18.2248 13.6752 18.4129 13.8664C18.601 14.0577 18.8561 14.1651 19.122 14.1651H20.0547C19.8297 15.9596 19.0251 17.6273 17.7673 18.9065C16.5095 20.1856 14.8696 21.0038 13.105 21.2326Z" fill="url(#paint0_linear_3140_669)"/>
<path id="Vector_2" d="M13.1048 12.7231V9.06598C13.1048 8.7955 12.9991 8.5361 12.8111 8.34485C12.623 8.15359 12.3679 8.04614 12.102 8.04614C11.836 8.04614 11.5809 8.15359 11.3928 8.34485C11.2048 8.5361 11.0991 8.7955 11.0991 9.06598V13.1453C11.0992 13.4158 11.2049 13.6751 11.393 13.8664L14.4015 16.9259C14.5906 17.1116 14.8439 17.2144 15.1069 17.2121C15.3698 17.2098 15.6213 17.1025 15.8073 16.9134C15.9932 16.7244 16.0987 16.4686 16.101 16.2012C16.1032 15.9338 16.0022 15.6762 15.8195 15.4838L13.1048 12.7231Z" fill="url(#paint1_linear_3140_669)"/>
</g>
<defs>
<linearGradient id="paint0_linear_3140_669" x1="35.2207" y1="13.1453" x2="3.45344" y2="7.43979" gradientUnits="userSpaceOnUse">
<stop stop-color="#B2E958"/>
<stop offset="1" stop-color="#449329"/>
</linearGradient>
<linearGradient id="paint1_linear_3140_669" x1="19.3655" y1="12.6291" x2="11.2681" y2="11.8221" gradientUnits="userSpaceOnUse">
<stop stop-color="#B2E958"/>
<stop offset="1" stop-color="#449329"/>
</linearGradient>
</defs>
</svg>
