<svg width="39" height="23" viewBox="0 0 39 23" fill="none" xmlns="http://www.w3.org/2000/svg">
<g id="Group 754">
<path id="Vector" d="M18.8779 10.9367C18.3612 11.0475 17.8244 11.0414 17.3106 10.919L6.61233 8.3689L4.67087 16.4594C4.63882 16.5925 4.64273 16.7312 4.68223 16.8624C4.72173 16.9937 4.79552 17.1132 4.8967 17.2098C7.40779 19.6025 13.3805 20.4573 18.133 20.4573C22.8839 20.4573 28.8566 19.5816 31.3694 17.1857C31.4702 17.0849 31.5435 16.9619 31.5828 16.8277C31.6222 16.6935 31.6265 16.5522 31.5952 16.4161L29.7093 8.59225L18.8779 10.9367Z" fill="url(#paint0_linear_2667_1814)"/>
<path id="Vector_2" d="M36.6926 2.3225L18.4582 0.0138311C18.3025 -0.00559009 18.1446 -0.00455334 17.9891 0.0169099L1.41246 2.32557C1.03345 2.37877 0.685913 2.55205 0.428799 2.81602C0.171686 3.07999 0.0208215 3.41841 0.00179134 3.77388C-0.0346773 4.50649 0.489145 5.16215 1.25664 5.34069L17.8333 9.18847C18.0857 9.24487 18.3485 9.24802 18.6025 9.1977L36.8368 5.34993C37.2157 5.27037 37.5524 5.06941 37.7876 4.78231C38.0229 4.49522 38.1416 4.14036 38.1231 3.78003C38.1068 3.41984 37.9545 3.07644 37.693 2.80998C37.4315 2.54351 37.0773 2.37094 36.6926 2.3225ZM35.6399 6.92597C35.4201 6.92597 35.2093 7.00705 35.0539 7.15137C34.8984 7.29569 34.8111 7.49143 34.8111 7.69553V16.9302C34.8111 17.3534 35.1841 17.6997 35.6399 17.6997C36.0958 17.6997 36.4688 17.3534 36.4688 16.9302V7.69553C36.4688 7.49143 36.3814 7.29569 36.226 7.15137C36.0706 7.00705 35.8598 6.92597 35.6399 6.92597ZM35.6399 19.2389C35.1841 19.2389 34.8111 19.5852 34.8111 20.0084V21.5475C34.8111 21.9708 35.1841 22.3171 35.6399 22.3171C36.0958 22.3171 36.4688 21.9708 36.4688 21.5475V20.0084C36.4688 19.5852 36.0958 19.2389 35.6399 19.2389Z" fill="url(#paint1_linear_2667_1814)"/>
</g>
<defs>
<linearGradient id="paint0_linear_2667_1814" x1="49.2157" y1="14.4131" x2="11.4038" y2="-0.993073" gradientUnits="userSpaceOnUse">
<stop stop-color="#B2E958"/>
<stop offset="1" stop-color="#449329"/>
</linearGradient>
<linearGradient id="paint1_linear_2667_1814" x1="63.0075" y1="11.1585" x2="6.20494" y2="-6.5651" gradientUnits="userSpaceOnUse">
<stop stop-color="#B2E958"/>
<stop offset="1" stop-color="#449329"/>
</linearGradient>
</defs>
</svg>
