<svg width="7" height="11" viewBox="0 0 7 11" fill="none" xmlns="http://www.w3.org/2000/svg">
<g id="Up down" opacity="0.3">
<path id="Shape" fill-rule="evenodd" clip-rule="evenodd" d="M0.210757 4.51154H6.55686C6.63798 4.51154 6.71162 4.464 6.74671 4.38913C6.78189 4.31447 6.77209 4.22555 6.72174 4.16072L3.54858 0.0813561C3.50855 0.0299278 3.44797 0 3.38391 0C3.31986 0 3.25917 0.0299278 3.21924 0.0813561L0.0459834 4.16072C-0.00448111 4.22566 -0.014279 4.31447 0.0209092 4.38913C0.0559921 4.464 0.129634 4.51154 0.210757 4.51154Z" fill="#111129"/>
<path id="Shape_2" fill-rule="evenodd" clip-rule="evenodd" d="M6.55675 5.7373H0.210757C0.12974 5.7373 0.0559921 5.78474 0.0209092 5.85972C-0.014279 5.93437 -0.00448111 6.02329 0.0459834 6.08801L3.21914 10.1675C3.25917 10.2189 3.31975 10.2488 3.38381 10.2488C3.44786 10.2488 3.50855 10.2189 3.54847 10.1675L6.72142 6.08801C6.77188 6.02308 6.78158 5.93437 6.74639 5.85972C6.71152 5.78474 6.63787 5.7373 6.55675 5.7373Z" fill="#111129"/>
</g>
</svg>
