<svg width="55" height="55" viewBox="0 0 55 55" fill="none" xmlns="http://www.w3.org/2000/svg">
<circle cx="27.5" cy="27.5" r="27.5" fill="#E3E3E3"/>
<path d="M21.91 24.275L32.1548 6.52675C30.6605 6.1935 29.1018 6 27.5 6C22.34 6 17.6208 7.81675 13.912 10.8483L21.7918 24.49L21.91 24.275ZM48.011 21.05C46.033 14.7613 41.2385 9.741 35.1218 7.419L27.2528 21.05H48.011ZM48.57 23.2H32.4665L33.09 24.275L43.3348 42.0125C46.8393 38.1855 49 33.1008 49 27.5C49 26.0273 48.8495 24.5868 48.57 23.2ZM20.0503 27.5L11.6653 12.9875C8.16075 16.8145 6 21.8993 6 27.5C6 28.9728 6.1505 30.4133 6.43 31.8H22.5335L20.0503 27.5ZM6.989 33.95C8.967 40.2388 13.7615 45.259 19.8783 47.581L27.7473 33.95H6.989ZM31.2195 33.95L22.8345 48.4733C24.3395 48.8065 25.8983 49 27.5 49C32.66 49 37.3793 47.1833 41.088 44.1518L33.2083 30.51L31.2195 33.95Z" fill="black"/>
</svg>
