<svg width="299" height="299" viewBox="0 0 299 299" fill="none" xmlns="http://www.w3.org/2000/svg">
<g clip-path="url(#clip0_110_530)">
<mask id="mask0_110_530" style="mask-type:luminance" maskUnits="userSpaceOnUse" x="0" y="0" width="299" height="299">
<path d="M0 0H299V299H0V0Z" fill="white"/>
</mask>
<g mask="url(#mask0_110_530)">
<path fill-rule="evenodd" clip-rule="evenodd" d="M53.6598 219.507C60.4026 228.668 64.6184 242.165 74.377 250.339C94.6897 267.368 126.041 274.544 160.172 267.195C198.037 259.048 229.78 235.061 245.517 206.203C250.778 196.554 251.476 186.012 255.569 176.035C259.79 165.725 267.585 155.326 270.868 144.362C274.158 133.353 275.516 122.049 274.615 110.797C270.1 54.3741 210.505 20.6122 141.614 35.4427C72.7353 50.2714 20.4711 108.123 24.9879 164.547C25.8869 175.793 28.975 186.141 33.8904 195.386C38.7863 204.586 47.5247 211.177 53.6598 219.507Z" fill="white"/>
<path d="M149.46 165.355C170.541 165.355 187.631 148.265 187.631 127.184C187.631 106.104 170.541 89.0142 149.46 89.0142C128.379 89.0142 111.29 106.104 111.29 127.184C111.29 148.265 128.379 165.355 149.46 165.355Z" fill="url(#paint0_linear_110_530)"/>
<path fill-rule="evenodd" clip-rule="evenodd" d="M149.396 0.187012C66.9073 0.187012 -0.109375 67.1463 -0.109375 149.693C-0.109375 232.147 66.9073 299.151 149.396 299.151C231.966 299.151 298.901 232.147 298.901 149.693C298.901 67.1463 231.966 0.187012 149.396 0.187012ZM217.794 220.7C236.523 202.739 248.007 177.519 248.007 149.693C248.007 95.2513 203.87 51.0467 149.475 51.0467C94.9987 51.0467 50.7843 95.2513 50.7843 149.693C50.7843 177.519 62.4295 202.739 81.0769 220.7C93.5357 195.573 119.509 178.309 149.475 178.309C179.36 178.309 205.338 195.574 217.878 220.655L217.794 220.7Z" fill="url(#paint1_linear_110_530)"/>
</g>
<path d="M150 230.898C148.424 230.898 146.864 231.207 145.408 231.808C143.952 232.408 142.629 233.289 141.515 234.398C140.4 235.508 139.517 236.825 138.913 238.275C138.31 239.724 138 241.278 138 242.847C138 244.417 138.31 245.97 138.913 247.42C139.517 248.87 140.4 250.187 141.515 251.297C142.629 252.406 143.952 253.287 145.408 253.887C146.864 254.488 148.424 254.797 150 254.797C153.183 254.797 156.235 253.538 158.485 251.297C160.736 249.056 162 246.017 162 242.847C162 239.678 160.736 236.639 158.485 234.398C156.235 232.157 153.183 230.898 150 230.898ZM182 218.949H172.4C171.709 218.918 171.042 218.686 170.482 218.283C169.921 217.88 169.491 217.322 169.244 216.679L166.76 209.266C166.511 208.624 166.08 208.067 165.519 207.665C164.958 207.262 164.291 207.031 163.6 207H136.4C135.08 207 133.656 208.02 133.244 209.262L130.756 216.679C130.509 217.322 130.078 217.879 129.518 218.282C128.957 218.686 128.291 218.917 127.6 218.949H118C113.6 218.949 110 222.534 110 226.915V262.763C110 267.144 113.6 270.729 118 270.729H182C186.4 270.729 190 267.144 190 262.763V226.915C190 222.534 186.4 218.949 182 218.949ZM150 262.763C144.696 262.763 139.609 260.665 135.858 256.93C132.107 253.195 130 248.129 130 242.847C130 237.566 132.107 232.5 135.858 228.765C139.609 225.03 144.696 222.932 150 222.932C155.304 222.932 160.391 225.03 164.142 228.765C167.893 232.5 170 237.566 170 242.847C170 248.129 167.893 253.195 164.142 256.93C160.391 260.665 155.304 262.763 150 262.763ZM180 231.695C179.257 231.695 178.545 231.401 178.02 230.878C177.495 230.355 177.2 229.646 177.2 228.907C177.2 228.167 177.495 227.458 178.02 226.935C178.545 226.412 179.257 226.119 180 226.119C180.743 226.119 181.455 226.412 181.98 226.935C182.505 227.458 182.8 228.167 182.8 228.907C182.8 229.646 182.505 230.355 181.98 230.878C181.455 231.401 180.743 231.695 180 231.695Z" fill="black"/>
<path d="M145.277 239.825L152.276 227.699C151.255 227.471 150.19 227.339 149.096 227.339C145.571 227.339 142.346 228.58 139.812 230.651L145.196 239.972L145.277 239.825ZM163.11 237.621C161.758 233.325 158.482 229.895 154.303 228.308L148.927 237.621H163.11ZM163.491 239.09H152.489L152.915 239.825L159.915 251.943C162.309 249.329 163.785 245.855 163.785 242.028C163.785 241.022 163.682 240.038 163.491 239.09ZM144.006 242.028L138.277 232.113C135.883 234.728 134.407 238.202 134.407 242.028C134.407 243.034 134.51 244.019 134.701 244.966H145.703L144.006 242.028ZM135.082 246.435C136.434 250.732 139.71 254.161 143.889 255.748L149.265 246.435H135.082ZM151.637 246.435L145.908 256.358C146.937 256.585 148.002 256.717 149.096 256.717C152.621 256.717 155.846 255.476 158.38 253.405L152.996 244.085L151.637 246.435Z" fill="white"/>
</g>
<defs>
<linearGradient id="paint0_linear_110_530" x1="237.454" y1="127.184" x2="116.671" y2="105.123" gradientUnits="userSpaceOnUse">
<stop stop-color="#B2E958"/>
<stop offset="1" stop-color="#449329"/>
</linearGradient>
<linearGradient id="paint1_linear_110_530" x1="494.051" y1="149.669" x2="20.9697" y2="63.2486" gradientUnits="userSpaceOnUse">
<stop stop-color="#B2E958"/>
<stop offset="1" stop-color="#449329"/>
</linearGradient>
<clipPath id="clip0_110_530">
<rect width="299" height="299" fill="white"/>
</clipPath>
</defs>
</svg>
