<svg width="60" height="60" viewBox="0 0 60 60" fill="none" xmlns="http://www.w3.org/2000/svg">
<g opacity="0.9" filter="url(#filter0_b_1_133)">
<circle cx="30" cy="30" r="30" fill="white"/>
</g>
<path d="M30.88 38.86H24.81C21.26 38.86 20 36.37 20 34.05V25.95C20 22.49 21.35 21.14 24.81 21.14H30.88C34.34 21.14 35.69 22.49 35.69 25.95V34.05C35.69 37.51 34.34 38.86 30.88 38.86ZM24.81 22.66C22.2 22.66 21.52 23.34 21.52 25.95V34.05C21.52 35.28 21.95 37.34 24.81 37.34H30.88C33.49 37.34 34.17 36.66 34.17 34.05V25.95C34.17 23.34 33.49 22.66 30.88 22.66H24.81V22.66Z" fill="#070C18"/>
<path d="M38.7799 36.11C38.3499 36.11 37.7999 35.97 37.1699 35.53L34.4999 33.66C34.2999 33.52 34.1799 33.29 34.1799 33.04V26.96C34.1799 26.71 34.2999 26.48 34.4999 26.34L37.1699 24.47C38.3599 23.64 39.2299 23.88 39.6399 24.09C40.0499 24.31 40.7499 24.88 40.7499 26.33V33.66C40.7499 35.11 40.0499 35.69 39.6399 35.9C39.4499 36.01 39.1499 36.11 38.7799 36.11ZM35.6899 32.64L38.0399 34.28C38.4899 34.59 38.8099 34.62 38.9399 34.55C39.0799 34.48 39.2299 34.2 39.2299 33.66V26.34C39.2299 25.79 39.0699 25.52 38.9399 25.45C38.8099 25.38 38.4899 25.41 38.0399 25.72L35.6899 27.36V32.64Z" fill="#070C18"/>
<path d="M29.5 29.75C28.26 29.75 27.25 28.74 27.25 27.5C27.25 26.26 28.26 25.25 29.5 25.25C30.74 25.25 31.75 26.26 31.75 27.5C31.75 28.74 30.74 29.75 29.5 29.75ZM29.5 26.75C29.09 26.75 28.75 27.09 28.75 27.5C28.75 27.91 29.09 28.25 29.5 28.25C29.91 28.25 30.25 27.91 30.25 27.5C30.25 27.09 29.91 26.75 29.5 26.75Z" fill="#070C18"/>
<defs>
<filter id="filter0_b_1_133" x="-40" y="-40" width="140" height="140" filterUnits="userSpaceOnUse" color-interpolation-filters="sRGB">
<feFlood flood-opacity="0" result="BackgroundImageFix"/>
<feGaussianBlur in="BackgroundImageFix" stdDeviation="20"/>
<feComposite in2="SourceAlpha" operator="in" result="effect1_backgroundBlur_1_133"/>
<feBlend mode="normal" in="SourceGraphic" in2="effect1_backgroundBlur_1_133" result="shape"/>
</filter>
</defs>
</svg>
