<svg width="20" height="11" viewBox="0 0 20 11" fill="none" xmlns="http://www.w3.org/2000/svg">
<g id="Incoming call">
<g id="Group 36048">
<path id="Vector" d="M11.7857 11H1.57143C1.15466 11 0.754961 10.8344 0.460261 10.5397C0.165561 10.245 0 9.84534 0 9.42857V1.57143C0 1.15466 0.165561 0.754961 0.460261 0.460261C0.754961 0.165561 1.15466 0 1.57143 0H11.7857C12.2025 0 12.6022 0.165561 12.8969 0.460261C13.1916 0.754961 13.3571 1.15466 13.3571 1.57143V9.42857C13.3571 9.84534 13.1916 10.245 12.8969 10.5397C12.6022 10.8344 12.2025 11 11.7857 11Z" fill="#2ABE46"/>
<path id="Vector_2" d="M14.9287 3.14275V7.85703L18.4212 10.1859C18.5396 10.2649 18.6772 10.3102 18.8194 10.3171C18.9615 10.324 19.1029 10.2921 19.2283 10.2249C19.3538 10.1577 19.4586 10.0577 19.5316 9.93553C19.6047 9.81339 19.6432 9.6737 19.643 9.53139V1.46839C19.643 1.32614 19.6044 1.18656 19.5313 1.06452C19.4582 0.942493 19.3534 0.842595 19.228 0.775488C19.1025 0.70838 18.9612 0.67658 18.8192 0.683482C18.6771 0.690383 18.5395 0.735726 18.4212 0.814674L14.9287 3.14275Z" fill="#2ABE46"/>
</g>
</g>
</svg>
