<svg width="14" height="19" viewBox="0 0 14 19" fill="none" xmlns="http://www.w3.org/2000/svg">
<path id="Vector" d="M7 12.0909C8.925 12.0909 10.5 10.5364 10.5 8.63636V3.45455C10.5 1.55455 8.925 0 7 0C5.075 0 3.5 1.46818 3.5 3.45455V8.63636C3.5 10.6227 5.075 12.0909 7 12.0909ZM14 8.63636C14 8.11818 13.65 7.77273 13.125 7.77273C12.6 7.77273 12.25 8.11818 12.25 8.63636C12.25 11.4864 9.8875 13.8182 7 13.8182C4.1125 13.8182 1.75 11.4864 1.75 8.63636C1.75 8.11818 1.4 7.77273 0.875 7.77273C0.35 7.77273 0 8.11818 0 8.63636C0 12.0909 2.625 15.0273 6.125 15.4591V17.2727H4.375C3.85 17.2727 3.5 17.6182 3.5 18.1364C3.5 18.6545 3.85 19 4.375 19H9.625C10.15 19 10.5 18.6545 10.5 18.1364C10.5 17.6182 10.15 17.2727 9.625 17.2727H7.875V15.4591C11.375 15.0273 14 12.0909 14 8.63636Z" fill="white"/>
</svg>
