<svg width="24" height="24" viewBox="0 0 24 24" fill="none" xmlns="http://www.w3.org/2000/svg">
<g id="volume-low">
<g id="vuesax/bold/volume-low">
<g id="volume-low_2">
<path id="Vector" d="M19.3304 16.75C19.1704 16.75 19.0204 16.7 18.8804 16.6C18.5504 16.35 18.4804 15.88 18.7304 15.55C20.3004 13.46 20.3004 10.54 18.7304 8.45003C18.4804 8.12003 18.5504 7.65003 18.8804 7.40003C19.2104 7.15003 19.6804 7.22003 19.9304 7.55003C21.9004 10.17 21.9004 13.83 19.9304 16.45C19.7904 16.65 19.5604 16.75 19.3304 16.75Z" fill="white"/>
<path id="Vector_2" d="M15.3501 3.77997C14.2301 3.15997 12.8001 3.31997 11.3401 4.22997L8.42008 6.05997C8.22008 6.17997 7.99008 6.24997 7.76008 6.24997H6.83008H6.33008C3.91008 6.24997 2.58008 7.57997 2.58008 9.99997V14C2.58008 16.42 3.91008 17.75 6.33008 17.75H6.83008H7.76008C7.99008 17.75 8.22008 17.82 8.42008 17.94L11.3401 19.77C12.2201 20.32 13.0801 20.59 13.8801 20.59C14.4001 20.59 14.9001 20.47 15.3501 20.22C16.4601 19.6 17.0801 18.31 17.0801 16.59V7.40997C17.0801 5.68997 16.4601 4.39997 15.3501 3.77997Z" fill="white"/>
</g>
</g>
</g>
</svg>
