<svg width="8" height="8" viewBox="0 0 8 8" fill="none" xmlns="http://www.w3.org/2000/svg">
<path id="Vector" d="M4 0C1.79085 0 0 1.79087 0 4C0 6.20913 1.79085 8 4 8C6.20913 8 8 6.20913 8 4C8 1.79087 6.20913 0 4 0ZM3.58559 7.40383C2.82667 7.31294 2.12448 6.97321 1.57562 6.42436C0.92804 5.77679 0.571422 4.91581 0.571422 4C0.571422 3.17558 0.860576 2.39569 1.39067 1.77579C1.40433 1.93957 1.43804 2.11517 1.42941 2.24069C1.39787 2.69829 1.35271 2.98467 1.62056 3.37073C1.7249 3.52109 1.75054 3.73665 1.80133 3.91069C1.851 4.08096 2.04944 4.17027 2.1863 4.27517C2.46244 4.48688 2.72661 4.73296 3.01942 4.91929C3.21267 5.04227 3.33338 5.10344 3.27679 5.33927C3.23127 5.52892 3.21855 5.64575 3.12044 5.81471C3.0905 5.86627 3.23346 6.19775 3.28104 6.24533C3.42523 6.3895 3.56831 6.52177 3.72548 6.65158C3.96915 6.8529 3.70181 7.1145 3.58559 7.40383ZM6.42436 6.42436C5.93142 6.91731 5.31477 7.2414 4.64444 7.36823C4.73944 7.13331 4.90859 6.92458 5.0655 6.80358C5.20198 6.69827 5.37292 6.49571 5.44421 6.33527C5.51544 6.17504 5.60981 6.03613 5.70531 5.88879C5.84117 5.67919 5.37033 5.3631 5.21775 5.29684C4.8744 5.14779 4.61594 4.94665 4.31081 4.73194C4.0934 4.57898 3.65202 4.81183 3.40657 4.70469C3.0704 4.5579 2.79344 4.30284 2.50123 4.08279C2.19969 3.85569 2.21427 3.59094 2.21427 3.25592C2.45046 3.26463 2.78646 3.19056 2.94327 3.3805C2.99275 3.44044 3.16288 3.70823 3.27677 3.61308C3.36981 3.53533 3.20782 3.22367 3.17654 3.1504C3.08029 2.92511 3.39584 2.83725 3.55736 2.68448C3.76813 2.48517 4.22025 2.17259 4.18452 2.02973C4.14879 1.88687 3.73213 1.4821 3.48742 1.54525C3.45075 1.55471 3.12786 1.89327 3.06548 1.94638C3.06713 1.83589 3.06879 1.72541 3.07048 1.61491C3.07154 1.54514 2.94032 1.47352 2.94642 1.42852C2.9618 1.31479 3.27838 1.10839 3.35713 1.01781C3.30196 0.983328 3.11369 0.821616 3.05671 0.845347C2.91875 0.902847 2.76294 0.942463 2.62498 0.999943C2.62498 0.952097 2.61917 0.907155 2.61225 0.86277C2.89007 0.739865 3.18315 0.654799 3.48359 0.609847L3.75444 0.718693L3.94567 0.945636L4.13652 1.14242L4.30334 1.19617L4.56833 0.94627L4.5 0.767866V0.607501C5.02404 0.683616 5.51892 0.879117 5.95235 1.18058C5.87481 1.18752 5.7896 1.19892 5.69346 1.21116C5.65375 1.18769 5.60281 1.17704 5.55952 1.16071C5.68511 1.43075 5.81611 1.69706 5.94921 1.96352C6.09138 2.24815 6.40677 2.55346 6.46215 2.85392C6.52742 3.20807 6.48213 3.52977 6.51785 3.94644C6.55223 4.34769 6.97023 4.8036 6.97023 4.8036C6.97023 4.8036 7.16325 4.86934 7.32377 4.84644C7.17413 5.43842 6.86736 5.98133 6.42436 6.42436Z" fill="#6F6E6E"/>
</svg>
